Radio-Canada-Condensed-slant-12.ufo
<glyph name="exclam" format="1">
  <advance width="278"/>
  <unicode hex="0021"/>
  <outline>
    <contour>
      <point x="30.415271521831087" y="49.0" type="curve" smooth="yes"/>
      <point x="23.613461548390376" y="17.0"/>
      <point x="44.874434383299786" y="-10.0"/>
      <point x="76.87443438329979" y="-10.0" type="curve" smooth="yes"/>
      <point x="109.87443438329979" y="-10.0"/>
      <point x="141.61346154839038" y="17.0"/>
      <point x="148.41527152183107" y="49.0" type="curve" smooth="yes"/>
      <point x="155.42963805694183" y="82.0"/>
      <point x="134.9561086603624" y="108.0"/>
      <point x="101.95610866036239" y="108.0" type="curve" smooth="yes"/>
      <point x="69.95610866036239" y="108.0"/>
      <point x="37.42963805694181" y="82.0"/>
    </contour>
    <contour>
      <point x="89.78665170402456" y="206.0" type="line"/>
      <point x="155.78665170402456" y="206.0" type="line"/>
      <point x="235.25407269839138" y="514.0" type="line"/>
      <point x="272.66402755231525" y="690.0" type="line"/>
      <point x="178.66402755231528" y="690.0" type="line"/>
      <point x="141.25407269839138" y="514.0" type="line"/>
    </contour>
  </outline>
</glyph>
<glyph name="quotedbl" format="1">
  <advance width="355"/>
  <unicode hex="0022"/>
  <outline>
    <contour>
      <point x="147.04072440241592" y="720.0" type="line"/>
      <point x="111.38947991660055" y="477.0" type="line"/>
      <point x="174.38947991660055" y="477.0" type="line"/>
      <point x="242.0407244024159" y="720.0" type="line"/>
    </contour>
    <contour>
      <point x="299.0407244024159" y="720.0" type="line"/>
      <point x="263.3894799166005" y="477.0" type="line"/>
      <point x="326.3894799166005" y="477.0" type="line"/>
      <point x="394.0407244024159" y="720.0" type="line"/>
    </contour>
  </outline>
</glyph>
<glyph name="numbersign" format="1">
  <advance width="635"/>
  <unicode hex="0023"/>
  <outline>
    <contour>
      <point x="36.786651704024564" y="206.0" type="line"/>
      <point x="519.7866517040245" y="206.0" type="line"/>
      <point x="535.3032807059362" y="279.0" type="line"/>
      <point x="52.303280705936174" y="279.0" type="line"/>
    </contour>
    <contour>
      <point x="28.0" y="0.0" type="line"/>
      <point x="110.0" y="0.0" type="line"/>
      <point x="418.66402755231525" y="690.0" type="line"/>
      <point x="335.66402755231525" y="690.0" type="line"/>
    </contour>
    <contour>
      <point x="126.3607468463791" y="411.0" type="line"/>
      <point x="609.3607468463791" y="411.0" type="line"/>
      <point x="624.8773758482907" y="484.0" type="line"/>
      <point x="141.8773758482907" y="484.0" type="line"/>
    </contour>
    <contour>
      <point x="243.0" y="0.0" type="line"/>
      <point x="325.0" y="0.0" type="line"/>
      <point x="633.6640275523152" y="690.0" type="line"/>
      <point x="551.6640275523152" y="690.0" type="line"/>
    </contour>
  </outline>
</glyph>
<glyph name="dollar" format="1">
  <advance width="500"/>
  <unicode hex="0024"/>
  <outline>
    <contour>
      <point x="-6.782918504728208" y="81.0" type="line"/>
      <point x="29.589253411770684" y="31.0"/>
      <point x="102.87443438329979" y="-10.0"/>
      <point x="182.87443438329979" y="-10.0" type="curve" smooth="yes"/>
      <point x="309.8744343832998" y="-10.0"/>
      <point x="413.87895931690156" y="70.0"/>
      <point x="439.81085984064424" y="192.0" type="curve" smooth="yes"/>
      <point x="457.240497897586" y="274.0"/>
      <point x="416.4817875294775" y="341.0"/>
      <point x="294.8100681063388" y="399.0" type="curve" smooth="yes"/>
      <point x="211.31233057313972" y="439.0"/>
      <point x="194.11414054658042" y="471.0"/>
      <point x="204.95452519175154" y="522.0" type="curve" smooth="yes"/>
      <point x="215.58235327525267" y="572.0"/>
      <point x="265.14739855040364" y="617.0"/>
      <point x="334.14739855040364" y="617.0" type="curve" smooth="yes"/>
      <point x="384.14739855040364" y="617.0"/>
      <point x="425.47115419366315" y="595.0"/>
      <point x="454.60656141187235" y="558.0" type="curve"/>
      <point x="518.123190413784" y="631.0" type="line"/>
      <point x="479.4756791272649" y="675.0"/>
      <point x="422.78959316901546" y="700.0"/>
      <point x="354.78959316901546" y="700.0" type="curve" smooth="yes"/>
      <point x="229.78959316901546" y="700.0"/>
      <point x="132.93484198873364" y="616.0"/>
      <point x="111.46662926006138" y="515.0" type="curve" smooth="yes"/>
      <point x="93.1867649564395" y="429.0"/>
      <point x="124.64592781790819" y="370.0"/>
      <point x="247.53020380271693" y="313.0" type="curve" smooth="yes"/>
      <point x="337.39027165090596" y="270.0"/>
      <point x="357.31312230744516" y="232.0"/>
      <point x="346.685294223944" y="182.0" type="curve" smooth="yes"/>
      <point x="334.14445708541274" y="123.0"/>
      <point x="279.7291855635816" y="74.0"/>
      <point x="207.7291855635816" y="74.0" type="curve" smooth="yes"/>
      <point x="141.72918556358164" y="74.0"/>
      <point x="97.53099553702233" y="106.0"/>
      <point x="60.52115393551338" y="153.0" type="curve"/>
    </contour>
    <contour>
      <point x="140.7443438329978" y="-100.0" type="line"/>
      <point x="214.7443438329978" y="-100.0" type="line"/>
      <point x="311.8826925161979" y="357.0" type="line"/>
      <point x="242.77149343460837" y="380.0" type="line"/>
    </contour>
    <contour>
      <point x="236.18224002283773" y="349.0" type="line"/>
      <point x="305.2934391044272" y="326.0" type="line"/>
      <point x="403.9196837193175" y="790.0" type="line"/>
      <point x="329.9196837193175" y="790.0" type="line"/>
    </contour>
  </outline>
</glyph>
<glyph name="percent" format="1">
  <advance width="804"/>
  <unicode hex="0025"/>
  <outline>
    <contour>
      <point x="112.10429894507146" y="518.0" type="curve" smooth="yes"/>
      <point x="87.23518122967886" y="401.0"/>
      <point x="138.63156128279746" y="337.0"/>
      <point x="219.63156128279746" y="337.0" type="curve" smooth="yes"/>
      <point x="299.63156128279746" y="337.0"/>
      <point x="379.23518122967886" y="401.0"/>
      <point x="404.1042989450715" y="518.0" type="curve" smooth="yes"/>
      <point x="428.97341666046407" y="635.0"/>
      <point x="376.78959316901546" y="700.0"/>
      <point x="296.78959316901546" y="700.0" type="curve" smooth="yes"/>
      <point x="215.78959316901546" y="700.0"/>
      <point x="136.97341666046404" y="635.0"/>
    </contour>
    <contour>
      <point x="191.10429894507146" y="518.0" type="curve" smooth="yes"/>
      <point x="205.770701700303" y="587.0"/>
      <point x="242.99762479708374" y="621.0"/>
      <point x="279.99762479708374" y="621.0" type="curve" smooth="yes"/>
      <point x="316.99762479708374" y="621.0"/>
      <point x="339.770701700303" y="587.0"/>
      <point x="325.1042989450715" y="518.0" type="curve" smooth="yes"/>
      <point x="310.65045275151" y="450.0"/>
      <point x="273.63608621639924" y="417.0"/>
      <point x="236.63608621639924" y="417.0" type="curve" smooth="yes"/>
      <point x="199.63608621639924" y="417.0"/>
      <point x="176.65045275150996" y="450.0"/>
    </contour>
    <contour>
      <point x="105.0" y="0.0" type="line"/>
      <point x="199.0" y="0.0" type="line"/>
      <point x="724.6640275523152" y="690.0" type="line"/>
      <point x="631.6640275523152" y="690.0" type="line"/>
    </contour>
    <contour>
      <point x="426.34717204557376" y="171.0" type="curve" smooth="yes"/>
      <point x="401.4780543301812" y="54.0"/>
      <point x="452.8744343832998" y="-10.0"/>
      <point x="533.8744343832998" y="-10.0" type="curve" smooth="yes"/>
      <point x="613.8744343832998" y="-10.0"/>
      <point x="693.4780543301812" y="54.0"/>
      <point x="718.3471720455738" y="171.0" type="curve" smooth="yes"/>
      <point x="743.2162897609663" y="288.0"/>
      <point x="691.0324662695178" y="353.0"/>
      <point x="611.0324662695178" y="353.0" type="curve" smooth="yes"/>
      <point x="530.0324662695178" y="353.0"/>
      <point x="451.2162897609664" y="288.0"/>
    </contour>
    <contour>
      <point x="505.13461548390376" y="170.0" type="curve" smooth="yes"/>
      <point x="519.8010182391353" y="239.0"/>
      <point x="557.027941335916" y="273.0"/>
      <point x="594.027941335916" y="273.0" type="curve" smooth="yes"/>
      <point x="631.027941335916" y="273.0"/>
      <point x="653.8010182391353" y="239.0"/>
      <point x="639.1346154839038" y="170.0" type="curve" smooth="yes"/>
      <point x="624.6807692903423" y="102.0"/>
      <point x="587.6664027552315" y="69.0"/>
      <point x="550.6664027552315" y="69.0" type="curve" smooth="yes"/>
      <point x="513.6664027552315" y="69.0"/>
      <point x="490.68076929034225" y="102.0"/>
    </contour>
  </outline>
</glyph>
<glyph name="ampersand" format="1">
  <advance width="556"/>
  <unicode hex="0026"/>
  <outline>
    <contour>
      <point x="15.22160642887357" y="161.0" type="curve" smooth="yes"/>
      <point x="-7.338707254586026" y="54.86206896551724"/>
      <point x="54.999434383299786" y="-10.0"/>
      <point x="152.87443438329979" y="-10.0" type="curve" smooth="yes"/>
      <point x="308.8744343832998" y="-10.0"/>
      <point x="427.7579186338031" y="140.0"/>
      <point x="510.42884632263645" y="289.0" type="curve"/>
      <point x="440.167873487727" y="316.0" type="line"/>
      <point x="371.4600679772639" y="178.0"/>
      <point x="280.6471719860008" y="69.0"/>
      <point x="177.66640275523153" y="69.0" type="curve" smooth="yes"/>
      <point x="124.66640275523153" y="69.0"/>
      <point x="93.0401471248795" y="113.1"/>
      <point x="104.4969457988937" y="167.0" type="curve" smooth="yes"/>
      <point x="114.65087728588458" y="214.77049180327867"/>
      <point x="151.86043891366447" y="253.39344262295083"/>
      <point x="206.85395944597644" y="291.0" type="curve" smooth="yes"/>
      <point x="294.39479658450773" y="350.0" type="line" smooth="yes"/>
      <point x="357.5071955029417" y="392.8704663212435"/>
      <point x="437.6945270336651" y="464.32124352331607"/>
      <point x="455.26843923350214" y="547.0" type="curve" smooth="yes"/>
      <point x="473.91113894175817" y="634.7070063694268"/>
      <point x="431.78959316901546" y="700.0"/>
      <point x="340.78959316901546" y="700.0" type="curve" smooth="yes"/>
      <point x="250.00011948480494" y="700.0"/>
      <point x="174.84785104376382" y="625.0"/>
      <point x="156.56798674014192" y="539.0" type="curve" smooth="yes"/>
      <point x="140.62624461489025" y="464.0"/>
      <point x="167.23518122967886" y="401.0"/>
      <point x="198.6073531461778" y="351.0" type="curve"/>
      <point x="380.0" y="0.0" type="line"/>
      <point x="492.0" y="0.0" type="line"/>
      <point x="279.8100681063388" y="399.0" type="line"/>
      <point x="252.1514726489837" y="454.0"/>
      <point x="231.30248897163074" y="486.0"/>
      <point x="242.78054330181192" y="540.0" type="curve" smooth="yes"/>
      <point x="252.13303201529294" y="584.0"/>
      <point x="284.5725116737437" y="619.0"/>
      <point x="324.5725116737437" y="619.0" type="curve" smooth="yes"/>
      <point x="364.5725116737437" y="619.0"/>
      <point x="380.34558857696294" y="585.0"/>
      <point x="371.205656425152" y="542.0" type="curve"/>
      <point x="358.23970616328063" y="481.0"/>
      <point x="304.03699120311956" y="433.0"/>
      <point x="260.29796403802897" y="406.0" type="curve" smooth="yes"/>
      <point x="173.81990970784778" y="352.0" type="line" smooth="yes"/>
      <point x="94.18915528968088" y="301.2021276595745"/>
      <point x="31.84963489951727" y="239.22872340425533"/>
    </contour>
  </outline>
</glyph>
<glyph name="quotesingle" format="1">
  <advance width="203"/>
  <unicode hex="0027"/>
  <outline>
    <contour>
      <point x="147.04072440241592" y="720.0" type="line"/>
      <point x="111.38947991660055" y="477.0" type="line"/>
      <point x="174.38947991660055" y="477.0" type="line"/>
      <point x="242.0407244024159" y="720.0" type="line"/>
    </contour>
  </outline>
</glyph>
<glyph name="parenleft" format="1">
  <advance width="274"/>
  <unicode hex="0028"/>
  <outline>
    <contour>
      <point x="61.96515852756593" y="268.0" type="curve" smooth="yes"/>
      <point x="16.265497768511167" y="53.0"/>
      <point x="60.744343450662214" y="-122.54671968190854"/>
      <point x="158.62409488420477" y="-237.0" type="curve"/>
      <point x="204.12635735100565" y="-197.0" type="line"/>
      <point x="130.60451737158513" y="-89.5377969762419"/>
      <point x="105.70497742696193" y="88.0"/>
      <point x="143.96515852756593" y="268.0" type="curve" smooth="yes"/>
      <point x="182.2253396281699" y="448.0"/>
      <point x="282.84785104376385" y="625.0"/>
      <point x="403.5914031424562" y="732.0" type="curve"/>
      <point x="371.0936656092571" y="772.0" type="line"/>
      <point x="225.56567794528735" y="657.5458167330678"/>
      <point x="107.87737584829071" y="484.0"/>
    </contour>
  </outline>
</glyph>
<glyph name="parenright" format="1">
  <advance width="274"/>
  <unicode hex="0029"/>
  <outline>
    <contour>
      <point x="-133.08619921066438" y="-198.0" type="curve"/>
      <point x="-101.37590511579523" y="-237.0" type="line"/>
      <point x="45.0680994762573" y="-122.0"/>
      <point x="162.05294120684115" y="52.0"/>
      <point x="207.7526019658959" y="267.0" type="curve" smooth="yes"/>
      <point x="253.45226272495069" y="482.0"/>
      <point x="208.86221757887455" y="658.0"/>
      <point x="111.09366560925707" y="772.0" type="curve"/>
      <point x="65.80395970412621" y="733.0" type="line"/>
      <point x="138.84785104376382" y="625.0"/>
      <point x="164.2253396281699" y="448.0"/>
      <point x="125.7526019658959" y="267.0" type="curve" smooth="yes"/>
      <point x="87.49242086529193" y="87.0"/>
      <point x="-13.130090550301986" y="-90.0"/>
    </contour>
  </outline>
</glyph>
<glyph name="asterisk" format="1">
  <advance width="508"/>
  <unicode hex="002A"/>
  <outline>
    <contour>
      <point x="88.5921948767616" y="525.0" type="line"/>
      <point x="245.81459303994063" y="479.0" type="line"/>
      <point x="99.84411784446746" y="338.0" type="line"/>
      <point x="157.15350695261625" y="283.0" type="line"/>
      <point x="287.3123305731397" y="439.0" type="line"/>
      <point x="351.1535069526163" y="283.0" type="line"/>
      <point x="431.84411784446746" y="338.0" type="line"/>
      <point x="345.81459303994063" y="479.0" type="line"/>
      <point x="522.5921948767616" y="525.0" type="line"/>
      <point x="511.0218329337034" y="607.0" type="line"/>
      <point x="341.7805433018119" y="540.0" type="line"/>
      <point x="391.0407244024159" y="720.0" type="line"/>
      <point x="303.0407244024159" y="720.0" type="line"/>
      <point x="275.7805433018119" y="540.0" type="line"/>
      <point x="135.02183293370342" y="607.0" type="line"/>
    </contour>
  </outline>
</glyph>
<glyph name="plus" format="1">
  <advance width="500"/>
  <unicode hex="002B"/>
  <outline>
    <contour>
      <point x="45.564253540845584" y="252.0" type="line"/>
      <point x="441.5642535408456" y="252.0" type="line"/>
      <point x="457.7185522277673" y="328.0" type="line"/>
      <point x="61.71855222776726" y="328.0" type="line"/>
    </contour>
    <contour>
      <point x="164.02873307022145" y="66.0" type="line"/>
      <point x="244.02873307022145" y="66.0" type="line"/>
      <point x="339.2540726983914" y="514.0" type="line"/>
      <point x="259.2540726983914" y="514.0" type="line"/>
    </contour>
  </outline>
</glyph>
<glyph name="comma" format="1">
  <advance width="197"/>
  <unicode hex="002C"/>
  <outline>
    <contour>
      <point x="-41.18303175714314" y="-142.0" type="line"/>
      <point x="11.81696824285686" y="-142.0" type="line"/>
      <point x="76.11119908158949" y="-23.0" type="line" smooth="yes"/>
      <point x="89.63766968501005" y="3.0"/>
      <point x="103.31391404175056" y="25.0"/>
      <point x="108.41527152183107" y="49.0" type="curve" smooth="yes"/>
      <point x="115.42963805694183" y="82.0"/>
      <point x="95.95610866036239" y="108.0"/>
      <point x="61.95610866036239" y="108.0" type="curve" smooth="yes"/>
      <point x="29.95610866036239" y="108.0"/>
      <point x="-2.145248819718141" y="84.0"/>
      <point x="-9.584728478168913" y="49.0" type="curve" smooth="yes"/>
      <point x="-14.89864251991947" y="24.0"/>
      <point x="-3.574886876659953" y="2.0"/>
      <point x="17.724660629979866" y="-6.0" type="curve"/>
    </contour>
  </outline>
</glyph>
<glyph name="hyphen" format="1">
  <advance width="315"/>
  <unicode hex="002D"/>
  <outline>
    <contour>
      <point x="40.16334855412522" y="236.0" type="line"/>
      <point x="256.1633485541252" y="236.0" type="line"/>
      <point x="272.5302038027169" y="313.0" type="line"/>
      <point x="56.530203802716926" y="313.0" type="line"/>
    </contour>
  </outline>
</glyph>
<glyph name="period" format="1">
  <advance width="197"/>
  <unicode hex="002E"/>
  <outline>
    <contour>
      <point x="-9.584728478168913" y="49.0" type="curve" smooth="yes"/>
      <point x="-16.386538451609624" y="17.0"/>
      <point x="4.874434383299786" y="-10.0"/>
      <point x="36.874434383299786" y="-10.0" type="curve" smooth="yes"/>
      <point x="69.87443438329979" y="-10.0"/>
      <point x="101.61346154839038" y="17.0"/>
      <point x="108.41527152183107" y="49.0" type="curve" smooth="yes"/>
      <point x="115.42963805694183" y="82.0"/>
      <point x="94.95610866036239" y="108.0"/>
      <point x="61.95610866036239" y="108.0" type="curve" smooth="yes"/>
      <point x="29.95610866036239" y="108.0"/>
      <point x="-2.570361943058188" y="82.0"/>
    </contour>
  </outline>
</glyph>
<glyph name="slash" format="1">
  <advance width="294"/>
  <unicode hex="002F"/>
  <outline>
    <contour>
      <point x="-67.37669685010066" y="-30.0" type="line"/>
      <point x="17.623303149899343" y="-30.0" type="line"/>
      <point x="388.0407244024159" y="720.0" type="line"/>
      <point x="302.0407244024159" y="720.0" type="line"/>
    </contour>
  </outline>
</glyph>
<glyph name="zero" format="1">
  <advance width="500"/>
  <unicode hex="0030"/>
  <outline>
    <contour>
      <point x="50.33201377615764" y="345.0" type="curve" smooth="yes"/>
      <point x="-6.633144751408295" y="77.0"/>
      <point x="67.87443438329979" y="-10.0"/>
      <point x="187.87443438329979" y="-10.0" type="curve" smooth="yes"/>
      <point x="308.8744343832998" y="-10.0"/>
      <point x="419.3668552485917" y="77.0"/>
      <point x="476.3320137761576" y="345.0" type="curve" smooth="yes"/>
      <point x="533.2971723037235" y="613.0"/>
      <point x="459.78959316901546" y="700.0"/>
      <point x="338.78959316901546" y="700.0" type="curve" smooth="yes"/>
      <point x="218.78959316901546" y="700.0"/>
      <point x="107.29717230372356" y="613.0"/>
    </contour>
    <contour>
      <point x="143.33201377615762" y="345.0" type="curve" smooth="yes"/>
      <point x="187.75633516519224" y="554.0"/>
      <point x="253.50972886539358" y="614.0"/>
      <point x="320.5097288653936" y="614.0" type="curve" smooth="yes"/>
      <point x="387.5097288653936" y="614.0"/>
      <point x="427.75633516519224" y="554.0"/>
      <point x="383.3320137761576" y="345.0" type="curve" smooth="yes"/>
      <point x="338.907692387123" y="136.0"/>
      <point x="273.15429868692166" y="76.0"/>
      <point x="206.15429868692166" y="76.0" type="curve" smooth="yes"/>
      <point x="139.1542986869217" y="76.0"/>
      <point x="98.907692387123" y="136.0"/>
    </contour>
  </outline>
</glyph>
<glyph name="one" format="1">
  <advance width="500"/>
  <unicode hex="0031"/>
  <outline>
    <contour>
      <point x="17.0" y="0.0" type="line"/>
      <point x="368.0" y="0.0" type="line"/>
      <point x="384.3668552485917" y="77.0" type="line"/>
      <point x="33.366855248591705" y="77.0" type="line"/>
    </contour>
    <contour>
      <point x="134.47115419366315" y="595.0" type="line"/>
      <point x="155.5921948767616" y="525.0" type="line"/>
      <point x="330.87205918038353" y="611.0" type="line"/>
      <point x="324.66402755231525" y="690.0" type="line"/>
    </contour>
    <contour>
      <point x="151.0" y="0.0" type="line"/>
      <point x="241.0" y="0.0" type="line"/>
      <point x="387.66402755231525" y="690.0" type="line"/>
      <point x="324.66402755231525" y="690.0" type="line"/>
      <point x="286.39852978380407" y="637.0" type="line"/>
    </contour>
  </outline>
</glyph>
<glyph name="two" format="1">
  <advance width="500"/>
  <unicode hex="0032"/>
  <outline>
    <contour>
      <point x="109.98325826197299" y="588.0" type="curve"/>
      <point x="159.71776049346184" y="535.0" type="line"/>
      <point x="208.34558857696294" y="585.0"/>
      <point x="252.87205918038353" y="611.0"/>
      <point x="303.87205918038353" y="611.0" type="curve" smooth="yes"/>
      <point x="366.5791298874542" y="611.0"/>
      <point x="390.45678765855246" y="562.0"/>
      <point x="378.55362020503117" y="506.0" type="curve" smooth="yes"/>
      <point x="367.7132355598601" y="455.0"/>
      <point x="341.0298120147572" y="408.5130890052356"/>
      <point x="253.16787348772698" y="316.0" type="curve" smooth="yes"/>
      <point x="12.603619946881423" y="64.0" type="line"/>
      <point x="58.0" y="0.0" type="line"/>
      <point x="290.2261313624753" y="241.0" type="line" smooth="yes"/>
      <point x="399.45757939285784" y="355.0"/>
      <point x="457.46210432645967" y="435.0"/>
      <point x="473.1912898900413" y="509.0" type="curve" smooth="yes"/>
      <point x="498.06040760543385" y="626.0"/>
      <point x="437.78959316901546" y="700.0"/>
      <point x="331.78959316901546" y="700.0" type="curve" smooth="yes"/>
      <point x="248.78959316901546" y="700.0"/>
      <point x="174.07477414054458" y="659.0"/>
    </contour>
    <contour>
      <point x="-1.0" y="0.0" type="line"/>
      <point x="374.0" y="0.0" type="line"/>
      <point x="392.0673077419519" y="85.0" type="line"/>
      <point x="62.06730774195188" y="85.0" type="line"/>
      <point x="12.603619946881423" y="64.0" type="line"/>
    </contour>
  </outline>
</glyph>
<glyph name="three" format="1">
  <advance width="500"/>
  <unicode hex="0033"/>
  <outline>
    <contour>
      <point x="-5.6959275597584025" y="72.0" type="line"/>
      <point x="35.06137821505705" y="17.0"/>
      <point x="97.60360104996647" y="-10.0"/>
      <point x="166.87443438329979" y="-10.0" type="curve" smooth="yes"/>
      <point x="282.03711380913717" y="-10.0"/>
      <point x="397.5166290019116" y="73.0"/>
      <point x="427.2745476357147" y="213.0" type="curve" smooth="yes"/>
      <point x="455.0493354621841" y="343.6701030927835"/>
      <point x="369.723077161369" y="408.0"/>
      <point x="253.72307716136902" y="408.0" type="curve"/>
      <point x="221.72307716136902" y="408.0" type="line"/>
      <point x="174.10961561297864" y="391.0" type="line"/>
      <point x="160.71855222776725" y="328.0" type="line"/>
      <point x="211.71855222776725" y="328.0" type="line" smooth="yes"/>
      <point x="307.71855222776725" y="328.0"/>
      <point x="351.307781876409" y="283.7258064516129"/>
      <point x="334.78665170402456" y="206.0" type="curve" smooth="yes"/>
      <point x="317.60717636966365" y="125.17692307692309"/>
      <point x="253.5166290019116" y="73.0"/>
      <point x="184.5166290019116" y="73.0" type="curve" smooth="yes"/>
      <point x="134.5166290019116" y="73.0"/>
      <point x="88.9803167969821" y="94.0"/>
      <point x="59.90769238712301" y="136.0" type="curve"/>
    </contour>
    <contour>
      <point x="129.23438949537345" y="608.0" type="line"/>
      <point x="450.2343894953734" y="608.0" type="line"/>
      <point x="493.06040760543385" y="626.0" type="line"/>
      <point x="506.66402755231525" y="690.0" type="line"/>
      <point x="146.66402755231528" y="690.0" type="line"/>
    </contour>
    <contour>
      <point x="174.10961561297864" y="391.0" type="line"/>
      <point x="272.10961561297864" y="391.0" type="line"/>
      <point x="493.06040760543385" y="626.0" type="line"/>
      <point x="452.66402755231525" y="690.0" type="line"/>
    </contour>
  </outline>
</glyph>
<glyph name="four" format="1">
  <advance width="500"/>
  <unicode hex="0034"/>
  <outline>
    <contour>
      <point x="19.574095142354537" y="205.0" type="line"/>
      <point x="63.970475195473114" y="141.0" type="line"/>
      <point x="438.66402755231525" y="690.0" type="line"/>
      <point x="357.66402755231525" y="690.0" type="line"/>
    </contour>
    <contour>
      <point x="5.970475195473114" y="141.0" type="line"/>
      <point x="428.9704751954731" y="141.0" type="line"/>
      <point x="446.61266981408494" y="224.0" type="line"/>
      <point x="60.61266981408495" y="224.0" type="line"/>
      <point x="19.574095142354537" y="205.0" type="line"/>
    </contour>
    <contour>
      <point x="241.0" y="0.0" type="line"/>
      <point x="326.0" y="0.0" type="line"/>
      <point x="472.66402755231525" y="690.0" type="line"/>
      <point x="387.66402755231525" y="690.0" type="line"/>
    </contour>
  </outline>
</glyph>
<glyph name="five" format="1">
  <advance width="500"/>
  <unicode hex="0035"/>
  <outline>
    <contour>
      <point x="1.3040724402415975" y="72.0" type="line"/>
      <point x="40.51708868020894" y="20.0"/>
      <point x="105.87443438329979" y="-10.0"/>
      <point x="174.87443438329979" y="-10.0" type="curve"/>
      <point x="292.8744343832998" y="-10.0"/>
      <point x="403.3668552485917" y="77.0"/>
      <point x="431.6368779507046" y="210.0" type="curve" smooth="yes"/>
      <point x="459.98880318116744" y="343.3853211009174"/>
      <point x="395.76165183309945" y="427.0"/>
      <point x="285.76165183309945" y="427.0" type="curve" smooth="yes"/>
      <point x="235.76165183309945" y="427.0"/>
      <point x="188.83606461539452" y="410.70833333333337"/>
      <point x="151.98404999627843" y="381.0" type="curve"/>
      <point x="126.5544119393366" y="299.0" type="line"/>
      <point x="167.8853060109248" y="327.0"/>
      <point x="205.6827627217831" y="343.0"/>
      <point x="249.90690065281757" y="343.0" type="curve" smooth="yes"/>
      <point x="322.12057586649274" y="343.0"/>
      <point x="357.4288463226364" y="289.0"/>
      <point x="340.4243213890346" y="209.0" type="curve" smooth="yes"/>
      <point x="323.0787542109623" y="127.3955223880597"/>
      <point x="264.7291855635816" y="74.0"/>
      <point x="188.72918556358164" y="74.0" type="curve" smooth="yes"/>
      <point x="134.72918556358164" y="74.0"/>
      <point x="92.0430996053322" y="99.0"/>
      <point x="65.12024894879303" y="137.0" type="curve"/>
    </contour>
    <contour>
      <point x="92.56877847444736" y="332.0" type="line"/>
      <point x="126.5544119393366" y="299.0" type="line"/>
      <point x="178.6701359545279" y="356.0" type="line"/>
      <point x="264.66402755231525" y="690.0" type="line"/>
      <point x="183.66402755231528" y="690.0" type="line"/>
    </contour>
    <contour>
      <point x="183.66402755231528" y="690.0" type="line"/>
      <point x="208.59671981036342" y="605.0" type="line"/>
      <point x="479.5967198103634" y="605.0" type="line"/>
      <point x="497.66402755231525" y="690.0" type="line"/>
    </contour>
  </outline>
</glyph>
<glyph name="six" format="1">
  <advance width="500"/>
  <unicode hex="0036"/>
  <outline>
    <contour>
      <point x="55.955316926056966" y="315.0" type="curve" smooth="yes"/>
      <point x="7.704977426961946" y="88.0"/>
      <point x="74.87443438329979" y="-10.0"/>
      <point x="191.87443438329979" y="-10.0" type="curve" smooth="yes"/>
      <point x="301.8744343832998" y="-10.0"/>
      <point x="408.49242086529193" y="87.0"/>
      <point x="437.825226375755" y="225.0" type="curve" smooth="yes"/>
      <point x="465.62409835822143" y="355.7834101382489"/>
      <point x="410.5248871348097" y="440.0"/>
      <point x="310.5248871348097" y="440.0" type="curve" smooth="yes"/>
      <point x="253.52488713480972" y="440.0"/>
      <point x="191.7000980736209" y="407.8918918918919"/>
      <point x="153.22081469456816" y="368.0" type="curve"/>
      <point x="137.70418569265652" y="295.0" type="line"/>
      <point x="176.2934391044272" y="326.0"/>
      <point x="225.6073531461778" y="351.0"/>
      <point x="274.6073531461778" y="351.0" type="curve" smooth="yes"/>
      <point x="335.6073531461778" y="351.0"/>
      <point x="365.97952506267666" y="301.0"/>
      <point x="349.18755669074494" y="222.0" type="curve" smooth="yes"/>
      <point x="330.907692387123" y="136.0"/>
      <point x="273.5166290019116" y="73.0"/>
      <point x="209.5166290019116" y="73.0" type="curve" smooth="yes"/>
      <point x="138.5166290019116" y="73.0"/>
      <point x="110.58393674386349" y="158.0"/>
      <point x="142.89253411770687" y="310.0" type="curve" smooth="yes"/>
      <point x="187.5294120684115" y="520.0"/>
      <point x="279.51717230372356" y="613.0"/>
      <point x="364.2971723037235" y="613.0" type="curve" smooth="yes"/>
      <point x="401.2227042186172" y="613.0"/>
      <point x="424.19536830168335" y="600.8095238095239"/>
      <point x="446.4953623302829" y="581.0" type="curve"/>
      <point x="506.0747741405446" y="659.0" type="line"/>
      <point x="473.88465349285843" y="686.3333333333333"/>
      <point x="431.78959316901546" y="700.0"/>
      <point x="383.78959316901546" y="700.0" type="curve" smooth="yes"/>
      <point x="248.78959316901546" y="700.0"/>
      <point x="110.58235327525267" y="572.0"/>
    </contour>
  </outline>
</glyph>
<glyph name="seven" format="1">
  <advance width="500"/>
  <unicode hex="0037"/>
  <outline>
    <contour>
      <point x="121.95905012535331" y="602.0" type="line"/>
      <point x="452.9590501253533" y="602.0" type="line"/>
      <point x="497.06040760543385" y="626.0" type="line"/>
      <point x="510.66402755231525" y="690.0" type="line"/>
      <point x="140.66402755231528" y="690.0" type="line"/>
    </contour>
    <contour>
      <point x="78.0" y="0.0" type="line"/>
      <point x="174.0" y="0.0" type="line"/>
      <point x="497.06040760543385" y="626.0" type="line"/>
      <point x="439.66402755231525" y="690.0" type="line"/>
    </contour>
  </outline>
</glyph>
<glyph name="eight" format="1">
  <advance width="500"/>
  <unicode hex="0038"/>
  <outline>
    <contour>
      <point x="25.62251141559392" y="177.0" type="curve" smooth="yes"/>
      <point x="2.4182286075519315" y="67.83243243243243"/>
      <point x="60.874434383299786" y="-10.0"/>
      <point x="186.87443438329979" y="-10.0" type="curve" smooth="yes"/>
      <point x="305.8744343832998" y="-10.0"/>
      <point x="407.2717994544383" y="71.84816753926701"/>
      <point x="430.897850785614" y="183.0" type="curve" smooth="yes"/>
      <point x="448.7994034106673" y="267.2201834862385"/>
      <point x="419.31636708769696" y="342.5229357798165"/>
      <point x="290.8100681063388" y="399.0" type="curve"/>
      <point x="216.89900902432868" y="433.5483870967742"/>
      <point x="198.60203647827058" y="478.0"/>
      <point x="208.5921948767616" y="525.0" type="curve" smooth="yes"/>
      <point x="220.07024920694278" y="579.0"/>
      <point x="268.85476765422663" y="621.0"/>
      <point x="321.99762479708374" y="621.0" type="curve" smooth="yes"/>
      <point x="377.78485883963697" y="621.0"/>
      <point x="405.4953623302829" y="581.0"/>
      <point x="393.3796383150916" y="524.0" type="curve" smooth="yes"/>
      <point x="379.7760183682102" y="460.0"/>
      <point x="324.0502754605286" y="407.5230769230769"/>
      <point x="260.89705905130864" y="390.0" type="curve"/>
      <point x="296.7571268994977" y="347.0" type="line"/>
      <point x="381.97184787913557" y="371.5333333333333"/>
      <point x="462.8002265048299" y="446.0"/>
      <point x="480.8675342467817" y="531.0" type="curve" smooth="yes"/>
      <point x="503.39852978380407" y="637.0"/>
      <point x="443.78959316901546" y="700.0"/>
      <point x="340.78959316901546" y="700.0" type="curve" smooth="yes"/>
      <point x="229.78959316901546" y="700.0"/>
      <point x="139.6352944820938" y="624.0"/>
      <point x="118.80475143843165" y="526.0" type="curve" smooth="yes"/>
      <point x="102.2253396281699" y="448.0"/>
      <point x="129.01645373766348" y="369.4179104477612"/>
      <point x="249.53020380271693" y="313.0" type="curve" smooth="yes"/>
      <point x="335.2217460840772" y="274.8445942442313"/>
      <point x="348.5252246765931" y="228.29323308270676"/>
      <point x="338.685294223944" y="182.0" type="curve" smooth="yes"/>
      <point x="324.3967698005703" y="114.77777777777777"/>
      <point x="267.3040724402416" y="72.0"/>
      <point x="205.3040724402416" y="72.0" type="curve" smooth="yes"/>
      <point x="142.30407244024158" y="72.0"/>
      <point x="102.39525308708235" y="114.77064220183486"/>
      <point x="116.89785078561405" y="183.0" type="curve" smooth="yes"/>
      <point x="129.2608037094144" y="241.16312056737587"/>
      <point x="187.92265249381603" y="303.40140845070425"/>
      <point x="251.44321285774714" y="322.0" type="curve"/>
      <point x="212.15803188621805" y="363.0" type="line"/>
      <point x="127.69035352325938" y="337.27659574468083"/>
      <point x="43.91820439934018" y="263.0744680851064"/>
    </contour>
  </outline>
</glyph>
<glyph name="nine" format="1">
  <advance width="500"/>
  <unicode hex="0039"/>
  <outline>
    <contour>
      <point x="89.26391429990034" y="467.0" type="curve" smooth="yes"/>
      <point x="60.620219103527305" y="332.2420091324201"/>
      <point x="119.99789747965244" y="250.0"/>
      <point x="222.13914041750553" y="250.0" type="curve" smooth="yes"/>
      <point x="277.3448141763708" y="250.0"/>
      <point x="338.3438251769052" y="278.2162162162162"/>
      <point x="376.44321285774714" y="322.0" type="curve"/>
      <point x="391.95984185965875" y="395.0" type="line"/>
      <point x="353.05577311921274" y="359.0"/>
      <point x="303.01367510393567" y="337.0"/>
      <point x="255.63156128279746" y="337.0" type="curve" smooth="yes"/>
      <point x="194.63156128279746" y="337.0"/>
      <point x="162.86009269275732" y="389.82608695652175"/>
      <point x="180.32669710825044" y="472.0" type="curve" smooth="yes"/>
      <point x="199.20980292140064" y="560.838028169014"/>
      <point x="259.14739855040364" y="617.0"/>
      <point x="315.14739855040364" y="617.0" type="curve" smooth="yes"/>
      <point x="396.14739855040364" y="617.0"/>
      <point x="417.80475143843165" y="526.0"/>
      <point x="381.45757939285784" y="355.0" type="curve" smooth="yes"/>
      <point x="340.6467195522136" y="162.99999999999997"/>
      <point x="237.6325595564869" y="76.0"/>
      <point x="160.1542986869217" y="76.0" type="curve" smooth="yes"/>
      <point x="128.1542986869217" y="76.0"/>
      <point x="96.70497742696193" y="88.0"/>
      <point x="73.16866522203242" y="109.0" type="curve"/>
      <point x="16.65203622012079" y="36.0" type="line"/>
      <point x="49.923076925997165" y="5.0"/>
      <point x="95.79355203035863" y="-10.0"/>
      <point x="145.87443438329979" y="-10.0" type="curve" smooth="yes"/>
      <point x="274.2890685296412" y="-10.0"/>
      <point x="415.6565611537226" y="116.0"/>
      <point x="469.64592781790816" y="370.0" type="curve" smooth="yes"/>
      <point x="517.2585976319931" y="594.0"/>
      <point x="462.78959316901546" y="700.0"/>
      <point x="334.78959316901546" y="700.0" type="curve" smooth="yes"/>
      <point x="220.78959316901546" y="700.0"/>
      <point x="119.44694605704348" y="609.0"/>
    </contour>
  </outline>
</glyph>
<glyph name="colon" format="1">
  <advance width="197"/>
  <unicode hex="003A"/>
  <outline>
    <contour>
      <point x="-9.584728478168913" y="49.0" type="curve" smooth="yes"/>
      <point x="-16.386538451609624" y="17.0"/>
      <point x="4.874434383299786" y="-10.0"/>
      <point x="36.874434383299786" y="-10.0" type="curve" smooth="yes"/>
      <point x="69.87443438329979" y="-10.0"/>
      <point x="101.61346154839038" y="17.0"/>
      <point x="108.41527152183107" y="49.0" type="curve" smooth="yes"/>
      <point x="115.42963805694183" y="82.0"/>
      <point x="94.95610866036239" y="108.0"/>
      <point x="61.95610866036239" y="108.0" type="curve" smooth="yes"/>
      <point x="29.95610866036239" y="108.0"/>
      <point x="-2.570361943058188" y="82.0"/>
    </contour>
    <contour>
      <point x="78.83880117656031" y="465.0" type="curve" smooth="yes"/>
      <point x="72.03699120311958" y="433.0"/>
      <point x="93.29796403802897" y="406.0"/>
      <point x="125.29796403802897" y="406.0" type="curve" smooth="yes"/>
      <point x="158.29796403802897" y="406.0"/>
      <point x="190.03699120311958" y="433.0"/>
      <point x="196.8388011765603" y="465.0" type="curve" smooth="yes"/>
      <point x="203.853167711671" y="498.0"/>
      <point x="183.3796383150916" y="524.0"/>
      <point x="150.3796383150916" y="524.0" type="curve" smooth="yes"/>
      <point x="118.3796383150916" y="524.0"/>
      <point x="85.853167711671" y="498.0"/>
    </contour>
  </outline>
</glyph>
<glyph name="semicolon" format="1">
  <advance width="197"/>
  <unicode hex="003B"/>
  <outline>
    <contour>
      <point x="-41.18303175714314" y="-142.0" type="line"/>
      <point x="11.81696824285686" y="-142.0" type="line"/>
      <point x="76.11119908158949" y="-23.0" type="line" smooth="yes"/>
      <point x="89.63766968501005" y="3.0"/>
      <point x="103.31391404175056" y="25.0"/>
      <point x="108.41527152183107" y="49.0" type="curve" smooth="yes"/>
      <point x="115.42963805694183" y="82.0"/>
      <point x="95.95610866036239" y="108.0"/>
      <point x="61.95610866036239" y="108.0" type="curve" smooth="yes"/>
      <point x="29.95610866036239" y="108.0"/>
      <point x="-2.145248819718141" y="84.0"/>
      <point x="-9.584728478168913" y="49.0" type="curve" smooth="yes"/>
      <point x="-14.89864251991947" y="24.0"/>
      <point x="-3.574886876659953" y="2.0"/>
      <point x="17.724660629979866" y="-6.0" type="curve"/>
    </contour>
    <contour>
      <point x="78.83880117656031" y="465.0" type="curve" smooth="yes"/>
      <point x="72.03699120311958" y="433.0"/>
      <point x="93.29796403802897" y="406.0"/>
      <point x="125.29796403802897" y="406.0" type="curve" smooth="yes"/>
      <point x="158.29796403802897" y="406.0"/>
      <point x="190.03699120311958" y="433.0"/>
      <point x="196.8388011765603" y="465.0" type="curve" smooth="yes"/>
      <point x="203.853167711671" y="498.0"/>
      <point x="183.3796383150916" y="524.0"/>
      <point x="150.3796383150916" y="524.0" type="curve" smooth="yes"/>
      <point x="118.3796383150916" y="524.0"/>
      <point x="85.853167711671" y="498.0"/>
    </contour>
  </outline>
</glyph>
<glyph name="less" format="1">
  <advance width="500"/>
  <unicode hex="003C"/>
  <outline>
    <contour>
      <point x="51.414479787525664" y="256.0" type="line"/>
      <point x="369.90316745352123" y="56.0" type="line"/>
      <point x="389.2458145654933" y="147.0" type="line"/>
      <point x="135.19208162434668" y="302.0" type="line"/>
      <point x="62.042307871026765" y="306.0" type="line"/>
    </contour>
    <contour>
      <point x="55.66561102092611" y="276.0" type="line"/>
      <point x="129.02794133591604" y="273.0" type="line"/>
      <point x="450.4621043264596" y="435.0" type="line"/>
      <point x="469.3796383150916" y="524.0" type="line"/>
      <point x="65.86832598108717" y="324.0" type="line"/>
    </contour>
  </outline>
</glyph>
<glyph name="equal" format="1">
  <advance width="500"/>
  <unicode hex="003D"/>
  <outline>
    <contour>
      <point x="20.057466140442926" y="132.0" type="line"/>
      <point x="416.0574661404429" y="132.0" type="line"/>
      <point x="432.2117648273646" y="208.0" type="line"/>
      <point x="36.211764827364604" y="208.0" type="line"/>
    </contour>
    <contour>
      <point x="71.07104094124821" y="372.0" type="line"/>
      <point x="467.07104094124827" y="372.0" type="line"/>
      <point x="483.2253396281699" y="448.0" type="line"/>
      <point x="87.2253396281699" y="448.0" type="line"/>
    </contour>
  </outline>
</glyph>
<glyph name="greater" format="1">
  <advance width="500"/>
  <unicode hex="003E"/>
  <outline>
    <contour>
      <point x="33.903167453521235" y="56.0" type="line"/>
      <point x="436.9144797875257" y="256.0" type="line"/>
      <point x="447.54230787102676" y="306.0" type="line"/>
      <point x="372.69208162434666" y="302.0" type="line"/>
      <point x="52.74581456549325" y="147.0" type="line"/>
    </contour>
    <contour>
      <point x="114.46210432645961" y="435.0" type="line"/>
      <point x="366.527941335916" y="273.0" type="line"/>
      <point x="441.1656110209261" y="276.0" type="line"/>
      <point x="451.3683259810872" y="324.0" type="line"/>
      <point x="132.8796383150916" y="524.0" type="line"/>
    </contour>
  </outline>
</glyph>
<glyph name="question" format="1">
  <advance width="430"/>
  <unicode hex="003F"/>
  <outline>
    <contour>
      <point x="96.41527152183107" y="49.0" type="curve" smooth="yes"/>
      <point x="89.61346154839038" y="17.0"/>
      <point x="110.87443438329979" y="-10.0"/>
      <point x="142.87443438329979" y="-10.0" type="curve" smooth="yes"/>
      <point x="175.87443438329979" y="-10.0"/>
      <point x="207.61346154839038" y="17.0"/>
      <point x="214.41527152183107" y="49.0" type="curve" smooth="yes"/>
      <point x="221.42963805694183" y="82.0"/>
      <point x="200.95610866036236" y="108.0"/>
      <point x="167.9561086603624" y="108.0" type="curve" smooth="yes"/>
      <point x="135.9561086603624" y="108.0"/>
      <point x="103.42963805694183" y="82.0"/>
    </contour>
    <contour>
      <point x="83.53393700201326" y="600.0" type="curve"/>
      <point x="131.78054330181195" y="540.0" type="line"/>
      <point x="174.13303201529294" y="584.0"/>
      <point x="219.08461574205353" y="612.0"/>
      <point x="266.08461574205353" y="612.0" type="curve"/>
      <point x="323.08461574205353" y="612.0"/>
      <point x="350.00746639859267" y="574.0"/>
      <point x="338.95452519175154" y="522.0" type="curve" smooth="yes"/>
      <point x="328.3266971082504" y="472.0"/>
      <point x="289.88721744979966" y="437.0"/>
      <point x="234.10961561297864" y="391.0" type="curve"/>
      <point x="195.52036220120794" y="360.0"/>
      <point x="160.65576941941714" y="323.0"/>
      <point x="156.20192322585564" y="255.0" type="curve" smooth="yes"/>
      <point x="150.99920826569456" y="207.0" type="line"/>
      <point x="221.99920826569456" y="207.0" type="line"/>
      <point x="232.92658385583553" y="249.0" type="line" smooth="yes"/>
      <point x="244.70418569265655" y="295.0"/>
      <point x="255.89253411770687" y="310.0"/>
      <point x="296.3320137761576" y="345.0" type="curve" smooth="yes"/>
      <point x="341.83427624295854" y="385.0"/>
      <point x="413.7374436964798" y="441.0"/>
      <point x="432.2298645617717" y="528.0" type="curve" smooth="yes"/>
      <point x="454.12319041378396" y="631.0"/>
      <point x="391.78959316901546" y="700.0"/>
      <point x="293.78959316901546" y="700.0" type="curve" smooth="yes"/>
      <point x="213.78959316901546" y="700.0"/>
      <point x="143.49988726388463" y="661.0"/>
    </contour>
  </outline>
</glyph>
<glyph name="at" format="1">
  <advance width="832"/>
  <unicode hex="0040"/>
  <outline>
    <contour>
      <point x="46.9265838558355" y="249.0" type="curve" smooth="yes"/>
      <point x="-8.178348118591444" y="-10.248322147651038"/>
      <point x="98.38170920113612" y="-195.0"/>
      <point x="326.5514704743457" y="-195.0" type="curve" smooth="yes"/>
      <point x="405.5514704743457" y="-195.0"/>
      <point x="487.86538451609624" y="-170.0"/>
      <point x="549.092307612877" y="-136.0" type="curve"/>
      <point x="535.3335972447685" y="-69.0" type="line"/>
      <point x="472.53178727132774" y="-101.0"/>
      <point x="408.49321259959737" y="-120.0"/>
      <point x="352.49321259959737" y="-120.0" type="curve" smooth="yes"/>
      <point x="157.49321259959734" y="-120.0"/>
      <point x="81.5892534117707" y="31.0"/>
      <point x="127.9265838558355" y="249.0" type="curve" smooth="yes"/>
      <point x="175.75181023159047" y="474.0"/>
      <point x="330.99762479708374" y="621.0"/>
      <point x="498.99762479708374" y="621.0" type="curve" smooth="yes"/>
      <point x="679.9976247970837" y="621.0"/>
      <point x="743.9015839849104" y="470.0"/>
      <point x="698.8395929108657" y="258.0" type="curve" smooth="yes"/>
      <point x="669.5067874004027" y="120.0"/>
      <point x="623.6036199468814" y="64.0"/>
      <point x="580.6036199468814" y="64.0" type="curve"/>
      <point x="554.6036199468814" y="64.0"/>
      <point x="539.6421946186118" y="83.0"/>
      <point x="551.9704751954731" y="141.0" type="curve"/>
      <point x="601.2835975029183" y="373.0" type="line" smooth="yes"/>
      <point x="607.2351812296789" y="401.0"/>
      <point x="613.6988690247493" y="422.0"/>
      <point x="623.86300931318" y="451.0" type="curve"/>
      <point x="640.215498026661" y="495.0" type="line"/>
      <point x="557.215498026661" y="495.0" type="line"/>
      <point x="517.9598418596587" y="395.0" type="line"/>
      <point x="466.3085973738433" y="152.0" type="line"/>
      <point x="460.6565611537226" y="116.0" type="line"/>
      <point x="455.10135748008054" y="24.0"/>
      <point x="497.8744343832998" y="-10.0"/>
      <point x="558.8744343832998" y="-10.0" type="curve" smooth="yes"/>
      <point x="633.7994343832997" y="-10.0"/>
      <point x="734.0529412068412" y="52.0"/>
      <point x="777.8395929108657" y="258.0" type="curve" smooth="yes"/>
      <point x="832.6791858217314" y="516.0"/>
      <point x="736.0290297887337" y="700.0"/>
      <point x="514.7895931690155" y="700.0" type="curve" smooth="yes"/>
      <point x="300.93932578933635" y="700.0"/>
      <point x="103.41728577253087" y="514.7678571428572"/>
    </contour>
    <contour>
      <point x="211.71402729416548" y="248.0" type="curve" smooth="yes"/>
      <point x="180.46821272867223" y="101.0"/>
      <point x="232.38046757748452" y="10.0"/>
      <point x="319.1255656167002" y="10.0" type="curve" smooth="yes"/>
      <point x="372.1612799024145" y="10.0"/>
      <point x="426.2755354676862" y="38.93333333333333"/>
      <point x="469.0045249336017" y="80.0" type="curve"/>
      <point x="479.3085973738433" y="152.0" type="line"/>
      <point x="441.1530930895855" y="116.19753086419755"/>
      <point x="397.9803167969821" y="94.0"/>
      <point x="361.9803167969821" y="94.0" type="curve" smooth="yes"/>
      <point x="301.9803167969821" y="94.0"/>
      <point x="280.67409097378817" y="153.71951219512195"/>
      <point x="303.26470603420574" y="260.0" type="curve" smooth="yes"/>
      <point x="323.8826925161979" y="357.0"/>
      <point x="379.51879224112645" y="426.0"/>
      <point x="442.54909527142945" y="426.0" type="curve" smooth="yes"/>
      <point x="484.9628883748777" y="426.0"/>
      <point x="516.3664667319518" y="387.50375939849624"/>
      <point x="497.34185537766655" y="298.0" type="curve"/>
      <point x="537.5929866110671" y="318.0" type="line"/>
      <point x="566.6474185534546" y="454.69035532994917"/>
      <point x="512.8042989374787" y="505.0"/>
      <point x="446.34106364336117" y="505.0" type="curve" smooth="yes"/>
      <point x="339.3696350719326" y="505.0"/>
      <point x="243.17239842132875" y="396.0"/>
    </contour>
  </outline>
</glyph>
<glyph name="A" format="1">
  <advance width="525"/>
  <unicode hex="0041"/>
  <outline>
    <contour>
      <point x="-45.0" y="0.0" type="line"/>
      <point x="45.0" y="0.0" type="line"/>
      <point x="342.93484198873364" y="616.0" type="line"/>
      <point x="354.66402755231525" y="690.0" type="line"/>
      <point x="298.66402755231525" y="690.0" type="line"/>
    </contour>
    <contour>
      <point x="101.62251141559392" y="177.0" type="line"/>
      <point x="380.6225114155939" y="177.0" type="line"/>
      <point x="398.4772625958758" y="261.0" type="line"/>
      <point x="119.47726259587577" y="261.0" type="line"/>
    </contour>
    <contour>
      <point x="320.93484198873364" y="616.0" type="line"/>
      <point x="357.0" y="0.0" type="line"/>
      <point x="450.0" y="0.0" type="line"/>
      <point x="399.66402755231525" y="690.0" type="line"/>
      <point x="337.66402755231525" y="690.0" type="line"/>
    </contour>
    <contour>
      <point x="348.66402755231525" y="690.0" type="move" name="top"/>
    </contour>
    <contour>
      <point x="356.0" y="0.0" type="move" name="ogonek"/>
    </contour>
    <contour>
      <point x="203.0" y="0.0" type="move" name="bottom"/>
    </contour>
  </outline>
</glyph>
<glyph name="B" format="1">
  <advance width="519"/>
  <unicode hex="0042"/>
  <outline>
    <contour>
      <point x="17.0" y="0.0" type="line"/>
      <point x="107.0" y="0.0" type="line"/>
      <point x="253.66402755231525" y="690.0" type="line"/>
      <point x="163.66402755231528" y="690.0" type="line"/>
    </contour>
    <contour>
      <point x="62.0" y="0.0" type="line"/>
      <point x="208.0" y="0.0" type="line"/>
      <point x="331.0" y="0.0"/>
      <point x="427.4538461935615" y="68.0"/>
      <point x="454.4485295256543" y="195.0" type="curve" smooth="yes"/>
      <point x="481.8683259810872" y="324.0"/>
      <point x="412.7714934346084" y="380.0"/>
      <point x="288.7714934346084" y="380.0" type="curve"/>
      <point x="142.7714934346084" y="380.0" type="line"/>
      <point x="128.95531692605698" y="315.0" type="line"/>
      <point x="268.955316926057" y="315.0" type="line"/>
      <point x="345.955316926057" y="315.0"/>
      <point x="380.3032807059362" y="279.0"/>
      <point x="363.2987557723344" y="199.0" type="curve" smooth="yes"/>
      <point x="346.29423083873263" y="119.0"/>
      <point x="295.21708149527177" y="81.0"/>
      <point x="219.21708149527177" y="81.0" type="curve"/>
      <point x="79.2170814952718" y="81.0" type="line"/>
    </contour>
    <contour>
      <point x="133.2064481594574" y="335.0" type="line"/>
      <point x="264.2064481594574" y="335.0" type="line"/>
      <point x="382.2064481594574" y="335.0"/>
      <point x="474.9598418596587" y="395.0"/>
      <point x="498.34106364336117" y="505.0" type="curve" smooth="yes"/>
      <point x="523.8478510437639" y="625.0"/>
      <point x="457.66402755231525" y="690.0"/>
      <point x="339.66402755231525" y="690.0" type="curve"/>
      <point x="208.66402755231525" y="690.0" type="line"/>
      <point x="191.44694605704348" y="609.0" type="line"/>
      <point x="317.4469460570435" y="609.0" type="line"/>
      <point x="390.4469460570435" y="609.0"/>
      <point x="421.00746639859267" y="574.0"/>
      <point x="405.49083739668106" y="501.0" type="curve" smooth="yes"/>
      <point x="389.97420839476945" y="428.0"/>
      <point x="343.95984185965875" y="395.0"/>
      <point x="271.95984185965875" y="395.0" type="curve"/>
      <point x="145.95984185965875" y="395.0" type="line"/>
    </contour>
  </outline>
</glyph>
<glyph name="C" format="1">
  <advance width="517"/>
  <unicode hex="0043"/>
  <outline>
    <contour>
      <point x="58.33201377615764" y="345.0" type="curve" smooth="yes"/>
      <point x="7.530995537022349" y="106.0"/>
      <point x="98.96392854672393" y="-10.0"/>
      <point x="237.87443438329979" y="-10.0" type="curve" smooth="yes"/>
      <point x="309.66773047268526" y="-10.0"/>
      <point x="374.6924720155233" y="20.0"/>
      <point x="436.94174212525166" y="75.0" type="curve"/>
      <point x="395.695135825453" y="135.0" type="line"/>
      <point x="354.44110957573497" y="96.65454545454546"/>
      <point x="310.5794118102617" y="78.0"/>
      <point x="263.5794118102617" y="78.0" type="curve" smooth="yes"/>
      <point x="172.57941181026172" y="78.0"/>
      <point x="112.00904986720354" y="160.0"/>
      <point x="151.33201377615762" y="345.0" type="curve" smooth="yes"/>
      <point x="190.4424211234417" y="529.0"/>
      <point x="280.08461574205353" y="612.0"/>
      <point x="376.08461574205353" y="612.0" type="curve" smooth="yes"/>
      <point x="418.08461574205353" y="612.0"/>
      <point x="453.2585976319931" y="594.0"/>
      <point x="475.03167453521235" y="560.0" type="curve"/>
      <point x="547.2101813587537" y="622.0" type="line"/>
      <point x="517.6254528805848" y="671.0"/>
      <point x="461.78959316901546" y="700.0"/>
      <point x="393.78959316901546" y="700.0" type="curve" smooth="yes"/>
      <point x="251.78959316901546" y="700.0"/>
      <point x="108.92047545362288" y="583.0"/>
    </contour>
    <contour>
      <point x="379.66402755231525" y="690.0" type="move" name="top"/>
    </contour>
    <contour>
      <point x="233.0" y="0.0" type="move" name="bottom"/>
    </contour>
  </outline>
</glyph>
<glyph name="D" format="1">
  <advance width="566"/>
  <unicode hex="0044"/>
  <outline>
    <contour>
      <point x="17.0" y="0.0" type="line"/>
      <point x="107.0" y="0.0" type="line"/>
      <point x="253.66402755231525" y="690.0" type="line"/>
      <point x="163.66402755231528" y="690.0" type="line"/>
    </contour>
    <contour>
      <point x="62.0" y="0.0" type="line"/>
      <point x="187.0" y="0.0" type="line" smooth="yes"/>
      <point x="358.49640287769785" y="0.0"/>
      <point x="485.01889146871247" y="113.0"/>
      <point x="534.3320137761576" y="345.0" type="curve" smooth="yes"/>
      <point x="583.6451360836028" y="577.0"/>
      <point x="505.1604304300131" y="690.0"/>
      <point x="333.66402755231525" y="690.0" type="curve" smooth="yes"/>
      <point x="208.66402755231525" y="690.0" type="line"/>
      <point x="191.02183293370342" y="607.0" type="line"/>
      <point x="310.0218329337034" y="607.0" type="line" smooth="yes"/>
      <point x="429.4668591117139" y="607.0"/>
      <point x="479.1670817534216" y="523.0"/>
      <point x="441.3320137761576" y="345.0" type="curve" smooth="yes"/>
      <point x="403.4969457988937" y="167.0"/>
      <point x="318.0872207966223" y="83.0"/>
      <point x="198.64219461861182" y="83.0" type="curve" smooth="yes"/>
      <point x="79.64219461861182" y="83.0" type="line"/>
    </contour>
    <contour>
      <point x="335.66402755231525" y="690.0" type="move" name="top"/>
    </contour>
  </outline>
</glyph>
<glyph name="E" format="1">
  <advance width="500"/>
  <unicode hex="0045"/>
  <outline>
    <contour>
      <point x="17.0" y="0.0" type="line"/>
      <point x="107.0" y="0.0" type="line"/>
      <point x="253.66402755231525" y="690.0" type="line"/>
      <point x="163.66402755231528" y="690.0" type="line"/>
    </contour>
    <contour>
      <point x="62.0" y="0.0" type="line"/>
      <point x="386.0" y="0.0" type="line"/>
      <point x="403.6421946186118" y="83.0" type="line"/>
      <point x="79.64219461861182" y="83.0" type="line"/>
    </contour>
    <contour>
      <point x="127.46742099436682" y="308.0" type="line"/>
      <point x="408.4674209943668" y="308.0" type="line"/>
      <point x="426.3221721746487" y="392.0" type="line"/>
      <point x="145.32217217464867" y="392.0" type="line"/>
    </contour>
    <contour>
      <point x="191.02183293370342" y="607.0" type="line"/>
      <point x="511.0218329337034" y="607.0" type="line"/>
      <point x="528.6640275523152" y="690.0" type="line"/>
      <point x="208.66402755231525" y="690.0" type="line"/>
    </contour>
    <contour>
      <point x="347.66402755231525" y="690.0" type="move" name="top"/>
    </contour>
    <contour>
      <point x="314.0" y="0.0" type="move" name="ogonek"/>
    </contour>
    <contour>
      <point x="201.0" y="0.0" type="move" name="bottom"/>
    </contour>
  </outline>
</glyph>
<glyph name="F" format="1">
  <advance width="462"/>
  <unicode hex="0046"/>
  <outline>
    <contour>
      <point x="17.0" y="0.0" type="line"/>
      <point x="107.0" y="0.0" type="line"/>
      <point x="253.66402755231525" y="690.0" type="line"/>
      <point x="163.66402755231528" y="690.0" type="line"/>
    </contour>
    <contour>
      <point x="122.79117663762634" y="286.0" type="line"/>
      <point x="399.79117663762634" y="286.0" type="line"/>
      <point x="417.43337125623816" y="369.0" type="line"/>
      <point x="140.43337125623816" y="369.0" type="line"/>
    </contour>
    <contour>
      <point x="191.02183293370342" y="607.0" type="line"/>
      <point x="499.0218329337034" y="607.0" type="line"/>
      <point x="516.6640275523152" y="690.0" type="line"/>
      <point x="208.66402755231525" y="690.0" type="line"/>
    </contour>
  </outline>
</glyph>
<glyph name="G" format="1">
  <advance width="561"/>
  <unicode hex="0047"/>
  <outline>
    <contour>
      <point x="58.33201377615764" y="345.0" type="curve"/>
      <point x="7.530995537022349" y="106.0"/>
      <point x="98.87443438329979" y="-10.0"/>
      <point x="241.87443438329979" y="-10.0" type="curve" smooth="yes"/>
      <point x="325.8744343832998" y="-10.0"/>
      <point x="397.10135748008054" y="24.0"/>
      <point x="457.3040724402416" y="72.0" type="curve"/>
      <point x="386.4440045920525" y="115.0" type="line"/>
      <point x="346.2798643036219" y="86.0"/>
      <point x="306.5166290019116" y="73.0"/>
      <point x="267.5166290019116" y="73.0" type="curve" smooth="yes"/>
      <point x="167.5166290019116" y="73.0"/>
      <point x="112.00904986720354" y="160.0"/>
      <point x="151.33201377615762" y="345.0" type="curve"/>
      <point x="190.65497768511173" y="530.0"/>
      <point x="281.08461574205353" y="612.0"/>
      <point x="378.08461574205353" y="612.0" type="curve" smooth="yes"/>
      <point x="425.08461574205353" y="612.0"/>
      <point x="461.8334845086531" y="592.0"/>
      <point x="490.96889172686224" y="555.0" type="curve"/>
      <point x="557.4227379204237" y="623.0" type="line"/>
      <point x="515.4756791272649" y="675.0"/>
      <point x="462.78959316901546" y="700.0"/>
      <point x="395.78959316901546" y="700.0" type="curve" smooth="yes"/>
      <point x="253.78959316901546" y="700.0"/>
      <point x="109.13303201529294" y="584.0"/>
    </contour>
    <contour>
      <point x="291.6270363491957" y="257.0" type="line"/>
      <point x="452.6270363491957" y="257.0" type="line"/>
      <point x="470.4817875294775" y="341.0" type="line"/>
      <point x="309.4817875294775" y="341.0" type="line"/>
    </contour>
    <contour>
      <point x="365.75339370020134" y="60.0" type="line"/>
      <point x="457.3040724402416" y="72.0" type="line"/>
      <point x="514.4817875294775" y="341.0" type="line"/>
      <point x="425.4817875294775" y="341.0" type="line"/>
    </contour>
    <contour>
      <point x="379.66402755231525" y="690.0" type="move" name="top"/>
    </contour>
    <contour>
      <point x="242.0" y="0.0" type="move" name="bottom"/>
    </contour>
  </outline>
</glyph>
<glyph name="H" format="1">
  <advance width="593"/>
  <unicode hex="0048"/>
  <outline>
    <contour>
      <point x="17.0" y="0.0" type="line"/>
      <point x="107.0" y="0.0" type="line"/>
      <point x="253.66402755231525" y="690.0" type="line"/>
      <point x="163.66402755231528" y="690.0" type="line"/>
    </contour>
    <contour>
      <point x="127.67997755603682" y="309.0" type="line"/>
      <point x="476.6799775560369" y="309.0" type="line"/>
      <point x="494.3221721746487" y="392.0" type="line"/>
      <point x="145.32217217464867" y="392.0" type="line"/>
    </contour>
    <contour>
      <point x="366.0" y="0.0" type="line"/>
      <point x="456.0" y="0.0" type="line"/>
      <point x="602.6640275523152" y="690.0" type="line"/>
      <point x="512.6640275523152" y="690.0" type="line"/>
    </contour>
    <contour>
      <point x="382.66402755231525" y="690.0" type="move" name="top"/>
    </contour>
  </outline>
</glyph>
<glyph name="I" format="1">
  <advance width="356"/>
  <unicode hex="0049"/>
  <outline>
    <contour>
      <point x="0.0" y="0.0" type="line"/>
      <point x="236.0" y="0.0" type="line"/>
      <point x="252.79196837193177" y="79.0" type="line"/>
      <point x="16.791968371931745" y="79.0" type="line"/>
    </contour>
    <contour>
      <point x="129.87205918038353" y="611.0" type="line"/>
      <point x="365.87205918038353" y="611.0" type="line"/>
      <point x="382.66402755231525" y="690.0" type="line"/>
      <point x="146.66402755231528" y="690.0" type="line"/>
    </contour>
    <contour>
      <point x="73.0" y="0.0" type="line"/>
      <point x="163.0" y="0.0" type="line"/>
      <point x="309.66402755231525" y="690.0" type="line"/>
      <point x="219.66402755231525" y="690.0" type="line"/>
    </contour>
    <contour>
      <point x="264.66402755231525" y="690.0" type="move" name="top"/>
    </contour>
    <contour>
      <point x="82.0" y="0.0" type="move" name="ogonek"/>
    </contour>
    <contour>
      <point x="118.0" y="0.0" type="move" name="bottom"/>
    </contour>
  </outline>
</glyph>
<glyph name="J" format="1">
  <advance width="458"/>
  <unicode hex="004A"/>
  <outline>
    <contour>
      <point x="-8.01968320301792" y="94.0" type="line"/>
      <point x="13.841846522356107" y="35.0"/>
      <point x="63.97502609927611" y="-10.0"/>
      <point x="140.87443438329979" y="-10.0" type="curve" smooth="yes"/>
      <point x="254.65103012798062" y="-10.0"/>
      <point x="344.09151587857156" y="71.0"/>
      <point x="379.1633485541252" y="236.0" type="curve" smooth="yes"/>
      <point x="475.66402755231525" y="690.0" type="line"/>
      <point x="386.66402755231525" y="690.0" type="line"/>
      <point x="292.0763576091554" y="245.0" type="line" smooth="yes"/>
      <point x="265.29423083873263" y="119.0"/>
      <point x="217.94174212525166" y="75.0"/>
      <point x="156.94174212525166" y="75.0" type="curve" smooth="yes"/>
      <point x="101.94174212525166" y="75.0"/>
      <point x="78.0188914687125" y="113.0"/>
      <point x="61.6709276888333" y="149.0" type="curve"/>
    </contour>
    <contour>
      <point x="227.87205918038353" y="611.0" type="line"/>
      <point x="423.87205918038353" y="611.0" type="line"/>
      <point x="440.66402755231525" y="690.0" type="line"/>
      <point x="244.66402755231525" y="690.0" type="line"/>
    </contour>
    <contour>
      <point x="359.66402755231525" y="690.0" type="move" name="top"/>
    </contour>
  </outline>
</glyph>
<glyph name="K" format="1">
  <advance width="520"/>
  <unicode hex="004B"/>
  <outline>
    <contour>
      <point x="17.0" y="0.0" type="line"/>
      <point x="106.0" y="0.0" type="line"/>
      <point x="252.66402755231525" y="690.0" type="line"/>
      <point x="163.66402755231528" y="690.0" type="line"/>
    </contour>
    <contour>
      <point x="127.14898201901448" y="203.0" type="line"/>
      <point x="264.8199097078478" y="352.0" type="line"/>
      <point x="276.8199097078478" y="352.0" type="line"/>
      <point x="581.6640275523152" y="690.0" type="line"/>
      <point x="475.66402755231525" y="690.0" type="line"/>
      <point x="155.41900472112744" y="336.0" type="line"/>
    </contour>
    <contour>
      <point x="227.2064481594574" y="335.0" type="line"/>
      <point x="345.0" y="0.0" type="line"/>
      <point x="451.0" y="0.0" type="line"/>
      <point x="304.4477377913489" y="402.0" type="line"/>
    </contour>
  </outline>
</glyph>
<glyph name="L" format="1">
  <advance width="452"/>
  <unicode hex="004C"/>
  <outline>
    <contour>
      <point x="17.0" y="0.0" type="line"/>
      <point x="107.0" y="0.0" type="line"/>
      <point x="253.66402755231525" y="690.0" type="line"/>
      <point x="163.66402755231528" y="690.0" type="line"/>
    </contour>
    <contour>
      <point x="62.0" y="0.0" type="line"/>
      <point x="361.0" y="0.0" type="line"/>
      <point x="378.6421946186118" y="83.0" type="line"/>
      <point x="79.64219461861182" y="83.0" type="line"/>
    </contour>
    <contour>
      <point x="208.66402755231525" y="690.0" type="move" name="top"/>
    </contour>
    <contour>
      <point x="372.53846193561503" y="680.0" type="move" name="caron.alt"/>
    </contour>
    <contour>
      <point x="172.0" y="0.0" type="move" name="bottom"/>
    </contour>
  </outline>
</glyph>
<glyph name="M" format="1">
  <advance width="673"/>
  <unicode hex="004D"/>
  <outline>
    <contour>
      <point x="17.0" y="0.0" type="line"/>
      <point x="105.0" y="0.0" type="line"/>
      <point x="251.66402755231525" y="690.0" type="line"/>
      <point x="163.66402755231528" y="690.0" type="line"/>
    </contour>
    <contour>
      <point x="197.66402755231525" y="690.0" type="line"/>
      <point x="274.15882362052344" y="156.0" type="line"/>
      <point x="321.15882362052344" y="156.0" type="line"/>
      <point x="342.20192322585564" y="255.0" type="line"/>
      <point x="277.66402755231525" y="690.0" type="line"/>
    </contour>
    <contour>
      <point x="298.15882362052344" y="156.0" type="line"/>
      <point x="345.15882362052344" y="156.0" type="line"/>
      <point x="647.6640275523152" y="690.0" type="line"/>
      <point x="568.6640275523152" y="690.0" type="line"/>
      <point x="319.20192322585564" y="255.0" type="line"/>
    </contour>
    <contour>
      <point x="448.0" y="0.0" type="line"/>
      <point x="536.0" y="0.0" type="line"/>
      <point x="682.6640275523152" y="690.0" type="line"/>
      <point x="594.6640275523152" y="690.0" type="line"/>
    </contour>
  </outline>
</glyph>
<glyph name="N" format="1">
  <advance width="600"/>
  <unicode hex="004E"/>
  <outline>
    <contour>
      <point x="17.0" y="0.0" type="line"/>
      <point x="103.0" y="0.0" type="line"/>
      <point x="249.66402755231525" y="690.0" type="line"/>
      <point x="163.66402755231528" y="690.0" type="line"/>
    </contour>
    <contour>
      <point x="188.66402755231528" y="690.0" type="line"/>
      <point x="353.0" y="0.0" type="line"/>
      <point x="440.0" y="0.0" type="line"/>
      <point x="275.66402755231525" y="690.0" type="line"/>
    </contour>
    <contour>
      <point x="377.0" y="0.0" type="line"/>
      <point x="463.0" y="0.0" type="line"/>
      <point x="609.6640275523152" y="690.0" type="line"/>
      <point x="523.6640275523152" y="690.0" type="line"/>
    </contour>
    <contour>
      <point x="399.66402755231525" y="690.0" type="move" name="top"/>
    </contour>
    <contour>
      <point x="236.0" y="0.0" type="move" name="bottom"/>
    </contour>
  </outline>
</glyph>
<glyph name="O" format="1">
  <advance width="585"/>
  <unicode hex="004F"/>
  <outline>
    <contour>
      <point x="58.33201377615764" y="345.0" type="curve" smooth="yes"/>
      <point x="6.468212728672228" y="101.0"/>
      <point x="94.87443438329979" y="-10.0"/>
      <point x="230.87443438329979" y="-10.0" type="curve" smooth="yes"/>
      <point x="365.8744343832998" y="-10.0"/>
      <point x="501.46821272867226" y="101.0"/>
      <point x="553.3320137761576" y="345.0" type="curve" smooth="yes"/>
      <point x="605.195814823643" y="589.0"/>
      <point x="516.7895931690155" y="700.0"/>
      <point x="381.78959316901546" y="700.0" type="curve" smooth="yes"/>
      <point x="245.78959316901546" y="700.0"/>
      <point x="110.19581482364305" y="589.0"/>
    </contour>
    <contour>
      <point x="151.33201377615762" y="345.0" type="curve" smooth="yes"/>
      <point x="191.5052039317918" y="534.0"/>
      <point x="274.5097288653936" y="614.0"/>
      <point x="363.5097288653936" y="614.0" type="curve" smooth="yes"/>
      <point x="451.5097288653936" y="614.0"/>
      <point x="500.5052039317918" y="534.0"/>
      <point x="460.3320137761576" y="345.0" type="curve" smooth="yes"/>
      <point x="420.15882362052344" y="156.0"/>
      <point x="337.15429868692166" y="76.0"/>
      <point x="249.15429868692166" y="76.0" type="curve" smooth="yes"/>
      <point x="160.1542986869217" y="76.0"/>
      <point x="111.15882362052344" y="156.0"/>
    </contour>
    <contour>
      <point x="378.66402755231525" y="690.0" type="move" name="top"/>
    </contour>
    <contour>
      <point x="258.0" y="0.0" type="move" name="ogonek"/>
    </contour>
    <contour>
      <point x="232.0" y="0.0" type="move" name="bottom"/>
    </contour>
  </outline>
</glyph>
<glyph name="P" format="1">
  <advance width="510"/>
  <unicode hex="0050"/>
  <outline>
    <contour>
      <point x="17.0" y="0.0" type="line"/>
      <point x="107.0" y="0.0" type="line"/>
      <point x="253.66402755231525" y="690.0" type="line"/>
      <point x="163.66402755231528" y="690.0" type="line"/>
    </contour>
    <contour>
      <point x="111.31312230744513" y="232.0" type="line"/>
      <point x="234.31312230744516" y="232.0" type="line" smooth="yes"/>
      <point x="366.1195739203484" y="232.0"/>
      <point x="476.82975130935677" y="305.0"/>
      <point x="509.9885749298802" y="461.0" type="curve" smooth="yes"/>
      <point x="544.4227379204237" y="623.0"/>
      <point x="467.66402755231525" y="690.0"/>
      <point x="341.66402755231525" y="690.0" type="curve" smooth="yes"/>
      <point x="208.66402755231525" y="690.0" type="line"/>
      <point x="191.02183293370342" y="607.0" type="line"/>
      <point x="317.0218329337034" y="607.0" type="line" smooth="yes"/>
      <point x="404.0218329337034" y="607.0"/>
      <point x="440.0944573435625" y="565.0"/>
      <point x="417.9885749298802" y="461.0" type="curve" smooth="yes"/>
      <point x="395.8826925161979" y="357.0"/>
      <point x="340.955316926057" y="315.0"/>
      <point x="254.95531692605698" y="315.0" type="curve" smooth="yes"/>
      <point x="128.95531692605698" y="315.0" type="line"/>
    </contour>
  </outline>
</glyph>
<glyph name="R" format="1">
  <advance width="522"/>
  <unicode hex="0052"/>
  <outline>
    <contour>
      <point x="17.0" y="0.0" type="line"/>
      <point x="107.0" y="0.0" type="line"/>
      <point x="253.66402755231525" y="690.0" type="line"/>
      <point x="163.66402755231528" y="690.0" type="line"/>
    </contour>
    <contour>
      <point x="117.47726259587577" y="261.0" type="line"/>
      <point x="235.4772625958758" y="261.0" type="line"/>
      <point x="366.4772625958758" y="261.0"/>
      <point x="477.9938915977874" y="334.0"/>
      <point x="508.1769233549305" y="476.0" type="curve" smooth="yes"/>
      <point x="540.2729641671039" y="627.0"/>
      <point x="461.66402755231525" y="690.0"/>
      <point x="336.66402755231525" y="690.0" type="curve"/>
      <point x="208.66402755231525" y="690.0" type="line"/>
      <point x="191.02183293370342" y="607.0" type="line"/>
      <point x="307.0218329337034" y="607.0" type="line"/>
      <point x="396.0218329337034" y="607.0"/>
      <point x="435.73212702857256" y="568.0"/>
      <point x="416.1769233549305" y="476.0" type="curve" smooth="yes"/>
      <point x="396.4091631196185" y="383.0"/>
      <point x="338.69434409114757" y="342.0"/>
      <point x="250.69434409114757" y="342.0" type="curve"/>
      <point x="134.69434409114757" y="342.0" type="line"/>
    </contour>
    <contour>
      <point x="239.64140288430644" y="290.0" type="line"/>
      <point x="320.0" y="0.0" type="line"/>
      <point x="422.0" y="0.0" type="line"/>
      <point x="336.64140288430644" y="290.0" type="line"/>
    </contour>
    <contour>
      <point x="341.66402755231525" y="690.0" type="move" name="top"/>
    </contour>
    <contour>
      <point x="206.0" y="0.0" type="move" name="bottom"/>
    </contour>
  </outline>
</glyph>
<glyph name="S" format="1">
  <advance width="502"/>
  <unicode hex="0053"/>
  <outline>
    <contour>
      <point x="-6.782918504728208" y="81.0" type="line"/>
      <point x="29.589253411770684" y="31.0"/>
      <point x="102.87443438329979" y="-10.0"/>
      <point x="182.87443438329979" y="-10.0" type="curve" smooth="yes"/>
      <point x="309.8744343832998" y="-10.0"/>
      <point x="413.87895931690156" y="70.0"/>
      <point x="439.81085984064424" y="192.0" type="curve" smooth="yes"/>
      <point x="457.1959128626992" y="273.790243902439"/>
      <point x="416.42194150725976" y="340.71844660194176"/>
      <point x="294.8100681063388" y="399.0" type="curve" smooth="yes"/>
      <point x="211.0386357352147" y="438.6774193548387"/>
      <point x="194.11414054658042" y="471.0"/>
      <point x="204.95452519175154" y="522.0" type="curve" smooth="yes"/>
      <point x="215.66911105552617" y="572.4081632653061"/>
      <point x="265.14739855040364" y="617.0"/>
      <point x="334.14739855040364" y="617.0" type="curve" smooth="yes"/>
      <point x="384.14739855040364" y="617.0"/>
      <point x="425.47115419366315" y="595.0"/>
      <point x="454.60656141187235" y="558.0" type="curve"/>
      <point x="518.123190413784" y="631.0" type="line"/>
      <point x="479.83409929721256" y="675.4246575342465"/>
      <point x="422.4097049008591" y="700.0"/>
      <point x="354.78959316901546" y="700.0" type="curve" smooth="yes"/>
      <point x="230.17875573059183" y="700.0"/>
      <point x="132.91551866494544" y="615.9090909090909"/>
      <point x="111.46662926006138" y="515.0" type="curve" smooth="yes"/>
      <point x="93.12695004461276" y="428.71859296482415"/>
      <point x="124.7062050518146" y="370.2835820895522"/>
      <point x="247.53020380271693" y="313.0" type="curve" smooth="yes"/>
      <point x="337.459513561147" y="270.32575757575756"/>
      <point x="357.2326084583277" y="231.62121212121212"/>
      <point x="346.685294223944" y="182.0" type="curve" smooth="yes"/>
      <point x="334.14445708541274" y="123.0"/>
      <point x="279.7291855635816" y="74.0"/>
      <point x="207.7291855635816" y="74.0" type="curve" smooth="yes"/>
      <point x="142.12918556358161" y="74.0"/>
      <point x="97.53099553702233" y="106.0"/>
      <point x="60.52115393551338" y="153.0" type="curve"/>
    </contour>
    <contour>
      <point x="341.66402755231525" y="690.0" type="move" name="top"/>
    </contour>
    <contour>
      <point x="194.0" y="0.0" type="move" name="bottom"/>
    </contour>
  </outline>
</glyph>
<glyph name="T" format="1">
  <advance width="463"/>
  <unicode hex="0054"/>
  <outline>
    <contour>
      <point x="92.02183293370342" y="607.0" type="line"/>
      <point x="509.0218329337034" y="607.0" type="line"/>
      <point x="526.6640275523152" y="690.0" type="line"/>
      <point x="109.66402755231528" y="690.0" type="line"/>
    </contour>
    <contour>
      <point x="127.0" y="0.0" type="line"/>
      <point x="217.0" y="0.0" type="line"/>
      <point x="363.66402755231525" y="690.0" type="line"/>
      <point x="273.66402755231525" y="690.0" type="line"/>
    </contour>
    <contour>
      <point x="318.66402755231525" y="690.0" type="move" name="top"/>
    </contour>
    <contour>
      <point x="172.0" y="0.0" type="move" name="bottom"/>
    </contour>
  </outline>
</glyph>
<glyph name="U" format="1">
  <advance width="569"/>
  <unicode hex="0055"/>
  <outline>
    <contour>
      <point x="61.9265838558355" y="249.0" type="line" smooth="yes"/>
      <point x="24.51662900191161" y="73.0"/>
      <point x="90.87443438329979" y="-10.0"/>
      <point x="222.87443438329979" y="-10.0" type="curve" smooth="yes"/>
      <point x="353.8744343832998" y="-10.0"/>
      <point x="455.5166290019116" y="73.0"/>
      <point x="492.9265838558355" y="249.0" type="curve" smooth="yes"/>
      <point x="586.6640275523152" y="690.0" type="line"/>
      <point x="498.66402755231525" y="690.0" type="line"/>
      <point x="405.7768101025156" y="253.0" type="line" smooth="yes"/>
      <point x="377.50678740040263" y="120.0"/>
      <point x="317.15429868692166" y="76.0"/>
      <point x="242.15429868692166" y="76.0" type="curve" smooth="yes"/>
      <point x="166.1542986869217" y="76.0"/>
      <point x="124.50678740040266" y="120.0"/>
      <point x="152.77681010251558" y="253.0" type="curve" smooth="yes"/>
      <point x="245.66402755231525" y="690.0" type="line"/>
      <point x="155.66402755231528" y="690.0" type="line"/>
    </contour>
    <contour>
      <point x="371.66402755231525" y="690.0" type="move" name="top"/>
    </contour>
    <contour>
      <point x="246.0" y="0.0" type="move" name="ogonek"/>
    </contour>
    <contour>
      <point x="224.0" y="0.0" type="move" name="bottom"/>
    </contour>
  </outline>
</glyph>
<glyph name="V" format="1">
  <advance width="513"/>
  <unicode hex="0056"/>
  <outline>
    <contour>
      <point x="98.66402755231528" y="690.0" type="line"/>
      <point x="150.0" y="0.0" type="line"/>
      <point x="211.0" y="0.0" type="line"/>
      <point x="230.27986430362188" y="86.0" type="line"/>
      <point x="190.66402755231528" y="690.0" type="line"/>
    </contour>
    <contour>
      <point x="203.27986430362188" y="86.0" type="line"/>
      <point x="187.0" y="0.0" type="line"/>
      <point x="243.0" y="0.0" type="line"/>
      <point x="588.6640275523152" y="690.0" type="line"/>
      <point x="498.66402755231525" y="690.0" type="line"/>
    </contour>
  </outline>
</glyph>
<glyph name="W" format="1">
  <advance width="768"/>
  <unicode hex="0057"/>
  <outline>
    <contour>
      <point x="98.66402755231528" y="690.0" type="line"/>
      <point x="118.0" y="0.0" type="line"/>
      <point x="176.0" y="0.0" type="line"/>
      <point x="197.55520367364204" y="92.0" type="line"/>
      <point x="189.66402755231528" y="690.0" type="line"/>
    </contour>
    <contour>
      <point x="170.55520367364204" y="92.0" type="line"/>
      <point x="156.0" y="0.0" type="line"/>
      <point x="203.0" y="0.0" type="line"/>
      <point x="459.66934422022246" y="563.0" type="line"/>
      <point x="486.66402755231525" y="690.0" type="line"/>
      <point x="432.66402755231525" y="690.0" type="line"/>
    </contour>
    <contour>
      <point x="428.66934422022246" y="563.0" type="line"/>
      <point x="445.0" y="0.0" type="line"/>
      <point x="498.0" y="0.0" type="line"/>
      <point x="519.555203673642" y="92.0" type="line"/>
      <point x="512.6640275523152" y="690.0" type="line"/>
      <point x="455.66402755231525" y="690.0" type="line"/>
    </contour>
    <contour>
      <point x="492.55520367364204" y="92.0" type="line"/>
      <point x="478.0" y="0.0" type="line"/>
      <point x="530.0" y="0.0" type="line"/>
      <point x="842.6640275523152" y="690.0" type="line"/>
      <point x="754.6640275523152" y="690.0" type="line"/>
    </contour>
    <contour>
      <point x="470.66402755231525" y="690.0" type="move" name="top"/>
    </contour>
  </outline>
</glyph>
<glyph name="X" format="1">
  <advance width="511"/>
  <unicode hex="0058"/>
  <outline>
    <contour>
      <point x="-42.0" y="0.0" type="line"/>
      <point x="58.0" y="0.0" type="line"/>
      <point x="269.12929881599655" y="297.0" type="line"/>
      <point x="306.3562219127773" y="331.0" type="line"/>
      <point x="569.6640275523152" y="690.0" type="line"/>
      <point x="471.66402755231525" y="690.0" type="line"/>
      <point x="272.723077161369" y="408.0" type="line"/>
      <point x="234.28359750291827" y="373.0" type="line"/>
    </contour>
    <contour>
      <point x="114.66402755231528" y="690.0" type="line"/>
      <point x="237.89253411770687" y="310.0" type="line"/>
      <point x="332.0" y="0.0" type="line"/>
      <point x="434.0" y="0.0" type="line"/>
      <point x="305.95984185965875" y="395.0" type="line"/>
      <point x="214.66402755231525" y="690.0" type="line"/>
    </contour>
  </outline>
</glyph>
<glyph name="Y" format="1">
  <advance width="501"/>
  <unicode hex="0059"/>
  <outline>
    <contour>
      <point x="95.66402755231528" y="690.0" type="line"/>
      <point x="210.60282821257601" y="271.0" type="line"/>
      <point x="263.602828212576" y="271.0" type="line"/>
      <point x="279.90690065281757" y="343.0" type="line"/>
      <point x="194.66402755231528" y="690.0" type="line"/>
    </contour>
    <contour>
      <point x="146.0" y="0.0" type="line"/>
      <point x="236.0" y="0.0" type="line"/>
      <point x="304.44321285774714" y="322.0" type="line"/>
      <point x="214.44321285774714" y="322.0" type="line"/>
    </contour>
    <contour>
      <point x="250.90690065281757" y="343.0" type="line"/>
      <point x="237.60282821257601" y="271.0" type="line"/>
      <point x="286.602828212576" y="271.0" type="line"/>
      <point x="579.6640275523152" y="690.0" type="line"/>
      <point x="483.66402755231525" y="690.0" type="line"/>
    </contour>
    <contour>
      <point x="338.66402755231525" y="690.0" type="move" name="top"/>
    </contour>
  </outline>
</glyph>
<glyph name="Z" format="1">
  <advance width="498"/>
  <unicode hex="005A"/>
  <outline>
    <contour>
      <point x="0.6036199468814161" y="64.0" type="line"/>
      <point x="47.0" y="0.0" type="line"/>
      <point x="516.0604076054339" y="626.0" type="line"/>
      <point x="469.66402755231525" y="690.0" type="line"/>
    </contour>
    <contour>
      <point x="-13.0" y="0.0" type="line"/>
      <point x="391.0" y="0.0" type="line"/>
      <point x="408.6421946186118" y="83.0" type="line"/>
      <point x="43.64219461861184" y="83.0" type="line"/>
      <point x="0.6036199468814161" y="64.0" type="line"/>
    </contour>
    <contour>
      <point x="124.02183293370342" y="607.0" type="line"/>
      <point x="471.0218329337034" y="607.0" type="line"/>
      <point x="516.0604076054339" y="626.0" type="line"/>
      <point x="529.6640275523152" y="690.0" type="line"/>
      <point x="141.66402755231528" y="690.0" type="line"/>
    </contour>
    <contour>
      <point x="335.66402755231525" y="690.0" type="move" name="top"/>
    </contour>
  </outline>
</glyph>
<glyph name="bracketleft" format="1">
  <advance width="270"/>
  <unicode hex="005B"/>
  <outline>
    <contour>
      <point x="-29.226131362475336" y="-241.0" type="line"/>
      <point x="49.77386863752466" y="-241.0" type="line"/>
      <point x="265.9438918559372" y="776.0" type="line"/>
      <point x="186.94389185593718" y="776.0" type="line"/>
    </contour>
    <contour>
      <point x="-29.226131362475336" y="-241.0" type="line"/>
      <point x="183.77386863752466" y="-241.0" type="line"/>
      <point x="197.80260170774613" y="-175.0" type="line"/>
      <point x="-15.197398292253872" y="-175.0" type="line"/>
    </contour>
    <contour>
      <point x="172.9151587857157" y="710.0" type="line"/>
      <point x="385.9151587857157" y="710.0" type="line"/>
      <point x="399.9438918559372" y="776.0" type="line"/>
      <point x="186.94389185593718" y="776.0" type="line"/>
    </contour>
  </outline>
</glyph>
<glyph name="backslash" format="1">
  <advance width="294"/>
  <unicode hex="005C"/>
  <outline>
    <contour>
      <point x="92.04072440241592" y="720.0" type="line"/>
      <point x="142.62330314989933" y="-30.0" type="line"/>
      <point x="228.62330314989936" y="-30.0" type="line"/>
      <point x="177.04072440241592" y="720.0" type="line"/>
    </contour>
  </outline>
</glyph>
<glyph name="bracketright" format="1">
  <advance width="270"/>
  <unicode hex="005D"/>
  <outline>
    <contour>
      <point x="-137.22613136247534" y="-241.0" type="line"/>
      <point x="76.77386863752466" y="-241.0" type="line"/>
      <point x="90.80260170774613" y="-175.0" type="line"/>
      <point x="-123.19739829225387" y="-175.0" type="line"/>
    </contour>
    <contour>
      <point x="64.9151587857157" y="710.0" type="line"/>
      <point x="278.9151587857157" y="710.0" type="line"/>
      <point x="292.9438918559372" y="776.0" type="line"/>
      <point x="78.94389185593718" y="776.0" type="line"/>
    </contour>
    <contour>
      <point x="-2.2261313624753356" y="-241.0" type="line"/>
      <point x="76.77386863752466" y="-241.0" type="line"/>
      <point x="292.9438918559372" y="776.0" type="line"/>
      <point x="213.94389185593718" y="776.0" type="line"/>
    </contour>
  </outline>
</glyph>
<glyph name="asciicircum" format="1">
  <advance width="500"/>
  <unicode hex="005E"/>
  <outline>
    <contour>
      <point x="45.54004540422588" y="266.0" type="line"/>
      <point x="132.54004540422588" y="266.0" type="line"/>
      <point x="333.65950261871353" y="610.0" type="line"/>
      <point x="347.66402755231525" y="690.0" type="line"/>
      <point x="301.66402755231525" y="690.0" type="line"/>
    </contour>
    <contour>
      <point x="318.66402755231525" y="690.0" type="line"/>
      <point x="302.65950261871353" y="610.0" type="line"/>
      <point x="359.5400454042259" y="266.0" type="line"/>
      <point x="447.5400454042259" y="266.0" type="line"/>
      <point x="371.66402755231525" y="690.0" type="line"/>
    </contour>
  </outline>
</glyph>
<glyph name="underscore" format="1">
  <advance width="366"/>
  <unicode hex="005F"/>
  <outline>
    <contour>
      <point x="-76.3668552485917" y="-77.0" type="line"/>
      <point x="289.6331447514083" y="-77.0" type="line"/>
      <point x="306.0" y="0.0" type="line"/>
      <point x="-60.0" y="0.0" type="line"/>
    </contour>
  </outline>
</glyph>
<glyph name="grave" format="1">
  <advance width="500"/>
  <unicode hex="0060"/>
  <outline>
    <contour>
      <point x="225.07929907414632" y="739.0" type="line"/>
      <point x="284.19581482364305" y="589.0" type="line"/>
      <point x="357.19581482364305" y="589.0" type="line"/>
      <point x="325.0792990741463" y="739.0" type="line"/>
    </contour>
    <contour>
      <point x="299.2540726983914" y="514.0" type="move" name="_top"/>
    </contour>
  </outline>
</glyph>
<glyph name="a" format="1">
  <advance width="460"/>
  <unicode hex="0061"/>
  <outline>
    <contour>
      <point x="15.120248948793034" y="137.0" type="curve" smooth="yes"/>
      <point x="-4.22239816317898" y="46.0"/>
      <point x="46.31415069535652" y="-10.0"/>
      <point x="125.87443438329979" y="-10.0" type="curve" smooth="yes"/>
      <point x="173.87443438329979" y="-10.0"/>
      <point x="231.00636913208342" y="18.848484848484844"/>
      <point x="269.3282805768613" y="58.0" type="curve"/>
      <point x="283.9946833320928" y="127.0" type="line"/>
      <point x="244.6904669401593" y="92.63636363636364"/>
      <point x="203.5166290019116" y="73.0"/>
      <point x="163.5166290019116" y="73.0" type="curve" smooth="yes"/>
      <point x="119.51662900191161" y="73.0"/>
      <point x="94.96634306917358" y="98.63888888888889"/>
      <point x="104.6081448804832" y="144.0" type="curve" smooth="yes"/>
      <point x="113.41567474968252" y="185.43617021276597"/>
      <point x="149.06399687495016" y="230.8279569892473"/>
      <point x="252.80101823913526" y="239.0" type="curve"/>
      <point x="306.86380104748537" y="244.0" type="line"/>
      <point x="320.6799775560368" y="309.0" type="line"/>
      <point x="267.04230787102676" y="306.0" type="line" smooth="yes"/>
      <point x="106.39441509506634" y="297.0"/>
      <point x="33.18755669074491" y="222.0"/>
    </contour>
    <contour>
      <point x="106.02714960161063" y="480.0" type="curve"/>
      <point x="118.08540747635897" y="405.0" type="line"/>
      <point x="157.5158532642758" y="424.4117647058824"/>
      <point x="200.09977401146966" y="438.0"/>
      <point x="241.09977401146966" y="438.0" type="curve" smooth="yes"/>
      <point x="302.09977401146966" y="438.0"/>
      <point x="328.09954989985135" y="400.3619047619047"/>
      <point x="313.9938915977874" y="334.0" type="curve" smooth="yes"/>
      <point x="264.2556561670022" y="100.0" type="line"/>
      <point x="261.0" y="0.0" type="line"/>
      <point x="344.0" y="0.0" type="line"/>
      <point x="346.35248871348097" y="44.0" type="line" smooth="yes"/>
      <point x="348.5166290019116" y="73.0"/>
      <point x="350.9803167969821" y="94.0"/>
      <point x="356.9319005237427" y="122.0" type="curve" smooth="yes"/>
      <point x="404.3320137761576" y="345.0" type="line" smooth="yes"/>
      <point x="429.2011314915502" y="462.0"/>
      <point x="371.3796383150916" y="524.0"/>
      <point x="269.3796383150916" y="524.0" type="curve" smooth="yes"/>
      <point x="216.03323308633344" y="524.0"/>
      <point x="150.38340904247548" y="504.0"/>
    </contour>
    <contour>
      <point x="272.2540726983914" y="514.0" type="move" name="top"/>
    </contour>
    <contour>
      <point x="261.0" y="0.0" type="move" name="ogonek"/>
    </contour>
    <contour>
      <point x="163.0" y="0.0" type="move" name="bottom"/>
    </contour>
  </outline>
</glyph>
<glyph name="b" format="1">
  <advance width="498"/>
  <unicode hex="0062"/>
  <outline>
    <contour>
      <point x="1.0" y="0.0" type="line"/>
      <point x="84.0" y="0.0" type="line"/>
      <point x="122.2556561670022" y="100.0" type="line"/>
      <point x="257.22907282746627" y="735.0" type="line"/>
      <point x="164.9779415940658" y="715.0" type="line"/>
      <point x="38.9319005237427" y="122.0" type="line"/>
      <point x="32.98031679698208" y="94.0"/>
      <point x="27.51662900191161" y="73.0"/>
      <point x="17.352488713480966" y="44.0" type="curve" smooth="yes"/>
    </contour>
    <contour>
      <point x="103.62251141559392" y="177.0" type="line"/>
      <point x="74.50226246680089" y="40.0"/>
      <point x="133.87443438329979" y="-10.0"/>
      <point x="205.87443438329979" y="-10.0" type="curve" smooth="yes"/>
      <point x="316.8744343832998" y="-10.0"/>
      <point x="414.9287405724592" y="93.75735294117646"/>
      <point x="451.11493228088585" y="264.0" type="curve" smooth="yes"/>
      <point x="488.8721169378432" y="441.63358778625957"/>
      <point x="437.3796383150916" y="524.0"/>
      <point x="342.3796383150916" y="524.0" type="curve" smooth="yes"/>
      <point x="281.3796383150916" y="524.0"/>
      <point x="222.5150455333008" y="487.0"/>
      <point x="184.50067899819004" y="454.0" type="curve"/>
      <point x="170.25938936629856" y="387.0" type="line"/>
      <point x="212.2737559014093" y="420.0"/>
      <point x="260.16255681981977" y="443.0"/>
      <point x="301.16255681981977" y="443.0" type="curve" smooth="yes"/>
      <point x="358.16255681981977" y="443.0"/>
      <point x="388.7896255717689" y="389.4945652173913"/>
      <point x="362.11493228088585" y="264.0" type="curve" smooth="yes"/>
      <point x="337.2621650702371" y="147.07692307692307"/>
      <point x="277.6036199468814" y="64.0"/>
      <point x="210.6036199468814" y="64.0" type="curve" smooth="yes"/>
      <point x="160.60361994688142" y="64.0"/>
      <point x="123.10588241368231" y="104.0"/>
      <point x="142.87364264899435" y="197.0" type="curve"/>
    </contour>
  </outline>
</glyph>
<glyph name="c" format="1">
  <advance width="438"/>
  <unicode hex="0063"/>
  <outline>
    <contour>
      <point x="36.98936666418561" y="254.0" type="curve" smooth="yes"/>
      <point x="0.4296380569418119" y="82.0"/>
      <point x="74.87443438329979" y="-10.0"/>
      <point x="194.87443438329979" y="-10.0" type="curve" smooth="yes"/>
      <point x="259.8744343832998" y="-10.0"/>
      <point x="317.1883484250503" y="15.0"/>
      <point x="357.4152715218311" y="49.0" type="curve"/>
      <point x="322.74355209869236" y="107.0" type="line"/>
      <point x="296.70497742696193" y="88.0"/>
      <point x="259.935960323016" y="71.0"/>
      <point x="221.09151587857156" y="71.0" type="curve" smooth="yes"/>
      <point x="149.17299736005305" y="71.0"/>
      <point x="101.69513582545298" y="135.0"/>
      <point x="126.98936666418561" y="254.0" type="curve" smooth="yes"/>
      <point x="153.55893687293838" y="379.0"/>
      <point x="228.30534593962938" y="444.0"/>
      <point x="298.3751133814898" y="444.0" type="curve" smooth="yes"/>
      <point x="332.53173988751394" y="444.0"/>
      <point x="355.27354185303284" y="427.0857142857143"/>
      <point x="371.510520599699" y="407.0" type="curve"/>
      <point x="433.0513577382303" y="466.0" type="line"/>
      <point x="408.7082792153359" y="504.32142857142856"/>
      <point x="365.1735314448626" y="524.0"/>
      <point x="312.3796383150916" y="524.0" type="curve" smooth="yes"/>
      <point x="189.3796383150916" y="524.0"/>
      <point x="72.69886902474934" y="422.0"/>
    </contour>
    <contour>
      <point x="293.2540726983914" y="514.0" type="move" name="top"/>
    </contour>
    <contour>
      <point x="182.0" y="0.0" type="move" name="bottom"/>
    </contour>
  </outline>
</glyph>
<glyph name="d" format="1">
  <advance width="498"/>
  <unicode hex="0064"/>
  <outline>
    <contour>
      <point x="35.564253540845584" y="252.0" type="curve" smooth="yes"/>
      <point x="0.9175339886319733" y="89.0"/>
      <point x="51.66187782162976" y="-11.0"/>
      <point x="153.87443438329979" y="-10.0" type="curve" smooth="yes"/>
      <point x="207.08699094496978" y="-9.0"/>
      <point x="261.03857467173043" y="19.0"/>
      <point x="302.75339370020134" y="60.0" type="curve"/>
      <point x="317.6323530171029" y="130.0" type="line"/>
      <point x="275.9803167969821" y="94.0"/>
      <point x="232.09151587857156" y="71.0"/>
      <point x="191.09151587857156" y="71.0" type="curve" smooth="yes"/>
      <point x="131.25342064047635" y="71.0"/>
      <point x="102.12024894879303" y="137.0"/>
      <point x="127.62703634919569" y="257.0" type="curve" smooth="yes"/>
      <point x="151.43337125623816" y="369.0"/>
      <point x="211.46012223686557" y="448.0"/>
      <point x="281.2253396281699" y="448.0" type="curve" smooth="yes"/>
      <point x="328.2253396281699" y="448.0"/>
      <point x="363.935633723039" y="409.0"/>
      <point x="344.38043004939703" y="317.0" type="curve"/>
      <point x="383.63156128279746" y="337.0" type="line"/>
      <point x="412.75181023159047" y="474.0"/>
      <point x="353.3796383150916" y="524.0"/>
      <point x="280.3796383150916" y="524.0" type="curve" smooth="yes"/>
      <point x="170.3796383150916" y="524.0"/>
      <point x="71.69886902474934" y="422.0"/>
    </contour>
    <contour>
      <point x="294.0" y="0.0" type="line"/>
      <point x="377.0" y="0.0" type="line"/>
      <point x="379.35248871348097" y="44.0" type="line" smooth="yes"/>
      <point x="381.5166290019116" y="73.0"/>
      <point x="384.9803167969821" y="94.0"/>
      <point x="390.9319005237427" y="122.0" type="curve" smooth="yes"/>
      <point x="521.2290728274663" y="735.0" type="line"/>
      <point x="428.9779415940658" y="715.0" type="line"/>
      <point x="298.2556561670022" y="100.0" type="line"/>
    </contour>
    <contour>
      <point x="591.0407244024159" y="720.0" type="move" name="caron.alt"/>
    </contour>
  </outline>
</glyph>
<glyph name="e" format="1">
  <advance width="468"/>
  <unicode hex="0065"/>
  <outline>
    <contour>
      <point x="36.564253540845584" y="252.0" type="curve" smooth="yes"/>
      <point x="-0.8457013130783224" y="76.0"/>
      <point x="79.87443438329979" y="-10.0"/>
      <point x="195.87443438329979" y="-10.0" type="curve" smooth="yes"/>
      <point x="251.87443438329979" y="-10.0"/>
      <point x="314.55067874004027" y="12.0"/>
      <point x="357.4152715218311" y="49.0" type="curve"/>
      <point x="322.74355209869236" y="107.0" type="line"/>
      <point x="293.3639309164959" y="86.15789473684211"/>
      <point x="257.09151587857156" y="71.0"/>
      <point x="220.09151587857156" y="71.0" type="curve" smooth="yes"/>
      <point x="144.09151587857156" y="71.0"/>
      <point x="100.05746614044293" y="132.0"/>
      <point x="125.35169697917556" y="251.0" type="curve" smooth="yes"/>
      <point x="153.62171968128848" y="384.0"/>
      <point x="211.80022650482988" y="446.0"/>
      <point x="277.8002265048299" y="446.0" type="curve" smooth="yes"/>
      <point x="334.2125976388505" y="446.0"/>
      <point x="363.3849549829988" y="397.0"/>
      <point x="335.7526019658959" y="267.0" type="curve"/>
      <point x="362.4046381860167" y="303.0" type="line"/>
      <point x="119.40463818601671" y="303.0" type="line"/>
      <point x="103.1005657457751" y="231.0" type="line"/>
      <point x="413.1005657457751" y="231.0" type="line"/>
      <point x="416.65124448581537" y="243.0"/>
      <point x="420.20192322585564" y="255.0"/>
      <point x="422.5400454042259" y="266.0" type="curve" smooth="yes"/>
      <point x="457.18676495643945" y="429.0"/>
      <point x="411.3796383150916" y="524.0"/>
      <point x="297.3796383150916" y="524.0" type="curve"/>
      <point x="182.3796383150916" y="524.0"/>
      <point x="75.03699120311958" y="433.0"/>
    </contour>
    <contour>
      <point x="291.2540726983914" y="514.0" type="move" name="top"/>
    </contour>
    <contour>
      <point x="240.0" y="0.0" type="move" name="ogonek"/>
    </contour>
    <contour>
      <point x="182.0" y="0.0" type="move" name="bottom"/>
    </contour>
  </outline>
</glyph>
<glyph name="f" format="1">
  <advance width="310"/>
  <unicode hex="0066"/>
  <outline>
    <contour>
      <point x="48.887217449799664" y="437.0" type="line"/>
      <point x="337.88721744979966" y="437.0" type="line"/>
      <point x="354.2540726983914" y="514.0" type="line"/>
      <point x="65.25407269839137" y="514.0" type="line"/>
    </contour>
    <contour>
      <point x="32.0" y="0.0" type="line"/>
      <point x="120.0" y="0.0" type="line"/>
      <point x="238.1814482885323" y="556.0" type="line" smooth="yes"/>
      <point x="251.78506823541375" y="620.0"/>
      <point x="281.0119913321945" y="654.0"/>
      <point x="327.0119913321945" y="654.0" type="curve" smooth="yes"/>
      <point x="347.3345719773557" y="654.0"/>
      <point x="366.9492085238444" y="649.0"/>
      <point x="387.0361994688142" y="640.0" type="curve"/>
      <point x="417.3402719090558" y="712.0" type="line"/>
      <point x="393.38625925596534" y="723.0"/>
      <point x="363.5258405809139" y="730.0"/>
      <point x="331.16629001911616" y="730.0" type="curve" smooth="yes"/>
      <point x="249.16629001911616" y="730.0"/>
      <point x="173.9877831955748" y="668.0"/>
      <point x="151.0316745352124" y="560.0" type="curve" smooth="yes"/>
    </contour>
  </outline>
</glyph>
<glyph name="g" format="1">
  <advance width="498"/>
  <unicode hex="0067"/>
  <outline>
    <contour>
      <point x="38.6898191575458" y="262.0" type="curve" smooth="yes"/>
      <point x="4.893325852012282" y="103.0"/>
      <point x="54.700452493360174" y="8.0"/>
      <point x="158.7004524933602" y="8.0" type="curve" smooth="yes"/>
      <point x="209.70045249336016" y="8.0"/>
      <point x="264.6520362201208" y="36.0"/>
      <point x="305.7291855635816" y="74.0" type="curve"/>
      <point x="319.9704751954731" y="141.0" type="line"/>
      <point x="279.1686652220324" y="109.0"/>
      <point x="234.130090550302" y="90.0"/>
      <point x="195.130090550302" y="90.0" type="curve" smooth="yes"/>
      <point x="135.130090550302" y="90.0"/>
      <point x="104.09604081217333" y="151.0"/>
      <point x="128.11493228088585" y="264.0" type="curve" smooth="yes"/>
      <point x="151.0710409412482" y="372.0"/>
      <point x="211.22533962816988" y="448.0"/>
      <point x="281.2253396281699" y="448.0" type="curve" smooth="yes"/>
      <point x="328.2253396281699" y="448.0"/>
      <point x="363.935633723039" y="409.0"/>
      <point x="344.38043004939703" y="317.0" type="curve"/>
      <point x="383.63156128279746" y="337.0" type="line"/>
      <point x="412.75181023159047" y="474.0"/>
      <point x="353.3796383150916" y="524.0"/>
      <point x="280.3796383150916" y="524.0" type="curve" smooth="yes"/>
      <point x="169.3796383150916" y="524.0"/>
      <point x="73.3365387097594" y="425.0"/>
    </contour>
    <contour>
      <point x="-26.820701442153208" y="-145.0" type="line"/>
      <point x="8.108743761409812" y="-172.45098039215685"/>
      <point x="64.82995148700391" y="-195.0"/>
      <point x="122.55147047434568" y="-195.0" type="curve" smooth="yes"/>
      <point x="237.4086133314886" y="-195.0"/>
      <point x="341.8313347779676" y="-109.0"/>
      <point x="374.35248871348097" y="44.0" type="curve" smooth="yes"/>
      <point x="448.3221721746487" y="392.0" type="line"/>
      <point x="454.27375590140923" y="420.0"/>
      <point x="458.95000025814977" y="442.0"/>
      <point x="470.1141405465804" y="471.0" type="curve" smooth="yes"/>
      <point x="486.4666292600614" y="515.0" type="line"/>
      <point x="403.4666292600614" y="515.0" type="line"/>
      <point x="364.9984165313891" y="414.0" type="line"/>
      <point x="286.990158398491" y="47.0" type="line" smooth="yes"/>
      <point x="263.6089366147886" y="-63.0"/>
      <point x="205.5936650929575" y="-112.0"/>
      <point x="134.19366509295753" y="-112.0" type="curve" smooth="yes"/>
      <point x="84.59366509295754" y="-112.0"/>
      <point x="48.01968320301792" y="-94.0"/>
      <point x="19.33359724476847" y="-69.0" type="curve"/>
    </contour>
    <contour>
      <point x="290.4666292600614" y="515.0" type="move" name="top"/>
    </contour>
  </outline>
</glyph>
<glyph name="h" format="1">
  <advance width="515"/>
  <unicode hex="0068"/>
  <outline>
    <contour>
      <point x="13.0" y="0.0" type="line"/>
      <point x="101.0" y="0.0" type="line"/>
      <point x="257.22907282746627" y="735.0" type="line"/>
      <point x="164.9779415940658" y="715.0" type="line"/>
    </contour>
    <contour>
      <point x="170.04683280462854" y="386.0" type="line"/>
      <point x="212.69886902474934" y="422.0"/>
      <point x="259.16255681981977" y="443.0"/>
      <point x="302.16255681981977" y="443.0" type="curve" smooth="yes"/>
      <point x="355.16255681981977" y="443.0"/>
      <point x="385.36074684637913" y="411.0"/>
      <point x="362.6171947476867" y="304.0" type="curve" smooth="yes"/>
      <point x="298.0" y="0.0" type="line"/>
      <point x="386.0" y="0.0" type="line"/>
      <point x="453.5929866110671" y="318.0" type="line" smooth="yes"/>
      <point x="487.3894799166005" y="477.0"/>
      <point x="424.89641683858156" y="524.0"/>
      <point x="347.3796383150916" y="524.0" type="curve" smooth="yes"/>
      <point x="289.3796383150916" y="524.0"/>
      <point x="230.21549802666095" y="495.0"/>
      <point x="184.50067899819004" y="454.0" type="curve"/>
    </contour>
    <contour>
      <point x="210.0407244024159" y="720.0" type="move" name="top"/>
    </contour>
  </outline>
</glyph>
<glyph name="i" format="1">
  <advance width="234"/>
  <unicode hex="0069"/>
  <outline>
    <contour>
      <point x="13.0" y="0.0" type="line"/>
      <point x="101.0" y="0.0" type="line"/>
      <point x="210.46662926006138" y="515.0" type="line"/>
      <point x="122.46662926006138" y="515.0" type="line"/>
    </contour>
    <contour>
      <point x="140.9877831955748" y="668.0" type="curve" smooth="yes"/>
      <point x="134.18597322213407" y="636.0"/>
      <point x="154.6595026187135" y="610.0"/>
      <point x="186.6595026187135" y="610.0" type="curve" smooth="yes"/>
      <point x="218.65950261871353" y="610.0"/>
      <point x="250.18597322213407" y="636.0"/>
      <point x="256.9877831955748" y="668.0" type="curve" smooth="yes"/>
      <point x="263.78959316901546" y="700.0"/>
      <point x="243.31606377243605" y="726.0"/>
      <point x="211.31606377243605" y="726.0" type="curve" smooth="yes"/>
      <point x="179.31606377243605" y="726.0"/>
      <point x="147.7895931690155" y="700.0"/>
    </contour>
    <contour>
      <point x="13.0" y="0.0" type="move" name="ogonek"/>
    </contour>
    <contour>
      <point x="57.0" y="0.0" type="move" name="bottom"/>
    </contour>
  </outline>
</glyph>
<glyph name="j" format="1">
  <advance width="234"/>
  <unicode hex="006A"/>
  <outline>
    <contour>
      <point x="-143.89785078561405" y="-183.0" type="line"/>
      <point x="-126.3857467173042" y="-190.0"/>
      <point x="-102.44852952565432" y="-195.0"/>
      <point x="-79.44852952565432" y="-195.0" type="curve" smooth="yes"/>
      <point x="8.551470474345678" y="-195.0"/>
      <point x="72.51742073621705" y="-134.0"/>
      <point x="93.1354072182092" y="-37.0" type="curve" smooth="yes"/>
      <point x="210.46662926006138" y="515.0" type="line"/>
      <point x="122.46662926006138" y="515.0" type="line"/>
      <point x="5.9856334648892755" y="-33.0" type="line" smooth="yes"/>
      <point x="-5.704977426961946" y="-88.0"/>
      <point x="-32.018891468712496" y="-113.0"/>
      <point x="-71.0188914687125" y="-113.0" type="curve" smooth="yes"/>
      <point x="-87.0188914687125" y="-113.0"/>
      <point x="-100.38122178370243" y="-110.0"/>
      <point x="-113.53099553702235" y="-106.0" type="curve"/>
    </contour>
    <contour>
      <point x="140.9877831955748" y="668.0" type="curve" smooth="yes"/>
      <point x="134.18597322213407" y="636.0"/>
      <point x="154.6595026187135" y="610.0"/>
      <point x="186.6595026187135" y="610.0" type="curve" smooth="yes"/>
      <point x="218.65950261871353" y="610.0"/>
      <point x="250.18597322213407" y="636.0"/>
      <point x="256.9877831955748" y="668.0" type="curve" smooth="yes"/>
      <point x="263.78959316901546" y="700.0"/>
      <point x="243.31606377243605" y="726.0"/>
      <point x="211.31606377243605" y="726.0" type="curve" smooth="yes"/>
      <point x="179.31606377243605" y="726.0"/>
      <point x="147.7895931690155" y="700.0"/>
    </contour>
  </outline>
</glyph>
<glyph name="k" format="1">
  <advance width="457"/>
  <unicode hex="006B"/>
  <outline>
    <contour>
      <point x="13.0" y="0.0" type="line"/>
      <point x="101.0" y="0.0" type="line"/>
      <point x="257.22907282746627" y="735.0" type="line"/>
      <point x="164.9779415940658" y="715.0" type="line"/>
    </contour>
    <contour>
      <point x="123.34717204557379" y="171.0" type="line"/>
      <point x="483.4666292600614" y="515.0" type="line"/>
      <point x="378.4666292600614" y="515.0" type="line"/>
      <point x="146.15350695261625" y="283.0" type="line"/>
    </contour>
    <contour>
      <point x="192.90237571921583" y="263.0" type="line"/>
      <point x="287.0" y="0.0" type="line"/>
      <point x="387.0" y="0.0" type="line"/>
      <point x="267.2306562960771" y="321.0" type="line"/>
    </contour>
    <contour>
      <point x="185.0" y="0.0" type="move" name="bottom"/>
    </contour>
  </outline>
</glyph>
<glyph name="l" format="1">
  <advance width="234"/>
  <unicode hex="006C"/>
  <outline>
    <contour>
      <point x="13.0" y="0.0" type="line"/>
      <point x="101.0" y="0.0" type="line"/>
      <point x="257.22907282746627" y="735.0" type="line"/>
      <point x="164.9779415940658" y="715.0" type="line"/>
    </contour>
    <contour>
      <point x="210.0407244024159" y="720.0" type="move" name="top"/>
    </contour>
    <contour>
      <point x="327.0407244024159" y="720.0" type="move" name="caron.alt"/>
    </contour>
    <contour>
      <point x="57.0" y="0.0" type="move" name="bottom"/>
    </contour>
  </outline>
</glyph>
<glyph name="m" format="1">
  <advance width="753"/>
  <unicode hex="006D"/>
  <outline>
    <contour>
      <point x="110.46662926006138" y="515.0" type="line"/>
      <point x="108.11414054658042" y="471.0" type="line" smooth="yes"/>
      <point x="106.95000025814977" y="442.0"/>
      <point x="102.27375590140929" y="420.0"/>
      <point x="96.32217217464867" y="392.0" type="curve" smooth="yes"/>
      <point x="13.0" y="0.0" type="line"/>
      <point x="101.0" y="0.0" type="line"/>
      <point x="194.31233057313972" y="439.0" type="line"/>
      <point x="193.46662926006138" y="515.0" type="line"/>
    </contour>
    <contour>
      <point x="169.62171968128848" y="384.0" type="line"/>
      <point x="209.0611993397393" y="419.0"/>
      <point x="250.73744369647977" y="441.0"/>
      <point x="288.7374436964798" y="441.0" type="curve" smooth="yes"/>
      <point x="334.7374436964798" y="441.0"/>
      <point x="360.08540747635897" y="405.0"/>
      <point x="340.5302038027169" y="313.0" type="curve" smooth="yes"/>
      <point x="274.0" y="0.0" type="line"/>
      <point x="362.0" y="0.0" type="line"/>
      <point x="435.3320137761576" y="345.0" type="line" smooth="yes"/>
      <point x="461.0513577382303" y="466.0"/>
      <point x="408.3796383150916" y="524.0"/>
      <point x="336.3796383150916" y="524.0" type="curve"/>
      <point x="280.3796383150916" y="524.0"/>
      <point x="228.21549802666095" y="495.0"/>
      <point x="184.50067899819004" y="454.0" type="curve"/>
    </contour>
    <contour>
      <point x="431.07556587485" y="452.0" type="curve"/>
      <point x="425.6217196812885" y="384.0" type="line"/>
      <point x="466.06119933973923" y="419.0"/>
      <point x="509.7374436964798" y="441.0"/>
      <point x="549.7374436964798" y="441.0" type="curve" smooth="yes"/>
      <point x="595.7374436964798" y="441.0"/>
      <point x="621.085407476359" y="405.0"/>
      <point x="601.5302038027169" y="313.0" type="curve" smooth="yes"/>
      <point x="535.0" y="0.0" type="line"/>
      <point x="623.0" y="0.0" type="line"/>
      <point x="695.9069006528176" y="343.0" type="line" smooth="yes"/>
      <point x="721.8388011765603" y="465.0"/>
      <point x="672.3796383150916" y="524.0"/>
      <point x="588.3796383150916" y="524.0" type="curve"/>
      <point x="534.3796383150916" y="524.0"/>
      <point x="476.00294146499095" y="494.0"/>
    </contour>
  </outline>
</glyph>
<glyph name="n" format="1">
  <advance width="515"/>
  <unicode hex="006E"/>
  <outline>
    <contour>
      <point x="110.46662926006138" y="515.0" type="line"/>
      <point x="108.11414054658042" y="471.0" type="line" smooth="yes"/>
      <point x="106.95000025814977" y="442.0"/>
      <point x="102.27375590140929" y="420.0"/>
      <point x="96.32217217464867" y="392.0" type="curve" smooth="yes"/>
      <point x="13.0" y="0.0" type="line"/>
      <point x="101.0" y="0.0" type="line"/>
      <point x="194.31233057313972" y="439.0" type="line"/>
      <point x="193.46662926006138" y="515.0" type="line"/>
    </contour>
    <contour>
      <point x="170.04683280462854" y="386.0" type="line"/>
      <point x="212.69886902474934" y="422.0"/>
      <point x="259.16255681981977" y="443.0"/>
      <point x="302.16255681981977" y="443.0" type="curve" smooth="yes"/>
      <point x="355.16255681981977" y="443.0"/>
      <point x="385.36074684637913" y="411.0"/>
      <point x="362.6171947476867" y="304.0" type="curve" smooth="yes"/>
      <point x="298.0" y="0.0" type="line"/>
      <point x="386.0" y="0.0" type="line"/>
      <point x="453.5929866110671" y="318.0" type="line" smooth="yes"/>
      <point x="487.3894799166005" y="477.0"/>
      <point x="424.89641683858156" y="524.0"/>
      <point x="347.3796383150916" y="524.0" type="curve" smooth="yes"/>
      <point x="289.3796383150916" y="524.0"/>
      <point x="230.21549802666095" y="495.0"/>
      <point x="184.50067899819004" y="454.0" type="curve"/>
    </contour>
    <contour>
      <point x="316.2540726983914" y="514.0" type="move" name="top"/>
    </contour>
    <contour>
      <point x="199.0" y="0.0" type="move" name="bottom"/>
    </contour>
  </outline>
</glyph>
<glyph name="o" format="1">
  <advance width="486"/>
  <unicode hex="006F"/>
  <outline>
    <contour>
      <point x="37.62703634919569" y="257.0" type="curve" smooth="yes"/>
      <point x="-0.4205881897382753" y="78.0"/>
      <point x="56.874434383299786" y="-10.0"/>
      <point x="180.87443438329979" y="-10.0" type="curve" smooth="yes"/>
      <point x="301.8744343832998" y="-10.0"/>
      <point x="399.5794118102617" y="78.0"/>
      <point x="437.6270363491957" y="257.0" type="curve" smooth="yes"/>
      <point x="475.46210432645967" y="435.0"/>
      <point x="418.3796383150916" y="524.0"/>
      <point x="296.3796383150916" y="524.0" type="curve" smooth="yes"/>
      <point x="173.3796383150916" y="524.0"/>
      <point x="75.46210432645961" y="435.0"/>
    </contour>
    <contour>
      <point x="127.62703634919569" y="257.0" type="curve" smooth="yes"/>
      <point x="153.34638031126838" y="378.0"/>
      <point x="203.58766994315988" y="445.0"/>
      <point x="277.5876699431599" y="445.0" type="curve" smooth="yes"/>
      <point x="351.5876699431599" y="445.0"/>
      <point x="373.3463803112684" y="378.0"/>
      <point x="347.6270363491957" y="257.0" type="curve" smooth="yes"/>
      <point x="321.907692387123" y="136.0"/>
      <point x="271.6664027552315" y="69.0"/>
      <point x="197.6664027552315" y="69.0" type="curve" smooth="yes"/>
      <point x="123.66640275523153" y="69.0"/>
      <point x="101.907692387123" y="136.0"/>
    </contour>
    <contour>
      <point x="292.2540726983914" y="514.0" type="move" name="top"/>
    </contour>
    <contour>
      <point x="195.0" y="0.0" type="move" name="ogonek"/>
    </contour>
    <contour>
      <point x="183.0" y="0.0" type="move" name="bottom"/>
    </contour>
  </outline>
</glyph>
<glyph name="p" format="1">
  <advance width="498"/>
  <unicode hex="0070"/>
  <outline>
    <contour>
      <point x="110.46662926006138" y="515.0" type="line"/>
      <point x="108.11414054658042" y="471.0" type="line" smooth="yes"/>
      <point x="106.95000025814977" y="442.0"/>
      <point x="102.27375590140929" y="420.0"/>
      <point x="96.32217217464867" y="392.0" type="curve" smooth="yes"/>
      <point x="-29.511312334004423" y="-200.0" type="line"/>
      <point x="62.73981889939603" y="-180.0" type="line"/>
      <point x="188.99841653138915" y="414.0" type="line"/>
      <point x="193.46662926006138" y="515.0" type="line"/>
    </contour>
    <contour>
      <point x="103.62251141559392" y="177.0" type="line"/>
      <point x="74.50226246680089" y="40.0"/>
      <point x="133.87443438329979" y="-10.0"/>
      <point x="205.87443438329979" y="-10.0" type="curve" smooth="yes"/>
      <point x="313.4497032005041" y="-10.0"/>
      <point x="414.76776023531204" y="93.0"/>
      <point x="450.6898191575458" y="262.0" type="curve" smooth="yes"/>
      <point x="487.67466088812967" y="436.0"/>
      <point x="436.9784755243939" y="524.0"/>
      <point x="333.3796383150916" y="524.0" type="curve" smooth="yes"/>
      <point x="280.3796383150916" y="524.0"/>
      <point x="222.5150455333008" y="487.0"/>
      <point x="184.50067899819004" y="454.0" type="curve"/>
      <point x="170.25938936629856" y="387.0" type="line"/>
      <point x="212.2737559014093" y="420.0"/>
      <point x="260.16255681981977" y="443.0"/>
      <point x="301.16255681981977" y="443.0" type="curve" smooth="yes"/>
      <point x="358.16255681981977" y="443.0"/>
      <point x="387.4091631196185" y="383.0"/>
      <point x="361.05214947253575" y="259.0" type="curve" smooth="yes"/>
      <point x="336.8207014421532" y="145.0"/>
      <point x="277.6036199468814" y="64.0"/>
      <point x="210.6036199468814" y="64.0" type="curve" smooth="yes"/>
      <point x="160.60361994688142" y="64.0"/>
      <point x="123.10588241368231" y="104.0"/>
      <point x="142.87364264899435" y="197.0" type="curve"/>
    </contour>
  </outline>
</glyph>
<glyph name="q" format="1">
  <advance width="498"/>
  <unicode hex="0071"/>
  <outline>
    <contour>
      <point x="35.564253540845584" y="252.0" type="curve" smooth="yes"/>
      <point x="0.9175339886319733" y="89.0"/>
      <point x="51.66187782162976" y="-11.0"/>
      <point x="153.87443438329979" y="-10.0" type="curve" smooth="yes"/>
      <point x="207.08699094496978" y="-9.0"/>
      <point x="261.03857467173043" y="19.0"/>
      <point x="302.75339370020134" y="60.0" type="curve"/>
      <point x="317.6323530171029" y="130.0" type="line"/>
      <point x="275.9803167969821" y="94.0"/>
      <point x="232.09151587857156" y="71.0"/>
      <point x="191.09151587857156" y="71.0" type="curve" smooth="yes"/>
      <point x="131.25342064047635" y="71.0"/>
      <point x="102.12024894879303" y="137.0"/>
      <point x="127.62703634919569" y="257.0" type="curve" smooth="yes"/>
      <point x="151.43337125623816" y="369.0"/>
      <point x="211.46012223686557" y="448.0"/>
      <point x="281.2253396281699" y="448.0" type="curve" smooth="yes"/>
      <point x="328.2253396281699" y="448.0"/>
      <point x="363.935633723039" y="409.0"/>
      <point x="344.38043004939703" y="317.0" type="curve"/>
      <point x="383.63156128279746" y="337.0" type="line"/>
      <point x="412.75181023159047" y="474.0"/>
      <point x="353.3796383150916" y="524.0"/>
      <point x="280.3796383150916" y="524.0" type="curve" smooth="yes"/>
      <point x="168.3796383150916" y="524.0"/>
      <point x="71.69886902474934" y="422.0"/>
    </contour>
    <contour>
      <point x="234.4886876659956" y="-200.0" type="line"/>
      <point x="326.739818899396" y="-180.0" type="line"/>
      <point x="448.3221721746487" y="392.0" type="line" smooth="yes"/>
      <point x="454.27375590140923" y="420.0"/>
      <point x="458.95000025814977" y="442.0"/>
      <point x="470.1141405465804" y="471.0" type="curve" smooth="yes"/>
      <point x="486.4666292600614" y="515.0" type="line"/>
      <point x="403.4666292600614" y="515.0" type="line"/>
      <point x="364.9984165313891" y="414.0" type="line"/>
    </contour>
  </outline>
</glyph>
<glyph name="r" format="1">
  <advance width="328"/>
  <unicode hex="0072"/>
  <outline>
    <contour>
      <point x="110.46662926006138" y="515.0" type="line"/>
      <point x="108.11414054658042" y="471.0" type="line" smooth="yes"/>
      <point x="106.95000025814977" y="442.0"/>
      <point x="102.27375590140929" y="420.0"/>
      <point x="96.32217217464867" y="392.0" type="curve" smooth="yes"/>
      <point x="13.0" y="0.0" type="line"/>
      <point x="101.0" y="0.0" type="line"/>
      <point x="194.52488713480972" y="440.0" type="line"/>
      <point x="193.46662926006138" y="515.0" type="line"/>
    </contour>
    <contour>
      <point x="166.6459278179082" y="370.0" type="line"/>
      <point x="207.29796403802897" y="406.0"/>
      <point x="270.54909527142945" y="426.0"/>
      <point x="339.1867649564395" y="429.0" type="curve"/>
      <point x="359.3796383150916" y="524.0" type="line"/>
      <point x="294.3796383150916" y="524.0"/>
      <point x="223.94015865664085" y="489.0"/>
      <point x="180.2495477647896" y="434.0" type="curve"/>
    </contour>
    <contour>
      <point x="231.25407269839138" y="514.0" type="move" name="top"/>
    </contour>
    <contour>
      <point x="57.0" y="0.0" type="move" name="bottom"/>
    </contour>
  </outline>
</glyph>
<glyph name="s" format="1">
  <advance width="420"/>
  <unicode hex="0073"/>
  <outline>
    <contour>
      <point x="-8.521945669818805" y="54.0" type="line"/>
      <point x="19.357435745572857" y="21.492063492063494"/>
      <point x="77.07086295472834" y="-10.0"/>
      <point x="142.87443438329979" y="-10.0" type="curve" smooth="yes"/>
      <point x="249.87443438329979" y="-10.0"/>
      <point x="330.90316745352123" y="56.0"/>
      <point x="349.39558831881317" y="143.0" type="curve"/>
      <point x="363.6368779507046" y="210.0"/>
      <point x="335.5642535408456" y="252.0"/>
      <point x="235.97952506267666" y="301.0" type="curve" smooth="yes"/>
      <point x="172.56877847444736" y="332.0"/>
      <point x="156.0324662695178" y="353.0"/>
      <point x="162.83427624295854" y="385.0" type="curve" smooth="yes"/>
      <point x="170.36674939713993" y="420.4375"/>
      <point x="208.64639225974884" y="448.0"/>
      <point x="253.22533962816988" y="448.0" type="curve" smooth="yes"/>
      <point x="293.8348634376937" y="448.0"/>
      <point x="328.0379668510406" y="429.4418604651163"/>
      <point x="348.29796403802897" y="406.0" type="curve"/>
      <point x="404.53925366992047" y="473.0" type="line"/>
      <point x="373.07345800955835" y="505.0"/>
      <point x="323.73879324466907" y="524.0"/>
      <point x="272.3796383150916" y="524.0" type="curve" smooth="yes"/>
      <point x="173.97245268634907" y="524.0"/>
      <point x="93.32301707236797" y="462.57342657342656"/>
      <point x="75.7714934346084" y="380.0" type="curve" smooth="yes"/>
      <point x="61.530203802716926" y="313.0"/>
      <point x="93.54004540422588" y="266.0"/>
      <point x="182.61266981408494" y="224.0" type="curve" smooth="yes"/>
      <point x="250.81085984064424" y="192.0"/>
      <point x="268.6867739084719" y="172.5977011494253"/>
      <point x="261.33280551046306" y="138.0" type="curve" smooth="yes"/>
      <point x="253.0430996053322" y="99.0"/>
      <point x="218.02873307022145" y="66.0"/>
      <point x="162.02873307022145" y="66.0" type="curve" smooth="yes"/>
      <point x="115.7747648162532" y="66.0"/>
      <point x="75.25982372737556" y="93.0"/>
      <point x="49.50678740040266" y="120.0" type="curve"/>
    </contour>
    <contour>
      <point x="267.2540726983914" y="514.0" type="move" name="top"/>
    </contour>
    <contour>
      <point x="142.0" y="0.0" type="move" name="bottom"/>
    </contour>
  </outline>
</glyph>
<glyph name="t" format="1">
  <advance width="339"/>
  <unicode hex="0074"/>
  <outline>
    <contour>
      <point x="49.09977401146969" y="438.0" type="line"/>
      <point x="338.09977401146966" y="438.0" type="line"/>
      <point x="354.4666292600614" y="515.0" type="line"/>
      <point x="65.4666292600614" y="515.0" type="line"/>
    </contour>
    <contour>
      <point x="63.883484250503315" y="150.0" type="line" smooth="yes"/>
      <point x="41.13993215181095" y="43.0"/>
      <point x="81.87443438329979" y="-10.0"/>
      <point x="164.87443438329979" y="-10.0" type="curve" smooth="yes"/>
      <point x="194.87443438329979" y="-10.0"/>
      <point x="229.0589595284731" y="-3.0"/>
      <point x="258.2753393700201" y="6.0" type="curve"/>
      <point x="261.21708149527177" y="81.0" type="line"/>
      <point x="236.13329566857828" y="73.0"/>
      <point x="215.9664027552315" y="69.0"/>
      <point x="197.6664027552315" y="69.0" type="curve" smooth="yes"/>
      <point x="154.35390275523153" y="69.0"/>
      <point x="141.2556561670022" y="100.0"/>
      <point x="152.52115393551338" y="153.0" type="curve" smooth="yes"/>
      <point x="258.79943477052444" y="653.0" type="line"/>
      <point x="166.548303537124" y="633.0" type="line"/>
    </contour>
    <contour>
      <point x="432.0407244024159" y="720.0" type="move" name="caron.alt"/>
    </contour>
    <contour>
      <point x="136.0" y="0.0" type="move" name="bottom"/>
    </contour>
  </outline>
</glyph>
<glyph name="u" format="1">
  <advance width="511"/>
  <unicode hex="0075"/>
  <outline>
    <contour>
      <point x="48.11040734728408" y="184.0" type="line" smooth="yes"/>
      <point x="20.265497768511167" y="53.0"/>
      <point x="70.87443438329979" y="-10.0"/>
      <point x="161.87443438329979" y="-10.0" type="curve" smooth="yes"/>
      <point x="216.87443438329979" y="-10.0"/>
      <point x="271.03857467173043" y="19.0"/>
      <point x="315.75339370020134" y="60.0" type="curve"/>
      <point x="330.6323530171029" y="130.0" type="line"/>
      <point x="288.1928733586521" y="95.0"/>
      <point x="242.5166290019116" y="73.0"/>
      <point x="199.5166290019116" y="73.0" type="curve" smooth="yes"/>
      <point x="148.1075380928207" y="73.0"/>
      <point x="120.38122178370244" y="110.0"/>
      <point x="138.44852952565432" y="195.0" type="curve" smooth="yes"/>
      <point x="206.46662926006138" y="515.0" type="line"/>
      <point x="118.46662926006138" y="515.0" type="line"/>
    </contour>
    <contour>
      <point x="307.0" y="0.0" type="line"/>
      <point x="391.0" y="0.0" type="line"/>
      <point x="393.35248871348097" y="44.0" type="line" smooth="yes"/>
      <point x="394.5166290019116" y="73.0"/>
      <point x="397.9803167969821" y="94.0"/>
      <point x="403.9319005237427" y="122.0" type="curve" smooth="yes"/>
      <point x="487.4666292600614" y="515.0" type="line"/>
      <point x="399.4666292600614" y="515.0" type="line"/>
      <point x="311.2556561670022" y="100.0" type="line"/>
    </contour>
    <contour>
      <point x="303.2540726983914" y="514.0" type="move" name="top"/>
    </contour>
    <contour>
      <point x="307.0" y="0.0" type="move" name="ogonek"/>
    </contour>
    <contour>
      <point x="194.0" y="0.0" type="move" name="bottom"/>
    </contour>
  </outline>
</glyph>
<glyph name="v" format="1">
  <advance width="424"/>
  <unicode hex="0076"/>
  <outline>
    <contour>
      <point x="56.466629260061396" y="515.0" type="line"/>
      <point x="114.0" y="0.0" type="line"/>
      <point x="168.0" y="0.0" type="line"/>
      <point x="186.9803167969821" y="94.0" type="line"/>
      <point x="148.46662926006138" y="515.0" type="line"/>
    </contour>
    <contour>
      <point x="160.9803167969821" y="94.0" type="line"/>
      <point x="142.0" y="0.0" type="line"/>
      <point x="190.0" y="0.0" type="line"/>
      <point x="466.4666292600614" y="515.0" type="line"/>
      <point x="377.4666292600614" y="515.0" type="line"/>
    </contour>
  </outline>
</glyph>
<glyph name="w" format="1">
  <advance width="644"/>
  <unicode hex="0077"/>
  <outline>
    <contour>
      <point x="59.466629260061396" y="515.0" type="line"/>
      <point x="92.0" y="0.0" type="line"/>
      <point x="146.0" y="0.0" type="line"/>
      <point x="166.76776023531207" y="93.0" type="line"/>
      <point x="151.46662926006138" y="515.0" type="line"/>
    </contour>
    <contour>
      <point x="137.76776023531207" y="93.0" type="line"/>
      <point x="120.0" y="0.0" type="line"/>
      <point x="164.0" y="0.0" type="line"/>
      <point x="363.7858599697191" y="413.0" type="line"/>
      <point x="385.4666292600614" y="515.0" type="line"/>
      <point x="336.4666292600614" y="515.0" type="line"/>
    </contour>
    <contour>
      <point x="334.7858599697191" y="413.0" type="line"/>
      <point x="359.0" y="0.0" type="line"/>
      <point x="410.0" y="0.0" type="line"/>
      <point x="429.76776023531204" y="93.0" type="line"/>
      <point x="409.4666292600614" y="515.0" type="line"/>
      <point x="356.4666292600614" y="515.0" type="line"/>
    </contour>
    <contour>
      <point x="400.76776023531204" y="93.0" type="line"/>
      <point x="383.0" y="0.0" type="line"/>
      <point x="431.0" y="0.0" type="line"/>
      <point x="682.4666292600614" y="515.0" type="line"/>
      <point x="594.4666292600614" y="515.0" type="line"/>
    </contour>
    <contour>
      <point x="371.2540726983914" y="514.0" type="move" name="top"/>
    </contour>
  </outline>
</glyph>
<glyph name="x" format="1">
  <advance width="442"/>
  <unicode hex="0078"/>
  <outline>
    <contour>
      <point x="-42.0" y="0.0" type="line"/>
      <point x="55.0" y="0.0" type="line"/>
      <point x="213.06199107404467" y="212.0" type="line"/>
      <point x="250.07635760915542" y="245.0" type="line"/>
      <point x="463.4666292600614" y="515.0" type="line"/>
      <point x="368.4666292600614" y="515.0" type="line"/>
      <point x="218.74276036438698" y="314.0" type="line"/>
      <point x="181.15350695261625" y="283.0" type="line"/>
    </contour>
    <contour>
      <point x="73.46662926006138" y="515.0" type="line"/>
      <point x="181.73823543078518" y="234.0" type="line"/>
      <point x="183.67545262243507" y="229.0" type="line"/>
      <point x="266.0" y="0.0" type="line"/>
      <point x="364.0" y="0.0" type="line"/>
      <point x="251.70418569265655" y="295.0" type="line"/>
      <point x="249.76696850100666" y="300.0" type="line"/>
      <point x="171.46662926006138" y="515.0" type="line"/>
    </contour>
  </outline>
</glyph>
<glyph name="y" format="1">
  <advance width="424"/>
  <unicode hex="0079"/>
  <outline>
    <contour>
      <point x="56.466629260061396" y="515.0" type="line"/>
      <point x="117.0" y="0.0" type="line"/>
      <point x="169.0" y="0.0" type="line"/>
      <point x="188.130090550302" y="90.0" type="line"/>
      <point x="148.46662926006138" y="515.0" type="line"/>
    </contour>
    <contour>
      <point x="-80.3229639089541" y="-185.0" type="line"/>
      <point x="-64.59830327897423" y="-191.0"/>
      <point x="-47.448529525654315" y="-195.0"/>
      <point x="-27.448529525654315" y="-195.0" type="curve" smooth="yes"/>
      <point x="40.55147047434568" y="-195.0"/>
      <point x="107.47884606448662" y="-153.0"/>
      <point x="175.04841627323938" y="-28.0" type="curve" smooth="yes"/>
      <point x="466.4666292600614" y="515.0" type="line"/>
      <point x="377.4666292600614" y="515.0" type="line"/>
      <point x="161.130090550302" y="90.0" type="line"/>
      <point x="121.46368779507046" y="21.0" type="line"/>
      <point x="61.44479632635796" y="-92.0"/>
      <point x="24.918325722937396" y="-118.0"/>
      <point x="-15.08167427706261" y="-118.0" type="curve" smooth="yes"/>
      <point x="-29.08167427706261" y="-118.0"/>
      <point x="-39.86911771539259" y="-117.0"/>
      <point x="-53.23144803038252" y="-114.0" type="curve"/>
    </contour>
    <contour>
      <point x="263.2540726983914" y="514.0" type="move" name="top"/>
    </contour>
  </outline>
</glyph>
<glyph name="z" format="1">
  <advance width="424"/>
  <unicode hex="007A"/>
  <outline>
    <contour>
      <point x="-8.671719423138718" y="58.0" type="line"/>
      <point x="37.0" y="0.0" type="line" smooth="yes"/>
      <point x="414.1383486832001" y="457.0" type="line"/>
      <point x="368.4666292600614" y="515.0" type="line"/>
    </contour>
    <contour>
      <point x="-21.0" y="0.0" type="line"/>
      <point x="325.0" y="0.0" type="line"/>
      <point x="341.3668552485917" y="77.0" type="line"/>
      <point x="37.366855248591705" y="77.0" type="line"/>
      <point x="-8.671719423138718" y="58.0" type="line"/>
    </contour>
    <contour>
      <point x="81.09977401146969" y="438.0" type="line"/>
      <point x="367.09977401146966" y="438.0" type="line"/>
      <point x="414.1383486832001" y="457.0" type="line"/>
      <point x="426.4666292600614" y="515.0" type="line"/>
      <point x="97.46662926006138" y="515.0" type="line"/>
    </contour>
    <contour>
      <point x="261.2540726983914" y="514.0" type="move" name="top"/>
    </contour>
  </outline>
</glyph>
<glyph name="braceleft" format="1">
  <advance width="296"/>
  <unicode hex="007B"/>
  <outline>
    <contour>
      <point x="46.375905115795234" y="237.0" type="line"/>
      <point x="117.63687795070464" y="210.0"/>
      <point x="139.62251141559392" y="177.0"/>
      <point x="131.12024894879303" y="137.0" type="curve" smooth="yes"/>
      <point x="115.17850682354137" y="62.0"/>
      <point x="34.76323530171028" y="13.0"/>
      <point x="14.782918504728201" y="-81.0" type="curve" smooth="yes"/>
      <point x="-3.071832675553651" y="-165.0"/>
      <point x="38.324547377564926" y="-229.0"/>
      <point x="143.86085958249447" y="-250.0" type="curve"/>
      <point x="173.55147047434568" y="-195.0" type="line"/>
      <point x="97.71561076277632" y="-166.0"/>
      <point x="87.00531666790718" y="-127.0"/>
      <point x="96.57036194305817" y="-82.0" type="curve" smooth="yes"/>
      <point x="112.29954750663981" y="-8.0"/>
      <point x="188.90316745352123" y="56.0"/>
      <point x="206.120248948793" y="137.0" type="curve" smooth="yes"/>
      <point x="218.4485295256543" y="195.0"/>
      <point x="193.9507919924552" y="235.0"/>
      <point x="126.96515852756593" y="268.0" type="curve"/>
      <point x="207.97952506267666" y="301.0"/>
      <point x="249.48178752947751" y="341.0"/>
      <point x="262.02262466800886" y="400.0" type="curve" smooth="yes"/>
      <point x="279.23970616328063" y="481.0"/>
      <point x="229.41821298682203" y="543.0"/>
      <point x="245.14739855040364" y="617.0" type="curve" smooth="yes"/>
      <point x="254.71244382555466" y="662.0"/>
      <point x="282.0021497306855" y="701.0"/>
      <point x="370.16629001911616" y="730.0" type="curve"/>
      <point x="363.8569009109674" y="785.0" type="line"/>
      <point x="249.3932131158969" y="764.0"/>
      <point x="180.7895931690155" y="700.0"/>
      <point x="162.93484198873364" y="616.0" type="curve" smooth="yes"/>
      <point x="142.95452519175154" y="522.0"/>
      <point x="204.75181023159047" y="474.0"/>
      <point x="188.81006810633883" y="399.0" type="curve" smooth="yes"/>
      <point x="180.30780563953795" y="359.0"/>
      <point x="143.2934391044272" y="326.0"/>
      <point x="59.55441193933662" y="299.0" type="curve"/>
    </contour>
  </outline>
</glyph>
<glyph name="bar" format="1">
  <advance width="243"/>
  <unicode hex="007C"/>
  <outline>
    <contour>
      <point x="-23.69966075905476" y="-215.0" type="line"/>
      <point x="55.30033924094525" y="-215.0" type="line"/>
      <point x="254.0407244024159" y="720.0" type="line"/>
      <point x="175.04072440241592" y="720.0" type="line"/>
    </contour>
  </outline>
</glyph>
<glyph name="braceright" format="1">
  <advance width="296"/>
  <unicode hex="007D"/>
  <outline>
    <contour>
      <point x="-80.66108608732434" y="-196.0" type="curve"/>
      <point x="-74.35169697917556" y="-251.0" type="line"/>
      <point x="40.11199081589491" y="-230.0"/>
      <point x="108.71561076277632" y="-166.0"/>
      <point x="126.57036194305817" y="-82.0" type="curve" smooth="yes"/>
      <point x="146.55067874004027" y="12.0"/>
      <point x="86.96595026187134" y="61.0"/>
      <point x="102.907692387123" y="136.0" type="curve" smooth="yes"/>
      <point x="111.40995485392389" y="176.0"/>
      <point x="147.42432138903462" y="209.0"/>
      <point x="230.1633485541252" y="236.0" type="curve"/>
      <point x="243.3418553776666" y="298.0" type="line"/>
      <point x="172.0808825427572" y="325.0"/>
      <point x="150.09524907786792" y="358.0"/>
      <point x="158.5975115446688" y="398.0" type="curve" smooth="yes"/>
      <point x="174.53925366992047" y="473.0"/>
      <point x="254.74196863008154" y="521.0"/>
      <point x="274.72228542706364" y="615.0" type="curve" smooth="yes"/>
      <point x="292.57703660734546" y="699.0"/>
      <point x="251.18065655422686" y="763.0"/>
      <point x="145.64434434929734" y="784.0" type="curve"/>
      <point x="115.95373345744613" y="729.0" type="line"/>
      <point x="191.7895931690155" y="700.0"/>
      <point x="202.4998872638846" y="661.0"/>
      <point x="192.93484198873364" y="616.0" type="curve" smooth="yes"/>
      <point x="177.20565642515197" y="542.0"/>
      <point x="101.02714960161063" y="480.0"/>
      <point x="83.81006810633883" y="399.0" type="curve" smooth="yes"/>
      <point x="71.26923096780752" y="340.0"/>
      <point x="95.76696850100663" y="300.0"/>
      <point x="162.7526019658959" y="267.0" type="curve"/>
      <point x="81.73823543078518" y="234.0"/>
      <point x="40.235972963984295" y="194.0"/>
      <point x="27.907692387123006" y="136.0" type="curve" smooth="yes"/>
      <point x="10.690610891851222" y="55.0"/>
      <point x="60.0869909449698" y="-9.0"/>
      <point x="44.35780538138816" y="-83.0" type="curve" smooth="yes"/>
      <point x="34.79276010623717" y="-128.0"/>
      <point x="7.503054201106295" y="-167.0"/>
    </contour>
  </outline>
</glyph>
<glyph name="asciitilde" format="1">
  <advance width="500"/>
  <unicode hex="007E"/>
  <outline>
    <contour>
      <point x="68.19208162434668" y="302.0" type="curve"/>
      <point x="134.19208162434668" y="302.0" type="line"/>
      <point x="154.945475324548" y="362.0"/>
      <point x="174.19660655794846" y="382.0"/>
      <point x="195.19660655794846" y="382.0" type="curve"/>
      <point x="237.19660655794848" y="382.0"/>
      <point x="255.06651600764644" y="292.0"/>
      <point x="332.06651600764644" y="292.0" type="curve" smooth="yes"/>
      <point x="394.06651600764644" y="292.0"/>
      <point x="450.39479658450773" y="350.0"/>
      <point x="472.7132355598601" y="455.0" type="curve"/>
      <point x="411.7132355598601" y="455.0" type="line"/>
      <point x="390.7472852979887" y="394.0"/>
      <point x="371.70871062625827" y="375.0"/>
      <point x="349.70871062625827" y="375.0" type="curve"/>
      <point x="309.70871062625827" y="375.0"/>
      <point x="290.8388011765603" y="465.0"/>
      <point x="213.8388011765603" y="465.0" type="curve" smooth="yes"/>
      <point x="148.8388011765603" y="465.0"/>
      <point x="90.08540747635897" y="405.0"/>
    </contour>
  </outline>
</glyph>
<glyph name="exclamdown" format="1">
  <advance width="278"/>
  <unicode hex="00A1"/>
  <outline>
    <contour>
      <point x="-7.322963908954094" y="-185.0" type="line"/>
      <point x="86.67703609104592" y="-185.0" type="line"/>
      <point x="126.0" y="0.0" type="line"/>
      <point x="177.46742099436682" y="308.0" type="line"/>
      <point x="111.46742099436682" y="308.0" type="line"/>
      <point x="32.0" y="0.0" type="line"/>
    </contour>
    <contour>
      <point x="118.83880117656031" y="465.0" type="curve" smooth="yes"/>
      <point x="111.82443464144956" y="432.0"/>
      <point x="132.29796403802897" y="406.0"/>
      <point x="165.29796403802897" y="406.0" type="curve" smooth="yes"/>
      <point x="197.29796403802897" y="406.0"/>
      <point x="229.82443464144956" y="432.0"/>
      <point x="236.8388011765603" y="465.0" type="curve" smooth="yes"/>
      <point x="243.640611150001" y="497.0"/>
      <point x="222.3796383150916" y="524.0"/>
      <point x="190.3796383150916" y="524.0" type="curve" smooth="yes"/>
      <point x="157.3796383150916" y="524.0"/>
      <point x="125.640611150001" y="497.0"/>
    </contour>
  </outline>
</glyph>
<glyph name="cent" format="1">
  <advance width="500"/>
  <unicode hex="00A2"/>
  <outline>
    <contour>
      <point x="155.7443438329978" y="-100.0" type="line"/>
      <point x="231.7443438329978" y="-100.0" type="line"/>
      <point x="315.70418569265655" y="295.0" type="line"/>
      <point x="239.70418569265655" y="295.0" type="line"/>
    </contour>
    <contour>
      <point x="233.32748884255585" y="265.0" type="line"/>
      <point x="309.32748884255585" y="265.0" type="line"/>
      <point x="400.72681036066535" y="695.0" type="line"/>
      <point x="324.72681036066535" y="695.0" type="line"/>
    </contour>
    <contour>
      <point x="79.4916291309865" y="294.0" type="curve" smooth="yes"/>
      <point x="42.9319005237427" y="122.0"/>
      <point x="117.37669685010067" y="30.0"/>
      <point x="237.37669685010064" y="30.0" type="curve" smooth="yes"/>
      <point x="302.37669685010064" y="30.0"/>
      <point x="359.69061089185124" y="55.0"/>
      <point x="399.917533988632" y="89.0" type="curve"/>
      <point x="365.2458145654933" y="147.0" type="line"/>
      <point x="339.20723989376285" y="128.0"/>
      <point x="302.59377834537247" y="111.0"/>
      <point x="263.59377834537247" y="111.0" type="curve" smooth="yes"/>
      <point x="191.59377834537247" y="111.0"/>
      <point x="144.19739829225387" y="175.0"/>
      <point x="169.4916291309865" y="294.0" type="curve" smooth="yes"/>
      <point x="196.0611993397393" y="419.0"/>
      <point x="270.87737584829074" y="484.0"/>
      <point x="340.87737584829074" y="484.0" type="curve" smooth="yes"/>
      <point x="374.87737584829074" y="484.0"/>
      <point x="397.2639142999003" y="467.0"/>
      <point x="414.0127830664999" y="447.0" type="curve"/>
      <point x="475.55362020503117" y="506.0" type="line"/>
      <point x="451.630769548492" y="544.0"/>
      <point x="407.88190078189245" y="564.0"/>
      <point x="354.88190078189245" y="564.0" type="curve" smooth="yes"/>
      <point x="231.88190078189245" y="564.0"/>
      <point x="115.20113149155023" y="462.0"/>
    </contour>
  </outline>
</glyph>
<glyph name="sterling" format="1">
  <advance width="500"/>
  <unicode hex="00A3"/>
  <outline>
    <contour>
      <point x="-10.0" y="0.0" type="line"/>
      <point x="384.0" y="0.0" type="line"/>
      <point x="400.5794118102617" y="78.0" type="line"/>
      <point x="6.579411810261718" y="78.0" type="line"/>
    </contour>
    <contour>
      <point x="-5.11119908158949" y="23.0" type="line"/>
      <point x="84.77760183682102" y="46.0"/>
      <point x="187.33280551046306" y="138.0"/>
      <point x="213.4772625958758" y="261.0" type="curve"/>
      <point x="233.24502283118784" y="354.0"/>
      <point x="214.93563372303902" y="409.0"/>
      <point x="232.5778283416509" y="492.0" type="curve"/>
      <point x="249.15724015191262" y="570.0"/>
      <point x="297.72228542706364" y="615.0"/>
      <point x="360.72228542706364" y="615.0" type="curve" smooth="yes"/>
      <point x="410.67374173774317" y="615.0"/>
      <point x="438.522791770161" y="580.2413793103448"/>
      <point x="450.418212986822" y="543.0" type="curve"/>
      <point x="526.1088238786732" y="598.0" type="line"/>
      <point x="502.1909245047582" y="656.8461538461538"/>
      <point x="455.71267009209237" y="700.0"/>
      <point x="376.78959316901546" y="700.0" type="curve" smooth="yes"/>
      <point x="272.78959316901546" y="700.0"/>
      <point x="173.6980772904439" y="629.0"/>
      <point x="147.12850708169117" y="504.0" type="curve" smooth="yes"/>
      <point x="127.57330340804913" y="412.0"/>
      <point x="150.3631951761778" y="363.9652173913044"/>
      <point x="128.26470603420574" y="260.0" type="curve" smooth="yes"/>
      <point x="115.6094153624675" y="200.46153846153845"/>
      <point x="76.85189522086495" y="129.0"/>
      <point x="8.704977426961946" y="88.0" type="curve"/>
    </contour>
    <contour>
      <point x="53.12929881599658" y="297.0" type="line"/>
      <point x="361.12929881599655" y="297.0" type="line"/>
      <point x="377.70871062625827" y="375.0" type="line"/>
      <point x="69.7087106262583" y="375.0" type="line"/>
    </contour>
  </outline>
</glyph>
<glyph name="currency" format="1">
  <advance width="500"/>
  <unicode hex="00A4"/>
  <outline>
    <contour>
      <point x="62.75712689949768" y="347.0" type="curve" smooth="yes"/>
      <point x="35.33733044406483" y="218.0"/>
      <point x="109.51817136412157" y="138.0"/>
      <point x="219.33280551046306" y="138.0" type="curve" smooth="yes"/>
      <point x="331.1192132774534" y="138.0"/>
      <point x="438.33733044406483" y="218.0"/>
      <point x="465.75712689949773" y="347.0" type="curve" smooth="yes"/>
      <point x="492.5392536699205" y="473.0"/>
      <point x="419.5427429321826" y="554.0"/>
      <point x="307.75633516519224" y="554.0" type="curve" smooth="yes"/>
      <point x="197.94170101885078" y="554.0"/>
      <point x="89.53925366992047" y="473.0"/>
    </contour>
    <contour>
      <point x="146.33201377615762" y="345.0" type="curve" smooth="yes"/>
      <point x="164.3993215181095" y="430.0"/>
      <point x="228.26582754303308" y="472.0"/>
      <point x="290.3266971082504" y="472.0" type="curve" smooth="yes"/>
      <point x="353.3865261680795" y="472.0"/>
      <point x="400.3993215181095" y="430.0"/>
      <point x="382.3320137761576" y="345.0" type="curve" smooth="yes"/>
      <point x="364.9023757192158" y="263.0"/>
      <point x="299.82227262723393" y="220.0"/>
      <point x="236.7624435674049" y="220.0" type="curve" smooth="yes"/>
      <point x="174.70157400218747" y="220.0"/>
      <point x="128.90237571921583" y="263.0"/>
    </contour>
    <contour>
      <point x="-4.029524804526879" y="141.0" type="line"/>
      <point x="39.91753398863197" y="89.0" type="line"/>
      <point x="124.28438923722368" y="166.0" type="line"/>
      <point x="80.54988700573483" y="219.0" type="line"/>
    </contour>
    <contour>
      <point x="326.28438923722365" y="166.0" type="line"/>
      <point x="377.917533988632" y="89.0" type="line"/>
      <point x="443.9704751954731" y="141.0" type="line"/>
      <point x="392.54988700573483" y="219.0" type="line"/>
    </contour>
    <contour>
      <point x="82.69355235684213" y="549.0" type="line"/>
      <point x="134.11414054658042" y="471.0" type="line"/>
      <point x="200.3796383150916" y="524.0" type="line"/>
      <point x="148.74649356368332" y="601.0" type="line"/>
    </contour>
    <contour>
      <point x="402.3796383150916" y="524.0" type="line"/>
      <point x="446.1141405465804" y="471.0" type="line"/>
      <point x="530.6935523568421" y="549.0" type="line"/>
      <point x="486.7464935636833" y="601.0" type="line"/>
    </contour>
  </outline>
</glyph>
<glyph name="yen" format="1">
  <advance width="500"/>
  <unicode hex="00A5"/>
  <outline>
    <contour>
      <point x="96.66402755231528" y="690.0" type="line"/>
      <point x="205.04230787102676" y="306.0" type="line"/>
      <point x="270.04230787102676" y="306.0" type="line"/>
      <point x="280.8199097078478" y="352.0" type="line"/>
      <point x="193.66402755231528" y="690.0" type="line"/>
    </contour>
    <contour>
      <point x="53.07183267555365" y="165.0" type="line"/>
      <point x="397.07183267555365" y="165.0" type="line"/>
      <point x="413.0135748008053" y="240.0" type="line"/>
      <point x="69.01357480080532" y="240.0" type="line"/>
    </contour>
    <contour>
      <point x="82.82975130935677" y="305.0" type="line"/>
      <point x="426.82975130935677" y="305.0" type="line"/>
      <point x="442.5589368729384" y="379.0" type="line"/>
      <point x="98.55893687293838" y="379.0" type="line"/>
    </contour>
    <contour>
      <point x="147.0" y="0.0" type="line"/>
      <point x="233.0" y="0.0" type="line"/>
      <point x="301.44321285774714" y="322.0" type="line"/>
      <point x="215.44321285774714" y="322.0" type="line"/>
    </contour>
    <contour>
      <point x="251.81990970784778" y="352.0" type="line"/>
      <point x="244.04230787102676" y="306.0" type="line"/>
      <point x="306.04230787102676" y="306.0" type="line"/>
      <point x="576.6640275523152" y="690.0" type="line"/>
      <point x="482.66402755231525" y="690.0" type="line"/>
    </contour>
  </outline>
</glyph>
<glyph name="brokenbar" format="1">
  <advance width="243"/>
  <unicode hex="00A6"/>
  <outline>
    <contour>
      <point x="-23.69966075905476" y="-215.0" type="line"/>
      <point x="55.30033924094525" y="-215.0" type="line"/>
      <point x="132.88348425050333" y="150.0" type="line"/>
      <point x="53.883484250503315" y="150.0" type="line"/>
    </contour>
    <contour>
      <point x="97.45757939285784" y="355.0" type="line"/>
      <point x="176.45757939285784" y="355.0" type="line"/>
      <point x="254.0407244024159" y="720.0" type="line"/>
      <point x="175.04072440241592" y="720.0" type="line"/>
    </contour>
  </outline>
</glyph>
<glyph name="section" format="1">
  <advance width="496"/>
  <unicode hex="00A7"/>
  <outline>
    <contour>
      <point x="-47.50678740040266" y="-120.0" type="line"/>
      <point x="-5.922058922233752" y="-169.0"/>
      <point x="58.338913912675665" y="-196.0"/>
      <point x="128.33891391267565" y="-196.0" type="curve" smooth="yes"/>
      <point x="244.33891391267565" y="-196.0"/>
      <point x="337.2806560379273" y="-121.0"/>
      <point x="356.83585971156936" y="-29.0" type="curve" smooth="yes"/>
      <point x="373.8403846451711" y="51.0"/>
      <point x="337.197946724543" y="108.64390243902439"/>
      <point x="222.98484173058387" y="174.0" type="curve" smooth="yes"/>
      <point x="135.40011325241494" y="223.0"/>
      <point x="116.35561797044781" y="255.72307692307692"/>
      <point x="126.19208162434668" y="302.0" type="curve" smooth="yes"/>
      <point x="136.4201009370875" y="350.1190476190476"/>
      <point x="176.04683280462854" y="386.0"/>
      <point x="232.4719459279686" y="388.0" type="curve"/>
      <point x="176.58766994315985" y="445.0" type="line"/>
      <point x="104.57330340804913" y="412.0"/>
      <point x="46.88269251619789" y="357.0"/>
      <point x="32.216289760966376" y="288.0" type="curve" smooth="yes"/>
      <point x="15.636877950704644" y="210.0"/>
      <point x="47.58393674386349" y="158.0"/>
      <point x="175.2798643036219" y="86.0" type="curve" smooth="yes"/>
      <point x="250.94432474268325" y="42.0"/>
      <point x="274.1883484250503" y="15.0"/>
      <point x="264.4107465882293" y="-31.0" type="curve" smooth="yes"/>
      <point x="254.84570131307834" y="-76.0"/>
      <point x="212.76855196961748" y="-114.0"/>
      <point x="146.76855196961748" y="-114.0" type="curve" smooth="yes"/>
      <point x="91.76855196961748" y="-114.0"/>
      <point x="48.44479632635796" y="-92.0"/>
      <point x="17.159615354828873" y="-51.0" type="curve"/>
    </contour>
    <contour>
      <point x="126.71776049346184" y="535.0" type="curve" smooth="yes"/>
      <point x="109.50067899819004" y="454.0"/>
      <point x="144.11162494066576" y="396.0"/>
      <point x="260.1436653511073" y="330.0" type="curve" smooth="yes"/>
      <point x="346.9409503909462" y="282.0"/>
      <point x="366.77288911124333" y="248.27692307692308"/>
      <point x="356.93642545734446" y="202.0" type="curve" smooth="yes"/>
      <point x="346.70840614460366" y="153.88095238095238"/>
      <point x="307.08167427706263" y="118.0"/>
      <point x="250.65656115372258" y="116.0" type="curve"/>
      <point x="307.5408371385313" y="59.0" type="line"/>
      <point x="379.55520367364204" y="92.0"/>
      <point x="436.2458145654933" y="147.0"/>
      <point x="450.9122173207248" y="216.0" type="curve" smooth="yes"/>
      <point x="467.27907256931644" y="293.0"/>
      <point x="435.96968346116773" y="348.0"/>
      <point x="308.84864277806923" y="418.0" type="curve" smooth="yes"/>
      <point x="232.19272813020564" y="462.0"/>
      <point x="209.36527177998084" y="491.0"/>
      <point x="219.14287361680186" y="537.0" type="curve" smooth="yes"/>
      <point x="228.28280576861283" y="580.0"/>
      <point x="271.35995511207364" y="618.0"/>
      <point x="342.35995511207364" y="618.0" type="curve" smooth="yes"/>
      <point x="394.35995511207364" y="618.0"/>
      <point x="437.6837107553332" y="596.0"/>
      <point x="466.96889172686224" y="555.0" type="curve"/>
      <point x="530.6352944820937" y="624.0" type="line"/>
      <point x="490.0505660039249" y="673.0"/>
      <point x="434.78959316901546" y="700.0"/>
      <point x="360.78959316901546" y="700.0" type="curve" smooth="yes"/>
      <point x="238.78959316901552" y="700.0"/>
      <point x="146.06040760543385" y="626.0"/>
    </contour>
  </outline>
</glyph>
<glyph name="dieresis" format="1">
  <advance width="500"/>
  <unicode hex="00A8"/>
  <outline>
    <contour>
      <point x="195.0505660039249" y="673.0" type="curve" smooth="yes"/>
      <point x="188.67386915382423" y="643.0"/>
      <point x="207.5725116737437" y="619.0"/>
      <point x="237.5725116737437" y="619.0" type="curve" smooth="yes"/>
      <point x="267.5725116737437" y="619.0"/>
      <point x="296.6738691538242" y="643.0"/>
      <point x="303.0505660039249" y="673.0" type="curve" smooth="yes"/>
      <point x="309.42726285402557" y="703.0"/>
      <point x="290.5286203341061" y="727.0"/>
      <point x="260.5286203341061" y="727.0" type="curve" smooth="yes"/>
      <point x="230.5286203341061" y="727.0"/>
      <point x="201.42726285402557" y="703.0"/>
    </contour>
    <contour>
      <point x="363.0505660039249" y="673.0" type="curve" smooth="yes"/>
      <point x="356.6738691538242" y="643.0"/>
      <point x="375.5725116737437" y="619.0"/>
      <point x="405.5725116737437" y="619.0" type="curve" smooth="yes"/>
      <point x="435.5725116737437" y="619.0"/>
      <point x="464.67386915382417" y="643.0"/>
      <point x="471.0505660039249" y="673.0" type="curve" smooth="yes"/>
      <point x="477.42726285402557" y="703.0"/>
      <point x="458.5286203341061" y="727.0"/>
      <point x="428.5286203341061" y="727.0" type="curve" smooth="yes"/>
      <point x="398.5286203341061" y="727.0"/>
      <point x="369.42726285402557" y="703.0"/>
    </contour>
    <contour>
      <point x="299.2540726983914" y="514.0" type="move" name="_top"/>
    </contour>
  </outline>
</glyph>
<glyph name="copyright" format="1">
  <advance width="810"/>
  <unicode hex="00A9"/>
  <outline>
    <contour>
      <point x="342.8744343832998" y="-10.0" type="curve" smooth="yes"/>
      <point x="542.8744343832998" y="-10.0"/>
      <point x="730.8207014421532" y="145.0"/>
      <point x="773.3320137761576" y="345.0" type="curve" smooth="yes"/>
      <point x="815.843326110162" y="545.0"/>
      <point x="693.7895931690155" y="700.0"/>
      <point x="493.78959316901546" y="700.0" type="curve" smooth="yes"/>
      <point x="293.78959316901546" y="700.0"/>
      <point x="105.84332611016205" y="545.0"/>
      <point x="63.33201377615764" y="345.0" type="curve" smooth="yes"/>
      <point x="20.820701442153208" y="145.0"/>
      <point x="142.87443438329979" y="-10.0"/>
    </contour>
    <contour>
      <point x="357.75339370020134" y="60.0" type="curve" smooth="yes"/>
      <point x="197.75339370020134" y="60.0"/>
      <point x="101.32296390895408" y="185.0"/>
      <point x="135.33201377615762" y="345.0" type="curve" smooth="yes"/>
      <point x="169.34106364336117" y="505.0"/>
      <point x="318.91063385211396" y="630.0"/>
      <point x="478.91063385211396" y="630.0" type="curve" smooth="yes"/>
      <point x="638.910633852114" y="630.0"/>
      <point x="735.3410636433612" y="505.0"/>
      <point x="701.3320137761576" y="345.0" type="curve" smooth="yes"/>
      <point x="667.3229639089541" y="185.0"/>
      <point x="517.7533937002013" y="60.0"/>
    </contour>
    <contour>
      <point x="229.33201377615762" y="345.0" type="curve" smooth="yes"/>
      <point x="200.63687795070462" y="210.0"/>
      <point x="270.695135825453" y="135.0"/>
      <point x="373.695135825453" y="135.0" type="curve" smooth="yes"/>
      <point x="425.695135825453" y="135.0"/>
      <point x="473.94626705885344" y="155.0"/>
      <point x="517.5983032789742" y="191.0" type="curve"/>
      <point x="481.22613136247537" y="241.0" type="line"/>
      <point x="454.12477388239483" y="217.0"/>
      <point x="423.5740951423545" y="205.0"/>
      <point x="389.5740951423545" y="205.0" type="curve" smooth="yes"/>
      <point x="323.5740951423545" y="205.0"/>
      <point x="283.98936666418564" y="254.0"/>
      <point x="303.3320137761576" y="345.0" type="curve" smooth="yes"/>
      <point x="322.67466088812967" y="436.0"/>
      <point x="383.08993240996074" y="485.0"/>
      <point x="449.08993240996074" y="485.0" type="curve" smooth="yes"/>
      <point x="479.08993240996074" y="485.0"/>
      <point x="502.7518102315905" y="474.0"/>
      <point x="520.65045275151" y="450.0" type="curve"/>
      <point x="578.2782808350111" y="500.0" type="line"/>
      <point x="549.7177604934618" y="535.0"/>
      <point x="510.96889172686224" y="555.0"/>
      <point x="462.96889172686224" y="555.0" type="curve" smooth="yes"/>
      <point x="359.9688917268623" y="555.0"/>
      <point x="258.02714960161063" y="480.0"/>
    </contour>
  </outline>
</glyph>
<glyph name="ordfeminine" format="1">
  <advance width="370"/>
  <unicode hex="00AA"/>
  <outline>
    <contour>
      <point x="64.95984185965874" y="395.0" type="curve" smooth="yes"/>
      <point x="49.86832598108717" y="324.0"/>
      <point x="89.5158372676062" y="280.0"/>
      <point x="151.5158372676062" y="280.0" type="curve" smooth="yes"/>
      <point x="189.5158372676062" y="280.0"/>
      <point x="234.19208162434666" y="302.0"/>
      <point x="264.56877847444736" y="332.0" type="curve"/>
      <point x="277.3221721746487" y="392.0" type="line"/>
      <point x="246.8738426839767" y="365.0"/>
      <point x="211.18224002283773" y="349.0"/>
      <point x="183.18224002283773" y="349.0" type="curve" smooth="yes"/>
      <point x="149.55959851340378" y="349.0"/>
      <point x="133.0082581328981" y="367.0"/>
      <point x="139.81006810633883" y="399.0" type="curve" smooth="yes"/>
      <point x="146.435207690859" y="430.16883116883116"/>
      <point x="181.3025609474767" y="467.18181818181813"/>
      <point x="279.75181023159047" y="474.0" type="curve"/>
      <point x="292.9643667932605" y="475.0" type="line"/>
      <point x="304.6549776851117" y="530.0" type="line"/>
      <point x="263.2298645617717" y="528.0" type="line" smooth="yes"/>
      <point x="136.74196863008154" y="521.0"/>
      <point x="79.20113149155023" y="462.0"/>
    </contour>
    <contour>
      <point x="136.3501135105647" y="665.0" type="curve"/>
      <point x="149.17160668702334" y="603.0" type="line"/>
      <point x="179.14739855040366" y="617.0"/>
      <point x="211.6980772904439" y="629.0"/>
      <point x="243.6980772904439" y="629.0" type="curve" smooth="yes"/>
      <point x="287.6980772904439" y="629.0"/>
      <point x="306.454909562418" y="599.6282051282051"/>
      <point x="295.9061089185122" y="550.0" type="curve" smooth="yes"/>
      <point x="256.7957015712281" y="366.0" type="line"/>
      <point x="254.2162897609664" y="288.0" type="line"/>
      <point x="323.2162897609664" y="288.0" type="line"/>
      <point x="324.65576941941714" y="323.0" type="line" smooth="yes"/>
      <point x="326.3320137761576" y="345.0"/>
      <point x="328.945475324548" y="362.0"/>
      <point x="333.6217196812885" y="384.0" type="curve" smooth="yes"/>
      <point x="370.81911797354235" y="559.0" type="line" smooth="yes"/>
      <point x="390.1617650855144" y="650.0"/>
      <point x="344.57703660734546" y="699.0"/>
      <point x="264.57703660734546" y="699.0" type="curve" smooth="yes"/>
      <point x="222.57703660734546" y="699.0"/>
      <point x="171.1761316206251" y="683.0"/>
    </contour>
  </outline>
</glyph>
<glyph name="guillemetleft" format="1">
  <advance width="430"/>
  <unicode hex="00AB"/>
  <outline>
    <contour>
      <point x="24.28891417082545" y="246.0" type="line"/>
      <point x="88.64219461861182" y="83.0" type="line"/>
      <point x="181.64219461861182" y="83.0" type="line"/>
      <point x="96.70418569265652" y="295.0" type="line"/>
      <point x="34.27907256931648" y="293.0" type="line"/>
    </contour>
    <contour>
      <point x="24.71402729416549" y="248.0" type="line"/>
      <point x="86.28891417082545" y="246.0" type="line"/>
      <point x="261.35090524487015" y="458.0" type="line"/>
      <point x="168.35090524487015" y="458.0" type="line"/>
      <point x="34.70418569265652" y="295.0" type="line"/>
    </contour>
    <contour>
      <point x="215.28891417082542" y="246.0" type="line"/>
      <point x="279.6421946186118" y="83.0" type="line"/>
      <point x="372.6421946186118" y="83.0" type="line"/>
      <point x="287.70418569265655" y="295.0" type="line"/>
      <point x="225.2790725693165" y="293.0" type="line"/>
    </contour>
    <contour>
      <point x="215.71402729416548" y="248.0" type="line"/>
      <point x="277.2889141708254" y="246.0" type="line"/>
      <point x="452.3509052448701" y="458.0" type="line"/>
      <point x="359.35090524487015" y="458.0" type="line"/>
      <point x="225.70418569265655" y="295.0" type="line"/>
    </contour>
  </outline>
</glyph>
<glyph name="logicalnot" format="1">
  <advance width="500"/>
  <unicode hex="00AC"/>
  <outline>
    <contour>
      <point x="50.564253540845584" y="252.0" type="line"/>
      <point x="436.5642535408456" y="252.0" type="line"/>
      <point x="452.7185522277673" y="328.0" type="line"/>
      <point x="66.71855222776726" y="328.0" type="line"/>
    </contour>
    <contour>
      <point x="320.02873307022145" y="66.0" type="line"/>
      <point x="397.02873307022145" y="66.0" type="line"/>
      <point x="452.7185522277673" y="328.0" type="line"/>
      <point x="375.71855222776725" y="328.0" type="line"/>
    </contour>
  </outline>
</glyph>
<glyph name="registered" format="1">
  <advance width="810"/>
  <unicode hex="00AE"/>
  <outline>
    <contour>
      <point x="342.8744343832998" y="-10.0" type="curve" smooth="yes"/>
      <point x="542.8744343832998" y="-10.0"/>
      <point x="730.8207014421532" y="145.0"/>
      <point x="773.3320137761576" y="345.0" type="curve" smooth="yes"/>
      <point x="815.843326110162" y="545.0"/>
      <point x="693.7895931690155" y="700.0"/>
      <point x="493.78959316901546" y="700.0" type="curve" smooth="yes"/>
      <point x="293.78959316901546" y="700.0"/>
      <point x="105.84332611016205" y="545.0"/>
      <point x="63.33201377615764" y="345.0" type="curve" smooth="yes"/>
      <point x="20.820701442153208" y="145.0"/>
      <point x="142.87443438329979" y="-10.0"/>
    </contour>
    <contour>
      <point x="357.75339370020134" y="60.0" type="curve" smooth="yes"/>
      <point x="197.75339370020134" y="60.0"/>
      <point x="101.32296390895408" y="185.0"/>
      <point x="135.33201377615762" y="345.0" type="curve" smooth="yes"/>
      <point x="169.34106364336117" y="505.0"/>
      <point x="318.91063385211396" y="630.0"/>
      <point x="478.91063385211396" y="630.0" type="curve" smooth="yes"/>
      <point x="638.910633852114" y="630.0"/>
      <point x="735.3410636433612" y="505.0"/>
      <point x="701.3320137761576" y="345.0" type="curve" smooth="yes"/>
      <point x="667.3229639089541" y="185.0"/>
      <point x="517.7533937002013" y="60.0"/>
    </contour>
    <contour>
      <point x="237.33280551046306" y="138.0" type="line"/>
      <point x="307.33280551046306" y="138.0" type="line"/>
      <point x="395.33122204185224" y="552.0" type="line"/>
      <point x="325.33122204185224" y="552.0" type="line"/>
    </contour>
    <contour>
      <point x="302.4916291309865" y="294.0" type="line"/>
      <point x="411.4916291309865" y="294.0" type="line" smooth="yes"/>
      <point x="492.49162913098655" y="294.0"/>
      <point x="568.0566744061375" y="339.0"/>
      <point x="585.9114255864193" y="423.0" type="curve" smooth="yes"/>
      <point x="603.5536202050312" y="506.0"/>
      <point x="547.3312220418522" y="552.0"/>
      <point x="466.33122204185224" y="552.0" type="curve" smooth="yes"/>
      <point x="357.33122204185224" y="552.0" type="line"/>
      <point x="344.5778283416509" y="492.0" type="line"/>
      <point x="449.5778283416509" y="492.0" type="line" smooth="yes"/>
      <point x="496.57782834165084" y="492.0"/>
      <point x="523.4764708615703" y="468.0"/>
      <point x="513.9114255864193" y="423.0" type="curve" smooth="yes"/>
      <point x="504.3463803112684" y="378.0"/>
      <point x="465.8199097078477" y="352.0"/>
      <point x="419.8199097078478" y="352.0" type="curve" smooth="yes"/>
      <point x="314.8199097078478" y="352.0" type="line"/>
    </contour>
    <contour>
      <point x="392.31764724104687" y="312.0" type="line"/>
      <point x="455.332805510463" y="138.0" type="line"/>
      <point x="537.332805510463" y="138.0" type="line"/>
      <point x="468.31764724104687" y="312.0" type="line"/>
    </contour>
  </outline>
</glyph>
<glyph name="macron" format="1">
  <advance width="500"/>
  <unicode hex="00AF"/>
  <outline>
    <contour>
      <point x="194.6980772904439" y="629.0" type="line"/>
      <point x="452.69807729044396" y="629.0" type="line"/>
      <point x="467.78959316901546" y="700.0" type="line"/>
      <point x="209.78959316901546" y="700.0" type="line"/>
    </contour>
    <contour>
      <point x="299.2540726983914" y="514.0" type="move" name="_top"/>
    </contour>
  </outline>
</glyph>
<glyph name="degree" format="1">
  <advance width="327"/>
  <unicode hex="00B0"/>
  <outline>
    <contour>
      <point x="93.51957046690256" y="567.0" type="curve" smooth="yes"/>
      <point x="76.72760209497079" y="488.0"/>
      <point x="124.13473556402184" y="433.0"/>
      <point x="196.03699120311956" y="433.0" type="curve" smooth="yes"/>
      <point x="268.93251359117926" y="433.0"/>
      <point x="339.7276020949708" y="488.0"/>
      <point x="356.51957046690256" y="567.0" type="curve" smooth="yes"/>
      <point x="373.0989822771643" y="645.0"/>
      <point x="325.68511555707516" y="700.0"/>
      <point x="252.78959316901546" y="700.0" type="curve" smooth="yes"/>
      <point x="180.88733752991774" y="700.0"/>
      <point x="110.09898227716428" y="645.0"/>
    </contour>
    <contour>
      <point x="168.3070139052325" y="566.0" type="curve" smooth="yes"/>
      <point x="176.17160668702334" y="603.0"/>
      <point x="207.27296416710385" y="627.0"/>
      <point x="237.27296416710385" y="627.0" type="curve" smooth="yes"/>
      <point x="268.27296416710385" y="627.0"/>
      <point x="289.2184411836625" y="603.2203389830509"/>
      <point x="281.3070139052325" y="566.0" type="curve" smooth="yes"/>
      <point x="273.61100046545585" y="529.7931034482758"/>
      <point x="242.55362020503117" y="506.0"/>
      <point x="211.55362020503117" y="506.0" type="curve" smooth="yes"/>
      <point x="181.5536202050312" y="506.0"/>
      <point x="160.65497768511173" y="530.0"/>
    </contour>
  </outline>
</glyph>
<glyph name="plusminus" format="1">
  <advance width="500"/>
  <unicode hex="00B1"/>
  <outline>
    <contour>
      <point x="6.028733070221463" y="66.0" type="line"/>
      <point x="402.02873307022145" y="66.0" type="line"/>
      <point x="416.907692387123" y="136.0" type="line"/>
      <point x="20.907692387123006" y="136.0" type="line"/>
    </contour>
    <contour>
      <point x="51.728393829276214" y="281.0" type="line"/>
      <point x="447.72839382927623" y="281.0" type="line"/>
      <point x="463.88269251619795" y="357.0" type="line"/>
      <point x="67.88269251619789" y="357.0" type="line"/>
    </contour>
    <contour>
      <point x="163.02873307022145" y="66.0" type="line"/>
      <point x="244.02873307022145" y="66.0" type="line"/>
      <point x="346.26843923350214" y="547.0" type="line"/>
      <point x="265.26843923350214" y="547.0" type="line"/>
    </contour>
  </outline>
</glyph>
<glyph name="twosuperior" format="1">
  <advance width="371"/>
  <unicode hex="00B2"/>
  <outline>
    <contour>
      <point x="63.641402884306416" y="290.0" type="line"/>
      <point x="305.64140288430644" y="290.0" type="line"/>
      <point x="320.09524907786795" y="358.0" type="line"/>
      <point x="127.09524907786792" y="358.0" type="line"/>
      <point x="75.75712689949768" y="347.0" type="line"/>
    </contour>
    <contour>
      <point x="75.75712689949768" y="347.0" type="line"/>
      <point x="105.64140288430642" y="290.0" type="line"/>
      <point x="242.54909527142945" y="426.0" type="line" smooth="yes"/>
      <point x="304.5150455333008" y="487.0"/>
      <point x="349.2254520699809" y="532.6838709677418"/>
      <point x="360.34558857696294" y="585.0" type="curve" smooth="yes"/>
      <point x="375.34065021746574" y="655.546218487395"/>
      <point x="334.78959316901546" y="700.0"/>
      <point x="265.78959316901546" y="700.0" type="curve" smooth="yes"/>
      <point x="217.78959316901546" y="700.0"/>
      <point x="172.113348812275" y="678.0"/>
      <point x="128.97341666046404" y="635.0" type="curve"/>
      <point x="162.55814513863297" y="586.0" type="line"/>
      <point x="190.36093927222456" y="613.3"/>
      <point x="216.4855207287739" y="628.0"/>
      <point x="242.4855207287739" y="628.0" type="curve" smooth="yes"/>
      <point x="273.06244380569694" y="628.0"/>
      <point x="291.2343894953734" y="608.0"/>
      <point x="284.6451360836028" y="577.0" type="curve" smooth="yes"/>
      <point x="277.205656425152" y="542.0"/>
      <point x="249.46662926006138" y="515.0"/>
      <point x="209.17692335493052" y="476.0" type="curve" smooth="yes"/>
    </contour>
  </outline>
</glyph>
<glyph name="threesuperior" format="1">
  <advance width="371"/>
  <unicode hex="00B3"/>
  <outline>
    <contour>
      <point x="57.63156128279746" y="337.0" type="line"/>
      <point x="85.12929881599658" y="297.0"/>
      <point x="121.5158372676062" y="280.0"/>
      <point x="171.5158372676062" y="280.0" type="curve" smooth="yes"/>
      <point x="245.6218978736668" y="280.0"/>
      <point x="315.50599566609725" y="327.0"/>
      <point x="333.36074684637913" y="411.0" type="curve" smooth="yes"/>
      <point x="349.3769746043527" y="486.35042735042737"/>
      <point x="308.01730800010165" y="527.0"/>
      <point x="230.01730800010165" y="527.0" type="curve"/>
      <point x="199.01730800010165" y="527.0" type="line"/>
      <point x="169.04151613672136" y="513.0" type="line"/>
      <point x="159.26391429990034" y="467.0" type="line"/>
      <point x="195.26391429990034" y="467.0" type="line" smooth="yes"/>
      <point x="248.2639142999003" y="467.0"/>
      <point x="266.74618670101546" y="445.74576271186436"/>
      <point x="259.1481902847091" y="410.0" type="curve" smooth="yes"/>
      <point x="250.85848437957821" y="371.0"/>
      <point x="218.61974002283773" y="349.0"/>
      <point x="183.18224002283773" y="349.0" type="curve" smooth="yes"/>
      <point x="151.18224002283773" y="349.0"/>
      <point x="127.37058844788805" y="364.0"/>
      <point x="109.68450248963859" y="389.0" type="curve"/>
    </contour>
    <contour>
      <point x="135.21018135875377" y="622.0" type="line"/>
      <point x="327.21018135875374" y="622.0" type="line"/>
      <point x="361.39852978380407" y="637.0" type="line"/>
      <point x="372.66402755231525" y="690.0" type="line"/>
      <point x="149.66402755231528" y="690.0" type="line"/>
    </contour>
    <contour>
      <point x="169.04151613672136" y="513.0" type="line"/>
      <point x="247.25407269839138" y="514.0" type="line"/>
      <point x="361.39852978380407" y="637.0" type="line"/>
      <point x="336.66402755231525" y="690.0" type="line"/>
    </contour>
  </outline>
</glyph>
<glyph name="acute" format="1">
  <advance width="500"/>
  <unicode hex="00B4"/>
  <outline>
    <contour>
      <point x="273.19581482364305" y="589.0" type="line"/>
      <point x="346.19581482364305" y="589.0" type="line"/>
      <point x="477.0792990741463" y="739.0" type="line"/>
      <point x="375.0792990741463" y="739.0" type="line"/>
    </contour>
    <contour>
      <point x="299.2540726983914" y="514.0" type="move" name="_top"/>
    </contour>
  </outline>
</glyph>
<glyph name="paragraph" format="1">
  <advance width="616"/>
  <unicode hex="00B6"/>
  <outline>
    <contour>
      <point x="89.1625568198198" y="443.0" type="curve" smooth="yes"/>
      <point x="55.153506952616254" y="283.0"/>
      <point x="142.87364264899435" y="197.0"/>
      <point x="265.87364264899435" y="197.0" type="curve" smooth="yes"/>
      <point x="287.87364264899435" y="197.0" type="line"/>
      <point x="207.10214921438597" y="-183.0" type="line"/>
      <point x="286.102149214386" y="-183.0" type="line"/>
      <point x="471.66402755231525" y="690.0" type="line"/>
      <point x="370.66402755231525" y="690.0" type="line" smooth="yes"/>
      <point x="247.66402755231525" y="690.0"/>
      <point x="123.17160668702334" y="603.0"/>
    </contour>
    <contour>
      <point x="356.102149214386" y="-183.0" type="line"/>
      <point x="436.102149214386" y="-183.0" type="line"/>
      <point x="621.6640275523152" y="690.0" type="line"/>
      <point x="541.6640275523152" y="690.0" type="line"/>
    </contour>
  </outline>
</glyph>
<glyph name="cedilla" format="1">
  <advance width="500"/>
  <unicode hex="00B8"/>
  <outline>
    <contour>
      <point x="72.77386863752466" y="-241.0" type="line"/>
      <point x="92.77386863752466" y="-241.0" type="line" smooth="yes"/>
      <point x="174.77386863752466" y="-241.0"/>
      <point x="238.33891391267565" y="-196.0"/>
      <point x="251.092307612877" y="-136.0" type="curve" smooth="yes"/>
      <point x="259.8071266413479" y="-95.0"/>
      <point x="240.58762825749608" y="-67.8048780487805"/>
      <point x="198.24660629979866" y="-60.0" type="curve"/>
      <point x="222.91300905503022" y="9.0" type="line"/>
      <point x="167.18834842505032" y="15.0" type="line"/>
      <point x="125.04389133963761" y="-108.0" type="line"/>
      <point x="145.61877821629756" y="-110.0" type="line" smooth="yes"/>
      <point x="170.19366509295753" y="-112.0"/>
      <point x="178.67726966931565" y="-123.83870967741936"/>
      <point x="174.60441168118683" y="-143.0" type="curve" smooth="yes"/>
      <point x="170.36745088523105" y="-162.93333333333334"/>
      <point x="152.67703609104592" y="-185.0"/>
      <point x="95.31470577605597" y="-182.0" type="curve"/>
    </contour>
    <contour>
      <point x="190.0" y="0.0" type="move" name="_bottom"/>
    </contour>
  </outline>
</glyph>
<glyph name="onesuperior" format="1">
  <advance width="371"/>
  <unicode hex="00B9"/>
  <outline>
    <contour>
      <point x="70.64140288430642" y="290.0" type="line"/>
      <point x="321.64140288430644" y="290.0" type="line"/>
      <point x="335.8826925161979" y="357.0" type="line"/>
      <point x="84.88269251619789" y="357.0" type="line"/>
    </contour>
    <contour>
      <point x="123.14739855040366" y="617.0" type="line"/>
      <point x="141.60656141187235" y="558.0" type="line"/>
      <point x="280.84785104376385" y="625.0" type="line"/>
      <point x="268.66402755231525" y="690.0" type="line"/>
    </contour>
    <contour>
      <point x="160.64140288430642" y="290.0" type="line"/>
      <point x="235.64140288430644" y="290.0" type="line"/>
      <point x="320.66402755231525" y="690.0" type="line"/>
      <point x="268.66402755231525" y="690.0" type="line"/>
      <point x="234.39852978380407" y="637.0" type="line"/>
    </contour>
  </outline>
</glyph>
<glyph name="ordmasculine" format="1">
  <advance width="405"/>
  <unicode hex="00BA"/>
  <outline>
    <contour>
      <point x="87.36527177998084" y="491.0" type="curve" smooth="yes"/>
      <point x="57.394796584507745" y="350.0"/>
      <point x="102.5158372676062" y="280.0"/>
      <point x="200.51583726760617" y="280.0" type="curve" smooth="yes"/>
      <point x="294.5158372676062" y="280.0"/>
      <point x="372.39479658450773" y="350.0"/>
      <point x="402.36527177998084" y="491.0" type="curve" smooth="yes"/>
      <point x="432.12319041378396" y="631.0"/>
      <point x="387.0021497306855" y="701.0"/>
      <point x="292.0021497306855" y="701.0" type="curve" smooth="yes"/>
      <point x="194.00214973068552" y="701.0"/>
      <point x="117.12319041378396" y="631.0"/>
    </contour>
    <contour>
      <point x="162.36527177998084" y="491.0" type="curve" smooth="yes"/>
      <point x="180.85769264527278" y="578.0"/>
      <point x="218.27296416710385" y="627.0"/>
      <point x="274.27296416710385" y="627.0" type="curve" smooth="yes"/>
      <point x="328.27296416710385" y="627.0"/>
      <point x="345.8576926452728" y="578.0"/>
      <point x="327.36527177998084" y="491.0" type="curve" smooth="yes"/>
      <point x="308.8728509146889" y="404.0"/>
      <point x="270.45757939285784" y="355.0"/>
      <point x="216.45757939285784" y="355.0" type="curve" smooth="yes"/>
      <point x="160.45757939285784" y="355.0"/>
      <point x="143.87285091468894" y="404.0"/>
    </contour>
  </outline>
</glyph>
<glyph name="guillemetright" format="1">
  <advance width="430"/>
  <unicode hex="00BB"/>
  <outline>
    <contour>
      <point x="-27.35780538138816" y="83.0" type="line"/>
      <point x="65.64219461861184" y="83.0" type="line"/>
      <point x="199.28891417082542" y="246.0" type="line"/>
      <point x="209.2790725693165" y="293.0" type="line"/>
      <point x="147.70418569265652" y="295.0" type="line"/>
    </contour>
    <contour>
      <point x="52.350905244870134" y="458.0" type="line"/>
      <point x="137.28891417082545" y="246.0" type="line"/>
      <point x="199.71402729416548" y="248.0" type="line"/>
      <point x="209.70418569265655" y="295.0" type="line"/>
      <point x="145.35090524487015" y="458.0" type="line"/>
    </contour>
    <contour>
      <point x="163.64219461861182" y="83.0" type="line"/>
      <point x="256.6421946186118" y="83.0" type="line"/>
      <point x="390.2889141708254" y="246.0" type="line"/>
      <point x="400.2790725693165" y="293.0" type="line"/>
      <point x="338.70418569265655" y="295.0" type="line"/>
    </contour>
    <contour>
      <point x="243.35090524487015" y="458.0" type="line"/>
      <point x="328.2889141708254" y="246.0" type="line"/>
      <point x="390.7140272941655" y="248.0" type="line"/>
      <point x="400.70418569265655" y="295.0" type="line"/>
      <point x="336.35090524487015" y="458.0" type="line"/>
    </contour>
  </outline>
</glyph>
<glyph name="questiondown" format="1">
  <advance width="430"/>
  <unicode hex="00BF"/>
  <outline>
    <contour>
      <point x="-16.251131233400443" y="-20.0" type="curve" smooth="yes"/>
      <point x="-38.569570208752765" y="-125.0"/>
      <point x="29.551470474345678" y="-195.0"/>
      <point x="131.55147047434568" y="-195.0" type="curve" smooth="yes"/>
      <point x="207.5514704743457" y="-195.0"/>
      <point x="273.84117637947656" y="-156.0"/>
      <point x="331.8071266413479" y="-95.0" type="curve"/>
      <point x="282.71029409486914" y="-39.0" type="line"/>
      <point x="243.35780538138818" y="-83.0"/>
      <point x="201.40622165462753" y="-111.0"/>
      <point x="158.40622165462753" y="-111.0" type="curve" smooth="yes"/>
      <point x="90.09249616443145" y="-111.0"/>
      <point x="63.33359724476847" y="-69.0"/>
      <point x="75.44932125995973" y="-12.0" type="curve" smooth="yes"/>
      <point x="86.07714934346083" y="38.0"/>
      <point x="125.32182380710643" y="73.0"/>
      <point x="182.29423083873263" y="119.0" type="curve" smooth="yes"/>
      <point x="220.88348425050333" y="150.0"/>
      <point x="252.74807703229413" y="187.0"/>
      <point x="260.20192322585564" y="255.0" type="curve" smooth="yes"/>
      <point x="266.25486443269676" y="307.0" type="line"/>
      <point x="195.2548644326968" y="307.0" type="line"/>
      <point x="183.47726259587577" y="261.0" type="line" smooth="yes"/>
      <point x="171.69966075905475" y="215.0"/>
      <point x="160.51131233400443" y="200.0"/>
      <point x="120.07183267555365" y="165.0" type="curve" smooth="yes"/>
      <point x="74.47664930747624" y="124.56284153005464"/>
      <point x="2.4538461935615032" y="68.0"/>
    </contour>
    <contour>
      <point x="202.8388011765603" y="465.0" type="curve" smooth="yes"/>
      <point x="195.82443464144956" y="432.0"/>
      <point x="216.29796403802897" y="406.0"/>
      <point x="249.29796403802897" y="406.0" type="curve" smooth="yes"/>
      <point x="281.29796403802897" y="406.0"/>
      <point x="313.82443464144956" y="432.0"/>
      <point x="320.8388011765603" y="465.0" type="curve" smooth="yes"/>
      <point x="327.640611150001" y="497.0"/>
      <point x="306.3796383150916" y="524.0"/>
      <point x="274.3796383150916" y="524.0" type="curve" smooth="yes"/>
      <point x="241.3796383150916" y="524.0"/>
      <point x="209.640611150001" y="497.0"/>
    </contour>
  </outline>
</glyph>
<glyph name="AE" format="1">
  <advance width="772"/>
  <unicode hex="00C6"/>
  <outline>
    <contour>
      <point x="-54.0" y="0.0" type="line"/>
      <point x="40.0" y="0.0" type="line"/>
      <point x="382.21018135875374" y="622.0" type="line"/>
      <point x="373.66402755231525" y="690.0" type="line"/>
      <point x="328.66402755231525" y="690.0" type="line"/>
    </contour>
    <contour>
      <point x="105.87364264899435" y="197.0" type="line"/>
      <point x="384.87364264899435" y="197.0" type="line"/>
      <point x="402.72839382927623" y="281.0" type="line"/>
      <point x="123.72839382927623" y="281.0" type="line"/>
    </contour>
    <contour>
      <point x="289.0" y="0.0" type="line"/>
      <point x="379.0" y="0.0" type="line"/>
      <point x="525.6640275523152" y="690.0" type="line"/>
      <point x="435.66402755231525" y="690.0" type="line"/>
    </contour>
    <contour>
      <point x="334.0" y="0.0" type="line"/>
      <point x="658.0" y="0.0" type="line"/>
      <point x="675.6421946186118" y="83.0" type="line"/>
      <point x="351.6421946186118" y="83.0" type="line"/>
    </contour>
    <contour>
      <point x="399.4674209943668" y="308.0" type="line"/>
      <point x="680.4674209943669" y="308.0" type="line"/>
      <point x="698.3221721746487" y="392.0" type="line"/>
      <point x="417.3221721746487" y="392.0" type="line"/>
    </contour>
    <contour>
      <point x="329.0218329337034" y="607.0" type="line"/>
      <point x="783.0218329337034" y="607.0" type="line"/>
      <point x="800.6640275523152" y="690.0" type="line"/>
      <point x="346.66402755231525" y="690.0" type="line"/>
    </contour>
    <contour>
      <point x="551.6640275523152" y="690.0" type="move" name="top"/>
    </contour>
  </outline>
</glyph>
<glyph name="Eth" format="1">
  <advance width="573"/>
  <unicode hex="00D0"/>
  <outline>
    <contour>
      <point x="33.25486443269679" y="307.0" type="line"/>
      <point x="295.25486443269676" y="307.0" type="line"/>
      <point x="311.6217196812885" y="384.0" type="line"/>
      <point x="49.621719681288496" y="384.0" type="line"/>
    </contour>
    <contour>
      <point x="24.0" y="0.0" type="line"/>
      <point x="114.0" y="0.0" type="line"/>
      <point x="260.66402755231525" y="690.0" type="line"/>
      <point x="170.66402755231528" y="690.0" type="line"/>
    </contour>
    <contour>
      <point x="69.0" y="0.0" type="line"/>
      <point x="210.0" y="0.0" type="line" smooth="yes"/>
      <point x="354.0" y="0.0"/>
      <point x="494.1444570854127" y="123.0"/>
      <point x="541.3320137761576" y="345.0" type="curve" smooth="yes"/>
      <point x="588.5195704669026" y="567.0"/>
      <point x="500.66402755231525" y="690.0"/>
      <point x="356.66402755231525" y="690.0" type="curve" smooth="yes"/>
      <point x="215.66402755231525" y="690.0" type="line"/>
      <point x="198.02183293370342" y="607.0" type="line"/>
      <point x="333.0218329337034" y="607.0" type="line" smooth="yes"/>
      <point x="432.0218329337034" y="607.0"/>
      <point x="484.0415161367214" y="513.0"/>
      <point x="448.3320137761576" y="345.0" type="curve" smooth="yes"/>
      <point x="412.6225114155939" y="177.0"/>
      <point x="320.6421946186118" y="83.0"/>
      <point x="221.64219461861182" y="83.0" type="curve" smooth="yes"/>
      <point x="86.64219461861182" y="83.0" type="line"/>
    </contour>
  </outline>
</glyph>
<glyph name="multiply" format="1">
  <advance width="500"/>
  <unicode hex="00D7"/>
  <outline>
    <contour>
      <point x="93.58766994315985" y="445.0" type="line"/>
      <point x="344.0045249336018" y="80.0" type="line"/>
      <point x="409.27002270211295" y="133.0" type="line"/>
      <point x="158.853167711671" y="498.0" type="line"/>
    </contour>
    <contour>
      <point x="27.057466140442926" y="132.0" type="line"/>
      <point x="71.00452493360177" y="80.0" type="line"/>
      <point x="475.8002265048299" y="446.0" type="line"/>
      <point x="431.853167711671" y="498.0" type="line"/>
    </contour>
  </outline>
</glyph>
<glyph name="Oslash" format="1">
  <advance width="585"/>
  <unicode hex="00D8"/>
  <outline>
    <contour>
      <point x="58.33201377615764" y="345.0" type="curve" smooth="yes"/>
      <point x="8.593778345372456" y="111.0"/>
      <point x="94.87443438329979" y="-10.0"/>
      <point x="229.87443438329979" y="-10.0" type="curve" smooth="yes"/>
      <point x="365.8744343832998" y="-10.0"/>
      <point x="503.59377834537247" y="111.0"/>
      <point x="553.3320137761576" y="345.0" type="curve" smooth="yes"/>
      <point x="603.0702492069428" y="579.0"/>
      <point x="516.7895931690155" y="700.0"/>
      <point x="380.78959316901546" y="700.0" type="curve" smooth="yes"/>
      <point x="245.78959316901546" y="700.0"/>
      <point x="108.0702492069428" y="579.0"/>
    </contour>
    <contour>
      <point x="149.33201377615762" y="345.0" type="curve" smooth="yes"/>
      <point x="187.5921948767616" y="525.0"/>
      <point x="272.72228542706364" y="615.0"/>
      <point x="362.72228542706364" y="615.0" type="curve" smooth="yes"/>
      <point x="452.72228542706364" y="615.0"/>
      <point x="500.5921948767616" y="525.0"/>
      <point x="462.3320137761576" y="345.0" type="curve" smooth="yes"/>
      <point x="424.07183267555365" y="165.0"/>
      <point x="337.94174212525166" y="75.0"/>
      <point x="247.94174212525166" y="75.0" type="curve" smooth="yes"/>
      <point x="157.94174212525166" y="75.0"/>
      <point x="111.07183267555365" y="165.0"/>
    </contour>
    <contour>
      <point x="-22.71029409486914" y="39.0" type="line"/>
      <point x="17.874434383299786" y="-10.0" type="line"/>
      <point x="634.3743216471844" y="651.0" type="line"/>
      <point x="593.7895931690155" y="700.0" type="line"/>
    </contour>
    <contour>
      <point x="378.66402755231525" y="690.0" type="move" name="top"/>
    </contour>
  </outline>
</glyph>
<glyph name="Thorn" format="1">
  <advance width="510"/>
  <unicode hex="00DE"/>
  <outline>
    <contour>
      <point x="17.0" y="0.0" type="line"/>
      <point x="107.0" y="0.0" type="line"/>
      <point x="253.66402755231525" y="690.0" type="line"/>
      <point x="163.66402755231528" y="690.0" type="line"/>
    </contour>
    <contour>
      <point x="91.12024894879303" y="137.0" type="line"/>
      <point x="224.120248948793" y="137.0" type="line"/>
      <point x="363.120248948793" y="137.0"/>
      <point x="457.4871041973847" y="214.0"/>
      <point x="485.3320137761576" y="345.0" type="curve" smooth="yes"/>
      <point x="513.3894799166005" y="477.0"/>
      <point x="451.54377860352224" y="553.0"/>
      <point x="312.54377860352224" y="553.0" type="curve"/>
      <point x="179.54377860352224" y="553.0" type="line"/>
      <point x="161.90158398491042" y="470.0" type="line"/>
      <point x="288.9015839849104" y="470.0" type="line"/>
      <point x="391.9015839849104" y="470.0"/>
      <point x="409.91142558641934" y="423.0"/>
      <point x="393.3320137761576" y="345.0" type="curve" smooth="yes"/>
      <point x="376.9651585275659" y="268.0"/>
      <point x="338.7624435674049" y="220.0"/>
      <point x="235.7624435674049" y="220.0" type="curve"/>
      <point x="108.76244356740486" y="220.0" type="line"/>
    </contour>
  </outline>
</glyph>
<glyph name="germandbls" format="1">
  <advance width="510"/>
  <unicode hex="00DF"/>
  <outline>
    <contour>
      <point x="13.0" y="0.0" type="line"/>
      <point x="101.0" y="0.0" type="line"/>
      <point x="214.2926473701218" y="533.0" type="line" smooth="yes"/>
      <point x="230.3735174266484" y="608.6545454545455"/>
      <point x="274.10549074934147" y="647.0"/>
      <point x="323.5240954005043" y="647.0" type="curve" smooth="yes"/>
      <point x="370.5240954005043" y="647.0"/>
      <point x="392.93484198873364" y="616.0"/>
      <point x="381.45678765855246" y="562.0" type="curve" smooth="yes"/>
      <point x="369.7661767667012" y="507.0"/>
      <point x="323.9198322417724" y="461.40740740740745"/>
      <point x="247.7472852979887" y="394.0" type="curve"/>
      <point x="232.44321285774714" y="322.0" type="line"/>
      <point x="311.6270363491957" y="257.0" type="line" smooth="yes"/>
      <point x="358.12887988107957" y="216.74257425742573"/>
      <point x="368.74807703229413" y="187.0"/>
      <point x="360.88348425050333" y="150.0" type="curve" smooth="yes"/>
      <point x="351.95610866036236" y="108.0"/>
      <point x="316.6664027552315" y="69.0"/>
      <point x="269.6664027552315" y="69.0" type="curve" smooth="yes"/>
      <point x="239.6664027552315" y="69.0"/>
      <point x="215.21708149527177" y="81.0"/>
      <point x="196.55520367364204" y="92.0" type="curve"/>
      <point x="154.03857467173043" y="19.0" type="line"/>
      <point x="173.8512606082513" y="5.903225806451614"/>
      <point x="212.87443438329979" y="-10.0"/>
      <point x="259.8744343832998" y="-10.0" type="curve" smooth="yes"/>
      <point x="350.8744343832998" y="-10.0"/>
      <point x="426.80973399365604" y="60.26506024096385"/>
      <point x="446.3085973738434" y="152.0" type="curve" smooth="yes"/>
      <point x="460.4557002658331" y="218.5568862275449"/>
      <point x="443.3870558906619" y="266.3257142857143"/>
      <point x="377.65576941941714" y="323.0" type="curve" smooth="yes"/>
      <point x="325.7957015712281" y="366.0" type="line"/>
      <point x="381.9263124630793" y="421.0"/>
      <point x="450.6020364782706" y="478.0"/>
      <point x="470.1572401519127" y="570.0" type="curve" smooth="yes"/>
      <point x="492.4756791272649" y="675.0"/>
      <point x="438.56388038056195" y="730.0"/>
      <point x="339.16629001911616" y="730.0" type="curve" smooth="yes"/>
      <point x="237.16629001911616" y="730.0"/>
      <point x="154.49478551588987" y="665.6806282722514"/>
      <point x="126.71776049346184" y="535.0" type="curve" smooth="yes"/>
    </contour>
  </outline>
</glyph>
<glyph name="ae" format="1">
  <advance width="720"/>
  <unicode hex="00E6"/>
  <outline>
    <contour>
      <point x="15.33280551046306" y="138.0" type="curve" smooth="yes"/>
      <point x="-4.059341074774579" y="46.767123287671225"/>
      <point x="47.874434383299786" y="-10.0"/>
      <point x="130.87443438329979" y="-10.0" type="curve" smooth="yes"/>
      <point x="197.87443438329979" y="-10.0"/>
      <point x="267.83876979413003" y="29.941176470588232"/>
      <point x="321.49242086529193" y="87.0" type="curve"/>
      <point x="290.695135825453" y="135.0" type="line"/>
      <point x="257.1928733586521" y="95.0"/>
      <point x="205.3040724402416" y="72.0"/>
      <point x="165.30407244024158" y="72.0" type="curve" smooth="yes"/>
      <point x="117.30407244024158" y="72.0"/>
      <point x="94.46821272867223" y="101.0"/>
      <point x="103.18303175714314" y="142.0" type="curve"/>
      <point x="112.5355204706241" y="186.0"/>
      <point x="149.31312230744513" y="232.0"/>
      <point x="256.37590511579526" y="237.0" type="curve" smooth="yes"/>
      <point x="303.80101823913526" y="239.0" type="line"/>
      <point x="320.25486443269676" y="307.0" type="line"/>
      <point x="265.25486443269676" y="307.0" type="line" smooth="yes"/>
      <point x="111.25486443269679" y="307.0"/>
      <point x="34.239152311638705" y="226.94736842105263"/>
    </contour>
    <contour>
      <point x="104.8145930399406" y="479.0" type="curve"/>
      <point x="118.08540747635897" y="405.0" type="line"/>
      <point x="157.91142558641934" y="423.0"/>
      <point x="198.09977401146966" y="438.0"/>
      <point x="241.09977401146966" y="438.0" type="curve" smooth="yes"/>
      <point x="301.09977401146966" y="438.0"/>
      <point x="329.7198101902865" y="403.28"/>
      <point x="310.742760364387" y="314.0" type="curve" smooth="yes"/>
      <point x="298.8395929108657" y="258.0" type="line"/>
      <point x="376.8395929108657" y="258.0" type="line"/>
      <point x="390.65576941941714" y="323.0" type="line" smooth="yes"/>
      <point x="419.1383486832001" y="457.0"/>
      <point x="366.3796383150916" y="524.0"/>
      <point x="269.3796383150916" y="524.0" type="curve" smooth="yes"/>
      <point x="215.76328611383371" y="524.0"/>
      <point x="149.12850708169117" y="504.0"/>
    </contour>
    <contour>
      <point x="299.5642535408456" y="252.0" type="curve" smooth="yes"/>
      <point x="260.02873307022145" y="66.0"/>
      <point x="328.8744343832998" y="-10.0"/>
      <point x="448.8744343832998" y="-10.0" type="curve" smooth="yes"/>
      <point x="505.8744343832998" y="-10.0"/>
      <point x="565.5506787400402" y="12.0"/>
      <point x="611.6278280835011" y="50.0" type="curve"/>
      <point x="576.9561086603624" y="108.0" type="line"/>
      <point x="547.0673077419519" y="85.0"/>
      <point x="510.6664027552315" y="69.0"/>
      <point x="477.6664027552315" y="69.0" type="curve"/>
      <point x="401.6664027552315" y="69.0"/>
      <point x="353.08167427706263" y="118.0"/>
      <point x="381.3516969791756" y="251.0" type="curve" smooth="yes"/>
      <point x="408.5589368729384" y="379.0"/>
      <point x="465.6192741238775" y="446.0"/>
      <point x="528.8002265048299" y="446.0" type="curve" smooth="yes"/>
      <point x="585.5309957355992" y="446.0"/>
      <point x="618.3849549829988" y="397.0"/>
      <point x="590.7526019658959" y="267.0" type="curve"/>
      <point x="613.4046381860167" y="303.0" type="line"/>
      <point x="370.4046381860167" y="303.0" type="line"/>
      <point x="355.1005657457751" y="231.0" type="line"/>
      <point x="664.1005657457752" y="231.0" type="line"/>
      <point x="667.6512444858154" y="243.0"/>
      <point x="671.2019232258557" y="255.0"/>
      <point x="673.5400454042259" y="266.0" type="curve" smooth="yes"/>
      <point x="710.3123305731397" y="439.0"/>
      <point x="649.3796383150916" y="524.0"/>
      <point x="545.3796383150916" y="524.0" type="curve" smooth="yes"/>
      <point x="436.3796383150916" y="524.0"/>
      <point x="333.7858599697191" y="413.0"/>
    </contour>
    <contour>
      <point x="409.4666292600614" y="515.0" type="move" name="top"/>
    </contour>
  </outline>
</glyph>
<glyph name="eth" format="1">
  <advance width="486"/>
  <unicode hex="00F0"/>
  <outline>
    <contour>
      <point x="34.95079199245521" y="235.0" type="curve" smooth="yes"/>
      <point x="0.9417421252516576" y="75.0"/>
      <point x="65.87443438329979" y="-10.0"/>
      <point x="169.87443438329979" y="-10.0" type="curve" smooth="yes"/>
      <point x="275.386629505251" y="-10.0"/>
      <point x="396.94740931149784" y="93.86813186813188"/>
      <point x="434.9651585275659" y="268.0" type="curve" smooth="yes"/>
      <point x="478.016333159537" y="465.8118161925602"/>
      <point x="411.0649770113306" y="637.8181818181818"/>
      <point x="329.0407244024159" y="720.0" type="curve"/>
      <point x="222.0407244024159" y="720.0" type="line"/>
      <point x="338.9590501253533" y="602.0"/>
      <point x="392.07556587485" y="452.0"/>
      <point x="352.32748884255585" y="265.0" type="curve" smooth="yes"/>
      <point x="326.39558831881317" y="143.0"/>
      <point x="250.4538461935615" y="68.0"/>
      <point x="188.4538461935615" y="68.0" type="curve" smooth="yes"/>
      <point x="132.4538461935615" y="68.0"/>
      <point x="99.78212677042279" y="126.0"/>
      <point x="122.95079199245521" y="235.0" type="curve" smooth="yes"/>
      <point x="146.11945721448762" y="344.0"/>
      <point x="206.4477377913489" y="402.0"/>
      <point x="266.4477377913489" y="402.0" type="curve" smooth="yes"/>
      <point x="315.4477377913489" y="402.0"/>
      <point x="353.0710409412482" y="372.0"/>
      <point x="366.50599566609725" y="327.0" type="curve"/>
      <point x="384.95984185965875" y="395.0" type="line"/>
      <point x="368.9355247161419" y="437.5"/>
      <point x="339.4184539494367" y="480.0"/>
      <point x="270.02714960161063" y="480.0" type="curve" smooth="yes"/>
      <point x="179.55523948925105" y="480.0"/>
      <point x="68.95984185965875" y="395.0"/>
    </contour>
    <contour>
      <point x="216.56798674014192" y="539.0" type="line"/>
      <point x="466.53846193561503" y="680.0" type="line"/>
      <point x="445.3788465807862" y="731.0" type="line"/>
      <point x="195.40837138531305" y="590.0" type="line"/>
    </contour>
  </outline>
</glyph>
<glyph name="divide" format="1">
  <advance width="500"/>
  <unicode hex="00F7"/>
  <outline>
    <contour>
      <point x="50.564253540845584" y="252.0" type="line"/>
      <point x="436.5642535408456" y="252.0" type="line"/>
      <point x="452.7185522277673" y="328.0" type="line"/>
      <point x="66.71855222776726" y="328.0" type="line"/>
    </contour>
    <contour>
      <point x="157.0816742770626" y="118.0" type="curve" smooth="yes"/>
      <point x="150.06730774195188" y="85.0"/>
      <point x="170.54083713853132" y="59.0"/>
      <point x="202.5408371385313" y="59.0" type="curve" smooth="yes"/>
      <point x="234.5408371385313" y="59.0"/>
      <point x="267.0673077419519" y="85.0"/>
      <point x="274.08167427706263" y="118.0" type="curve" smooth="yes"/>
      <point x="280.88348425050333" y="150.0"/>
      <point x="259.40995485392386" y="176.0"/>
      <point x="227.40995485392386" y="176.0" type="curve" smooth="yes"/>
      <point x="195.4099548539239" y="176.0"/>
      <point x="163.88348425050333" y="150.0"/>
    </contour>
    <contour>
      <point x="230.41368805322026" y="463.0" type="curve" smooth="yes"/>
      <point x="223.3993215181095" y="430.0"/>
      <point x="243.8728509146889" y="404.0"/>
      <point x="275.8728509146889" y="404.0" type="curve" smooth="yes"/>
      <point x="307.8728509146889" y="404.0"/>
      <point x="340.3993215181095" y="430.0"/>
      <point x="347.41368805322026" y="463.0" type="curve" smooth="yes"/>
      <point x="354.21549802666095" y="495.0"/>
      <point x="332.74196863008154" y="521.0"/>
      <point x="300.74196863008154" y="521.0" type="curve" smooth="yes"/>
      <point x="268.74196863008154" y="521.0"/>
      <point x="237.21549802666095" y="495.0"/>
    </contour>
  </outline>
</glyph>
<glyph name="oslash" format="1">
  <advance width="486"/>
  <unicode hex="00F8"/>
  <outline>
    <contour>
      <point x="37.62703634919569" y="257.0" type="curve" smooth="yes"/>
      <point x="0.642194618611839" y="83.0"/>
      <point x="64.87443438329979" y="-10.0"/>
      <point x="180.87443438329979" y="-10.0" type="curve" smooth="yes"/>
      <point x="296.8744343832998" y="-10.0"/>
      <point x="400.6421946186118" y="83.0"/>
      <point x="437.6270363491957" y="257.0" type="curve" smooth="yes"/>
      <point x="474.39932151810956" y="430.0"/>
      <point x="410.3796383150916" y="524.0"/>
      <point x="294.3796383150916" y="524.0" type="curve" smooth="yes"/>
      <point x="178.3796383150916" y="524.0"/>
      <point x="74.3993215181095" y="430.0"/>
    </contour>
    <contour>
      <point x="125.62703634919569" y="257.0" type="curve" smooth="yes"/>
      <point x="151.34638031126838" y="378.0"/>
      <point x="208.01278306649988" y="447.0"/>
      <point x="278.0127830664999" y="447.0" type="curve" smooth="yes"/>
      <point x="348.0127830664999" y="447.0"/>
      <point x="375.3463803112684" y="378.0"/>
      <point x="349.6270363491957" y="257.0" type="curve" smooth="yes"/>
      <point x="323.695135825453" y="135.0"/>
      <point x="267.2412896318915" y="67.0"/>
      <point x="197.2412896318915" y="67.0" type="curve" smooth="yes"/>
      <point x="127.24128963189148" y="67.0"/>
      <point x="99.69513582545298" y="135.0"/>
    </contour>
    <contour>
      <point x="-21.497737533199114" y="40.0" type="line"/>
      <point x="17.874434383299786" y="-10.0" type="line"/>
      <point x="496.9643667932605" y="475.0" type="line"/>
      <point x="457.3796383150916" y="524.0" type="line"/>
    </contour>
    <contour>
      <point x="292.2540726983914" y="514.0" type="move" name="top"/>
    </contour>
  </outline>
</glyph>
